<?xml version="1.0" encoding="UTF-8"?>
<svg width="32px" height="32px" viewBox="0 0 32 32" version="1.1" xmlns="http://www.w3.org/2000/svg" xmlns:xlink="http://www.w3.org/1999/xlink">
    <!-- Generator: Sketch 48.2 (47327) - http://www.bohemiancoding.com/sketch -->
    <title>Group 7</title>
    <desc>Created with Sketch.</desc>
    <defs></defs>
    <g id="Footers" stroke="none" stroke-width="1" fill="none" fill-rule="evenodd" transform="translate(-1084.000000, -306.000000)">
        <g id="Group-7" transform="translate(1085.000000, 307.000000)">
            <circle id="Oval-48-Copy-4" stroke="#FFFFFF" transform="translate(15.000000, 15.000000) rotate(-270.000000) translate(-15.000000, -15.000000) " cx="15" cy="15" r="15"></circle>
            <path d="M16.2232505,22.5195115 L16.2232505,15.4403748 L18.5958575,15.4403748 L18.9510681,12.6814601 L16.2232505,12.6814601 L16.2232505,10.920015 C16.2232505,10.1212448 16.4446929,9.57685919 17.5884245,9.57685919 L19.0471541,9.57624275 L19.0471541,7.10869905 C18.7948001,7.07513727 17.9289315,7 16.9215669,7 C14.8184795,7 13.3786252,8.28568986 13.3786252,10.6468633 L13.3786252,12.6814601 L11,12.6814601 L11,15.4403748 L13.3786252,15.4403748 L13.3786252,22.5195115 L16.2232505,22.5195115 Z" id="Fill-1-Copy" fill="#FFFFFF"></path>
        </g>
    </g>
</svg>