<?xml version="1.0" encoding="UTF-8" standalone="no"?>
<svg width="131px" height="30px" viewBox="0 0 131 30" version="1.1" xmlns="http://www.w3.org/2000/svg" xmlns:xlink="http://www.w3.org/1999/xlink">
    <!-- Generator: sketchtool 3.8.3 (29802) - http://www.bohemiancoding.com/sketch -->
    <title>D0E844B7-DF18-4DA3-AD24-5223EA228CFC</title>
    <desc>Created with sketchtool.</desc>
    <defs></defs>
    <g id="HEADER-FOOTER---FINAL" stroke="none" stroke-width="1" fill="none" fill-rule="evenodd">
        <g id="Shop-Header---LG" transform="translate(-32.000000, -20.000000)">
            <g id="ic-Logo" transform="translate(32.000000, 20.000000)">
                <path d="M129.056023,23.1642367 C128.381783,23.1642367 127.813215,23.7546257 127.813215,24.4269042 C127.813215,25.1006538 128.381783,25.6895718 129.056023,25.6895718 C129.793029,25.6895718 130.320162,25.1006538 130.320162,24.4269042 C130.320162,23.7127002 129.793029,23.1642367 129.056023,23.1642367 M129.056023,25.54271 C128.445775,25.54271 127.938501,25.0158222 127.938501,24.4269042 C127.938501,23.8178817 128.445775,23.3125695 129.056023,23.3125695 C129.687847,23.3125695 130.15197,23.8178817 130.15197,24.4269042 C130.15197,25.0158222 129.687847,25.54271 129.056023,25.54271 M129.559619,24.1331808 C129.559619,23.9863191 129.476504,23.6916149 129.014343,23.6916149 L128.612496,23.6916149 L128.612496,25.1842596 L128.804225,25.1842596 L128.804225,24.5323308 L129.119279,24.5323308 L129.392162,25.1842596 L129.559619,25.1842596 L129.307821,24.5102648 C129.456399,24.4901602 129.559619,24.3231939 129.559619,24.1331808 M129.034202,24.4050834 L128.804225,24.4050834 L128.804225,23.8585812 L129.075883,23.8585812 C129.266141,23.8585812 129.413003,23.9230631 129.413003,24.1331808 C129.413003,24.2599379 129.349501,24.4050834 129.034202,24.4050834" id="Fill-1" fill="#727272"></path>
                <polygon id="Fill-4" fill="#727272" points="49.4760706 25.3821674 37.0313174 9.51987578 37.0313174 25.1016836 35.6286532 25.1016836 35.6286532 6.20457666 35.960134 6.12808107 48.3031383 21.811883 48.3031383 6.40881007 49.7310559 6.40881007 49.7310559 25.3311703"></polygon>
                <path d="M60.9506293,25.3564972 C56.615389,25.3564972 54.0140487,22.8318977 54.0140487,18.3181677 L54.0140487,6.40863844 L55.4422115,6.40863844 L55.4422115,18.292424 C55.4422115,22.1179389 57.6098316,24.0560722 60.9506293,24.0560722 C64.2914269,24.0560722 66.5100441,22.0669418 66.5100441,18.292424 L66.5100441,6.40863844 L67.9637055,6.40863844 L67.9637055,18.3181677 C67.9637055,22.704405 65.1838754,25.3564972 60.9506293,25.3564972" id="Fill-6" fill="#727272"></path>
                <path d="M81.5798709,25.4075678 C79.5904953,25.4075678 77.8053531,24.7446061 76.173202,23.6734227 L76.8619075,22.4239948 C78.3665659,23.4439359 80.0242154,24.1071429 81.7071183,24.1071429 C84.1807208,24.1071429 85.8386156,22.5257437 85.8386156,20.4601177 C85.8386156,18.2924975 84.3851994,17.3488068 81.732862,16.1503759 C78.8510379,14.8752043 77.0913942,13.5490356 77.0913942,10.9736842 C77.0913942,8.27034979 79.3610085,6.10272965 82.701561,6.10272965 C84.333712,6.10272965 85.8128719,6.63819876 86.9095538,7.3776561 L86.2210935,8.57633213 C85.2774027,7.9131252 83.9769778,7.40315463 82.5743135,7.40315463 C80.0749673,7.40315463 78.519557,8.93331154 78.519557,10.8714449 C78.519557,12.8860739 80.100711,13.855018 82.3703253,14.900948 C85.5833851,16.3543642 87.2920317,17.6040373 87.2920317,20.281628 C87.2920317,23.3419418 84.7419336,25.4075678 81.5798709,25.4075678" id="Fill-8" fill="#727272"></path>
                <polygon id="Fill-10" fill="#727272" points="101.342947 25.1015855 92.2894982 15.8701373 92.2894982 25.1015855 90.8618258 25.1015855 90.8618258 6.408712 92.2894982 6.408712 92.2894982 15.1046911 101.036965 6.408712 102.872859 6.408712 93.6666639 15.487169 103.230083 25.1015855"></polygon>
                <polygon id="Fill-12" fill="#727272" points="106.084668 25.1015855 107.513076 25.1015855 107.513076 6.408712 106.084668 6.408712"></polygon>
                <polygon id="Fill-14" fill="#727272" points="125.899256 25.3821674 113.454258 9.51987578 113.454258 25.1016836 112.051594 25.1016836 112.051594 6.20457666 112.38332 6.12808107 124.726079 21.811883 124.726079 6.40881007 126.154487 6.40881007 126.154487 25.3311703"></polygon>
                <path d="M7.55908794,16.0089081 C6.72376594,15.4839817 5.73496241,15.4687806 5.73496241,15.4687806 C3.18143184,15.3253514 1.91410592,17.0496894 1.5078457,18.42661 C1.21976136,19.493135 1.27394573,20.97254 2.41598562,22.8322164 C4.14130435,25.3666231 6.65707748,27.3327068 9.59235044,28.387218 L9.59235044,20.4983655 C9.59235044,17.8894246 8.55156914,16.627983 7.55908794,16.0089081 M6.17873488,10.8167702 C4.20897352,10.8167702 2.88893429,11.3426773 1.99820203,12.0380026 C1.28130108,12.6563419 -0.836057535,14.8433312 0.545521412,18.9547238 C0.564645309,15.9883132 1.26291272,14.9458156 2.03767571,14.05729 C3.68576332,12.2611147 5.89432821,12.4670644 5.89432821,12.4670644 C8.51601831,12.5418437 9.7365152,13.8417784 10.30729,15.0328539 C10.8366296,16.0780484 10.8035306,17.0217391 10.8035306,17.0217391 L10.8035306,28.7638117 C11.1136809,28.843985 11.4238313,28.9150866 11.7383949,28.9768715 L11.7383949,15.7203334 C11.7383949,10.8503596 6.17873488,10.8167702 6.17873488,10.8167702 M26.9982838,12.0380026 C26.1087774,11.3426773 24.7882478,10.8167702 22.8187316,10.8167702 C22.8187316,10.8167702 17.2629944,10.8503596 17.2629944,15.7203334 L17.2629944,28.9768715 C17.5778032,28.9150866 17.8869729,28.843985 18.1939359,28.7638117 L18.1939359,17.0217391 C18.1939359,17.0217391 18.1647597,16.0780484 18.6928735,15.0328539 C19.2638934,13.8417784 20.4856162,12.5418437 23.1046093,12.4670644 C23.1046093,12.4670644 25.3139098,12.2611147 26.960036,14.05729 C27.7350441,14.9458156 28.4364989,15.9883132 28.450474,18.9547238 C29.8367113,14.8433312 27.7181268,12.6563419 26.9982838,12.0380026 M23.265201,15.4687806 C23.265201,15.4687806 22.2754168,15.4839817 21.4386237,16.0089081 C20.445407,16.627983 19.4095293,17.8894246 19.4095293,20.4983655 L19.4095293,28.387218 C22.3440667,27.3327068 24.8561621,25.3666231 26.5839327,22.8322164 C27.7249918,20.97254 27.7799117,19.493135 27.4920726,18.42661 C27.0865479,17.0496894 25.8199575,15.3253514 23.265201,15.4687806 M22.6723602,7.57649559 C22.6723602,7.57649559 25.3286205,7.44140242 27.3334423,9.65045767 C28.0000817,10.3879536 28.6309251,11.3348316 28.9959954,12.6516836 C28.0351422,5.51454724 21.9130435,0.00711016672 14.4988558,0 L14.4988558,0.000735534488 L14.4988558,0 C7.08368748,0.00711016672 0.960117686,5.51454724 0,12.6516836 C0.364089572,11.3348316 0.99689441,10.3879536 1.66304348,9.65045767 C3.66958156,7.44140242 6.32339,7.57649559 6.32339,7.57649559 C12.9243217,7.9143511 12.9520268,14.5400458 12.9520268,14.5400458 L12.9520268,29.1477607 C13.2626675,29.1776724 13.5740438,29.2002288 13.8893429,29.2159202 L13.8893429,13.6213632 C13.8893429,11.4934619 13.2207421,9.42636483 11.739866,7.95308924 C10.3766754,6.58793723 8.61359922,5.83352403 6.76887872,5.80606407 C7.55222295,4.43453743 8.65037594,3.28367113 9.94785878,2.48022229 C11.3186499,1.6314155 12.8949003,1.17906178 14.4964041,1.17906178 L14.4988558,1.17906178 L14.4988558,1.17832625 L14.4988558,1.17906178 L14.5000817,1.17906178 C16.1013403,1.17906178 17.67661,1.6314155 19.0493625,2.48022229 C20.3466002,3.28367113 21.4469598,4.43453743 22.2298137,5.80606407 C20.3833769,5.83352403 18.6171134,6.58793723 17.2571102,7.95308924 C15.7745178,9.42636483 15.1051814,11.4934619 15.1051814,13.6213632 L15.1051814,29.2159202 C15.4221968,29.2002288 15.732102,29.1776724 16.0439686,29.1477607 L16.0439686,14.5400458 C16.0439686,14.5400458 16.0726545,7.9143511 22.6723602,7.57649559" id="Fill-15" fill="#008AB0"></path>
            </g>
        </g>
    </g>
</svg>