<?xml version="1.0" encoding="UTF-8" standalone="no"?>
<svg width="35px" height="35px" viewBox="0 0 35 35" version="1.1" xmlns="http://www.w3.org/2000/svg" xmlns:xlink="http://www.w3.org/1999/xlink">
    <!-- Generator: sketchtool 3.8.3 (29802) - http://www.bohemiancoding.com/sketch -->
    <title>DA8CA630-3A32-4567-AEA4-06F9EDE2CFF9</title>
    <desc>Created with sketchtool.</desc>
    <defs></defs>
    <g id="HEADER-FOOTER---FINAL" stroke="none" stroke-width="1" fill="none" fill-rule="evenodd">
        <g id="Shop---Header---SM" transform="translate(-171.000000, -13.000000)" fill="#008AB0">
            <path d="M203.605473,27.4280861 C202.527936,26.5956965 200.931585,25.9614949 198.576967,25.9614949 C198.576967,25.9614949 191.872292,26.0011325 191.872292,31.8278596 L191.872292,47.7225368 C192.231471,47.6432616 192.630559,47.5639864 192.989738,47.4847112 L192.989738,33.4133635 C192.989738,33.4133635 193.109464,28.1019253 198.976055,27.9433749 C198.976055,27.9433749 200.971494,27.8244621 202.687571,29.1325028 C202.847206,29.2514156 203.006842,29.3703284 203.166477,29.5288788 C203.286203,29.6477916 203.645382,29.9252548 204.004561,30.4405436 C204.164196,30.6387316 204.283922,30.8765572 204.403649,31.1143828 C204.922463,32.1053228 205.401368,33.6115515 205.321551,35.7123443 C205.521095,35.0385051 205.720639,34.3646659 205.840365,33.6511891 C206.279361,30.1630804 204.483466,28.1415629 203.605473,27.4280861 M198.377423,22.0770102 C198.377423,22.0770102 201.570125,21.9184598 204.004561,24.5741789 C204.802737,25.4462061 205.561003,26.5956965 206,28.1812005 C204.842645,19.619479 197.459521,13 188.519954,13 C179.50057,13 172.037628,19.7383918 171,28.4586636 C171.438997,26.7146093 172.237172,25.5254813 173.075257,24.5741789 C175.469783,21.9184598 178.702395,22.0770102 178.702395,22.0770102 C186.644242,22.4733862 186.684151,30.400906 186.684151,30.400906 L186.684151,47.9207248 C187.04333,47.9603624 187.442417,48 187.801596,48 L187.801596,29.2910532 C187.801596,26.7938845 187.083238,24.4552661 185.40707,22.6715742 C183.730901,20.9275198 181.575827,19.9762174 179.261117,19.9365798 C180.218928,18.3114383 181.535918,16.9241223 183.09236,15.9331823 C184.72862,14.9026048 186.644242,14.387316 188.559863,14.387316 C190.475485,14.387316 192.391106,14.9422424 194.027366,15.9331823 C195.583808,16.8844847 196.900798,18.2718007 197.858609,19.9365798 C195.623717,19.9762174 193.508552,20.8878822 191.872292,22.5130238 C190.076397,24.2967157 189.278221,26.7542469 189.278221,29.2910532 L189.278221,47.9603624 C189.677309,47.9603624 190.036488,47.9207248 190.395667,47.8810872 L190.395667,30.3612684 C190.395667,30.4405436 190.435576,22.4733862 198.377423,22.0770102 M199.13569,31.5107588 C199.13569,31.5107588 198.058153,31.5107588 196.940707,32.1449604 C195.743444,32.8584371 194.506271,34.4043035 194.506271,37.5356738 L194.506271,47.00906 C198.058153,45.7406569 201.051311,43.4020385 203.126568,40.3499434 C204.523375,38.1302378 204.563284,36.3465459 204.244014,35.0781427 C203.7252,33.4133635 202.40821,31.4711212 199.13569,31.5107588 M178.502851,25.9614949 C176.148233,25.9614949 174.551881,26.5956965 173.474344,27.4280861 C172.556442,28.2208381 170.521095,30.4801812 171.359179,34.4835787 C171.478905,34.9592299 171.598632,35.3952435 171.718358,35.8312571 C171.598632,33.6511891 172.077537,32.1053228 172.596351,31.0747452 C172.716078,30.8369196 172.835804,30.599094 172.995439,30.400906 C173.354618,29.8856172 173.713797,29.5685164 173.833523,29.4892412 C173.993158,29.3306908 174.152794,29.211778 174.312429,29.0928652 C176.028506,27.7848245 178.023945,27.9037373 178.023945,27.9037373 C183.930445,28.0622877 184.010262,33.3737259 184.010262,33.3737259 L184.010262,47.4450736 C184.369441,47.5243488 184.768529,47.603624 185.127708,47.6828992 L185.127708,31.788222 C185.167617,26.0011325 178.502851,25.9614949 178.502851,25.9614949 M180.139111,32.184598 C179.021665,31.5107588 177.944128,31.5503964 177.944128,31.5503964 C174.671608,31.4711212 173.354618,33.4530011 172.875713,35.1177803 C172.476625,36.5050963 172.596351,38.5266138 174.432155,41.1030578 C176.467503,43.7984145 179.301026,45.8992072 182.573546,47.0883352 L182.573546,37.614949 C182.573546,34.4439411 181.376283,32.8980747 180.139111,32.184598" id="ic-nuskin-fountain-mark"></path>
        </g>
    </g>
</svg>