<svg xmlns="http://www.w3.org/2000/svg" width="30" height="30" viewBox="0 0 30 30">
    <g fill="none" fill-rule="evenodd">
        <circle cx="15" cy="15" r="15" fill="#008AB0"/>
        <g stroke="#FFF" stroke-width=".875">
            <path d="M12.528 17.415c.274-.262.738-.52 1.38-.766.29-.583.579-1.225.806-1.795a4.147 4.147 0 0 1-.367-1.276c-.198-1.657 1.65-1.533 1.369.01-.054.295-.182.71-.383 1.234.29.526.673.922.977 1.184.415-.068 1.006-.137 1.423-.075 1.105.165.965 1.402-.017 1.402-.514 0-1.158-.408-1.562-.72-.616.115-1.277.293-1.845.496-.181.354-.424.805-.642 1.122-.905 1.323-2.098.102-1.139-.816zm-3.153 5.103L9.344 5.866l7.955.061 5.436 4.843-.096 11.783-13.264-.035z"/>
            <path d="M17.156 6.006v4.824h5.152"/>
        </g>
    </g>
</svg>
