<?xml version="1.0" encoding="UTF-8"?>
<svg width="31px" height="31px" viewBox="0 0 31 31" version="1.1" xmlns="http://www.w3.org/2000/svg" xmlns:xlink="http://www.w3.org/1999/xlink">
    <!-- Generator: Sketch 48.2 (47327) - http://www.bohemiancoding.com/sketch -->
    <title>Group</title>
    <desc>Created with Sketch.</desc>
    <defs></defs>
    <g id="Footers" stroke="none" stroke-width="1" fill="none" fill-rule="evenodd" transform="translate(-1174.000000, -306.000000)">
        <g id="Group" transform="translate(1175.000000, 307.000000)">
            <circle id="Oval-48-Copy-6" stroke="#FFFFFF" transform="translate(14.634146, 14.634146) rotate(-270.000000) translate(-14.634146, -14.634146) " cx="14.6341463" cy="14.6341463" r="14.6341463"></circle>
            <g id="instagram" transform="translate(7.000000, 7.000000)" fill="#FFFFFF">
                <path d="M13.8461538,11.25 C13.8461538,12.6813462 12.6813462,13.8461538 11.25,13.8461538 L3.75,13.8461538 C2.31865385,13.8461538 1.15384615,12.6813462 1.15384615,11.25 L1.15384615,3.75 C1.15384615,2.31865385 2.31865385,1.15384615 3.75,1.15384615 L11.25,1.15384615 C12.6813462,1.15384615 13.8461538,2.31865385 13.8461538,3.75 L13.8461538,11.25 Z M11.25,0 L3.75,0 C1.68230769,0 0,1.68230769 0,3.75 L0,11.25 C0,13.3176923 1.68230769,15 3.75,15 L11.25,15 C13.3176923,15 15,13.3176923 15,11.25 L15,3.75 C15,1.68230769 13.3176923,0 11.25,0 Z" id="Fill-22"></path>
                <path d="M7.49967956,10.7183139 C5.72505875,10.7183139 4.2817774,9.27449445 4.2817774,7.5 C4.2817774,5.72550555 5.72505875,4.28168613 7.49967956,4.28168613 C9.27430036,4.28168613 10.7182226,5.72550555 10.7182226,7.5 C10.7182226,9.27449445 9.27430036,10.7183139 7.49967956,10.7183139 M7.49967956,3 C5.01815851,3 3,5.01865565 3,7.5 C3,9.98134435 5.01815851,12 7.49967956,12 C9.9812006,12 12,9.98134435 12,7.5 C12,5.01865565 9.9812006,3 7.49967956,3" id="Fill-24"></path>
                <path d="M11.5,2 C11.2245,2 11,2.2245 11,2.5 C11,2.7755 11.2245,3 11.5,3 C11.7755,3 12,2.7755 12,2.5 C12,2.2245 11.7755,2 11.5,2" id="Fill-26"></path>
            </g>
        </g>
    </g>
</svg>