<?xml version="1.0" encoding="UTF-8"?>
<svg width="31px" height="31px" viewBox="0 0 31 31" version="1.1" xmlns="http://www.w3.org/2000/svg" xmlns:xlink="http://www.w3.org/1999/xlink">
    <!-- Generator: Sketch 48.2 (47327) - http://www.bohemiancoding.com/sketch -->
    <title>Group 3</title>
    <desc>Created with Sketch.</desc>
    <defs></defs>
    <g id="Footers" stroke="none" stroke-width="1" fill="none" fill-rule="evenodd" transform="translate(-1219.000000, -306.000000)">
        <g id="Group-3" transform="translate(1220.000000, 307.000000)">
            <path d="M15.6432741,18.6139921 C14.7523274,18.5447946 14.3783741,18.1033199 13.6798872,17.6790847 C13.2956859,19.6937112 12.8263407,21.6253007 11.4361192,22.6341463 C11.0069994,19.5891728 12.0661269,17.3021623 12.5579314,14.8743148 C11.7193257,13.4623523 12.6589261,10.6210921 14.4279376,11.3214465 C16.6044238,12.1825114 12.5429426,16.5700106 15.2693686,17.1180828 C18.1162316,17.6900988 19.2782693,12.1787762 17.5133282,10.3865392 C14.9625535,7.7985559 10.0889006,10.3275897 10.6880688,14.0326922 C10.8339819,14.9386277 11.769847,15.2134539 11.0621658,16.4635567 C9.42968147,16.1017668 8.94256998,14.8142639 9.0052547,13.0977849 C9.1062494,10.288322 11.5296434,8.3211999 13.9605079,8.04919899 C17.0344534,7.70522319 19.9196743,9.17757178 20.3180982,12.0693054 C20.7665166,15.3331726 18.9303189,18.8680352 15.6432741,18.6139921" id="Fill-1-Copy-3" fill="#FFFFFF"></path>
            <circle id="Oval-48-Copy-7" stroke="#FFFFFF" transform="translate(14.634146, 14.634146) rotate(-270.000000) translate(-14.634146, -14.634146) " cx="14.6341463" cy="14.6341463" r="14.6341463"></circle>
        </g>
    </g>
</svg>