<svg xmlns="http://www.w3.org/2000/svg" viewBox="0 0 122.04 172.24"><defs><style>.cls-1{fill:#5e6160;}</style></defs><title>southAmerica</title><g id="Layer_2" data-name="Layer 2"><g id="Card_Content" data-name="Card Content"><path class="cls-1" d="M1,3.93H1l0,0Z"/><path class="cls-1" d="M3.34,4.69l.43.13-.89-.26Z"/><path class="cls-1" d="M.23,3.53h0Z"/><path class="cls-1" d="M1,3.57Z"/><path class="cls-1" d="M7.51,6h0Z"/><path class="cls-1" d="M7.22,6h0Z"/><path class="cls-1" d="M5.25,5.4l.1,0-.12-.06Z"/><path class="cls-1" d="M.36,11.36a.05.05,0,0,0,0,0s0,0-.06,0l-.05,0a.24.24,0,0,0-.08.06c0,.05,0,.12,0,.19a.16.16,0,0,1,0,.13s0,0-.1,0,0,.05,0,.14.05,0,.15.12l0,0c0,.05,0,.07.08.08A.11.11,0,0,0,.41,12a1.48,1.48,0,0,1,0-.2.33.33,0,0,0-.07-.23C.31,11.49.37,11.43.36,11.36Z"/><path class="cls-1" d="M4.39,10.92c0-.06,0-.07,0-.09H4.23l-.2,0c-.09,0,0,0,0,.11s0,0,.09.05,0,0,0,.1,0,0,0,0l.16,0c.16,0,0,0,0-.1S4.39,11,4.39,10.92Z"/><path class="cls-1" d="M7.56,16.06h0l0,0s0,0,0,0,0,.18,0,.23.06.08.11.1h0c.06,0,.06-.11.08-.24S7.56,16.06,7.56,16.06Z"/><path class="cls-1" d="M4.63,10.72h0c-.08-.06,0-.05-.09-.05a.07.07,0,0,0-.06.07s0,0,.09.08,0,0,0,.11,0,0,0,.05h.1c.08,0,0-.1,0-.17S4.68,10.75,4.63,10.72Z"/><path class="cls-1" d="M3.57,9.9c-.14-.14,0-.08,0-.16s-.08-.1-.21-.19L3.26,9.5c-.17-.12,0-.08-.06-.2s-.2-.11-.26-.11H2.87s0,.08,0,.15a.32.32,0,0,0,0,.21c0,.08,0,0,.13.16s0,.12.09.21.1.07.22.13l.1.07c.21.14.1.13.13.17a.21.21,0,0,0,.21,0c.08,0,0-.08-.06-.16A.54.54,0,0,0,3.57,9.9Z"/><path class="cls-1" d="M93.06,51.64c.09-.08.11-.06.14-.15s.06-.13,0-.13a.25.25,0,0,0-.17,0h0c-.12,0-.13,0-.17.07s-.13.07,0,.15a.25.25,0,0,0,.21.06Z"/><path class="cls-1" d="M18,55.72a.29.29,0,0,1-.06-.15s-.08-.06-.21-.06a.29.29,0,0,0-.16.1c0,.07,0,.09.12.12s.06.08.12.12.09.06.25,0S18,55.78,18,55.72Z"/><path class="cls-1" d="M16.34,53.8c-.21.11,0,.08,0,.26s0,.11-.18.17l0,0c-.15.07,0,.09,0,.14l0,0a.46.46,0,0,1,.1.21c0,.13.06.1.17.12a.25.25,0,0,0,.25-.16,3.87,3.87,0,0,1,.23-.35c.05-.08-.13-.47-.18-.51S16.55,53.68,16.34,53.8Z"/><path class="cls-1" d="M16.07,53.77l.07-.05.07,0c.07,0,0-.08,0-.18s0,0-.06,0H16c-.11,0,0-.05-.12-.11s-.16,0-.26,0h0a0,0,0,0,0-.05,0s0,0,0,.07h0l-.11.06c-.06,0,0,.08,0,.12s0,0,.1.06h0c.11.06.07.09.13.14a.37.37,0,0,0,.26.07C16.07,53.87,16,53.81,16.07,53.77Z"/><path class="cls-1" d="M16.5,52.33a.14.14,0,0,0-.12-.08.49.49,0,0,0-.16,0,.46.46,0,0,1-.07.07h0c-.05,0-.1,0-.1.07s0,.06.08.08h0c.06,0,.11,0,.1.06s-.12,0,0,.09.19.07.2,0,0-.1,0-.16A.17.17,0,0,0,16.5,52.33Z"/><path class="cls-1" d="M15.55,54.31a2,2,0,0,0-.18-.2c-.07-.07,0-.14,0-.2a.41.41,0,0,0-.1-.3,3.4,3.4,0,0,1-.29-.32c-.12-.16-.11-.13-.11-.2a.52.52,0,0,0,0-.24c0-.06-.31,0-.39,0s-.06.06-.1.07h-.09c-.13,0,0,.14-.13.12s-.05.09,0,.18.1,0,.11,0,.08-.06.15-.06a.53.53,0,0,1,.17,0s.06.13,0,.19-.06.07,0,.13-.11.24.15.26c.08,0,0,.12.06.17s.24.13.29.21a.09.09,0,0,1-.1.13.45.45,0,0,0-.2,0c-.07,0-.16.18-.27.21s-.07.08-.11.21a.51.51,0,0,0,0,.29c0,.07.17.06.33.09s.13,0,.18-.09.22,0,.38,0,.17-.1.23-.15h0s0-.15,0-.18.19-.16.05-.32Z"/><path class="cls-1" d="M17.17,54.54s-.1,0-.13,0-.05,0-.06,0,0,.06,0,.14.2.07.2,0,0,0,0-.07S17.2,54.57,17.17,54.54Z"/><path class="cls-1" d="M18.54,54.27l-.21,0a2.19,2.19,0,0,1-.16.16c-.1.11-.22.12-.26.18s-.08.08-.05.13,0,.08.09.11.11,0,.25,0,.1,0,.19,0,0-.08.15-.14.12,0,.17-.11a1,1,0,0,0,0-.33A.69.69,0,0,0,18.54,54.27Z"/><path class="cls-1" d="M15.68,52.15a.14.14,0,0,0,.14-.07s0,0,.07-.07,0-.08,0-.13,0-.05-.1-.08a.31.31,0,0,0-.17,0c-.05,0-.08,0-.1,0v0c0,.07-.08.09,0,.16l0,0s.11,0,.12.07S15.58,52.14,15.68,52.15Z"/><path class="cls-1" d="M16.42,55.33l-.15,0c-.05,0-.07,0-.07.08a.34.34,0,0,1,0,.16h0s-.05,0,0,0l0,0c.12.05.17,0,.16.07s.05.07.11.07a.15.15,0,0,0,.12-.13.31.31,0,0,1,0-.11s.07-.09,0-.15S16.49,55.31,16.42,55.33Z"/><path class="cls-1" d="M14.53,53.88s.06-.13-.07-.3-.06,0-.15,0l-.06,0c-.1-.06-.19,0-.31.06s0,.09.07.16.1.05.18.15.06.11.12.14a.3.3,0,0,0,.16,0C14.69,54.12,14.6,53.92,14.53,53.88Z"/><path class="cls-1" d="M32.94,38.7s0-.1-.06-.18-.08-.16-.17-.09,0,.16-.06.31,0,.15,0,.34.08.1.16.24l.05.06c.06,0,.1-.09.19-.19s0-.1,0-.3S33,38.78,32.94,38.7Z"/><path class="cls-1" d="M38,37.32c.06,0,.07.07.14.13l0,0c.1.05.12,0,.23-.15a.43.43,0,0,0,.06-.37c0-.12-.12-.1-.16-.13s0,0,0,0-.05.05-.05.11,0,0,0,.15,0,.07,0,.07l-.08,0c-.08,0,0-.07-.09-.11s-.17,0-.18.17S38,37.31,38,37.32Z"/><path class="cls-1" d="M72,22.67c.11,0,0-.1,0-.15s0,0-.1-.1,0-.07-.07-.09h-.06s0,0,0,.05a.3.3,0,0,0-.07.2c0,.16,0,.07.13.14S71.87,22.7,72,22.67Z"/><path class="cls-1" d="M71.91,24.58c-.11-.07-.08.11-.09.22a.82.82,0,0,0,.05.3c0,.13.14.12.21.15s.11-.06.23.19c0,.1,0,.11.16.13s.26,0,.26,0,0-.1,0-.13a.08.08,0,0,0,0-.12l-.12-.17c-.1-.14-.33-.11-.07-.24a.21.21,0,0,0,.05-.22s-.08-.09-.15-.08C72.12,24.59,72.5,24.9,71.91,24.58Z"/><path class="cls-1" d="M68.64,18.67c0,.09,0,.15.11.15s.25,0,.24-.05-.06-.06,0-.07.11,0,.07-.07a.09.09,0,0,0-.08,0,.18.18,0,0,1-.17,0c-.07,0-.11,0-.14,0S68.63,18.58,68.64,18.67Z"/><path class="cls-1" d="M71.38,21.76c0,.12-.1.07,0,.18s.18.11.26.07a.34.34,0,0,1,.26-.05c.14,0,.07.15.25,0s.33-.16.21-.19-.35,0-.46,0-.2,0-.23-.09,0-.08,0-.14-.07-.15-.14-.15l-.16,0s0,0,0,.15A1.49,1.49,0,0,1,71.38,21.76Z"/><path class="cls-1" d="M70.94,21.66c-.11,0-.13-.05-.14.13a.54.54,0,0,0,0,.23c0,.14,0,.24,0,.33s.25.32.34.22.14-.09.12-.24a1.1,1.1,0,0,1,0-.25c0-.08,0-.06,0-.12S71.06,21.62,70.94,21.66Z"/><path class="cls-1" d="M68.59,18.45c0-.07,0-.09,0-.1s-.1,0-.14,0-.07,0-.1,0,0,0,0,.08.06.07.11.11S68.6,18.52,68.59,18.45Z"/><path class="cls-1" d="M68.25,18.28h.15c.08,0,0,0,.12-.09s.13-.15.07-.21-.2-.15-.27-.1-.14,0-.16.16S68.16,18.28,68.25,18.28Z"/><path class="cls-1" d="M51.43,10.91a.52.52,0,0,1,.07.11c0,.05,0,0,.16.09s.13,0,.24,0a1,1,0,0,1,.3,0c.09,0,0,.07.06.13s.09,0,.17.07.09,0,.1,0a.35.35,0,0,0,0-.15c0-.06-.09-.09-.19-.11s-.1-.07-.12-.1a.22.22,0,0,0-.12-.07,1.6,1.6,0,0,1-.38,0c-.08,0,0-.09-.06-.14s0-.09-.1-.14-.15.07-.16.09,0,0-.11,0h0s0,0,0,.06,0,0,0,0S51.35,10.82,51.43,10.91Z"/><path class="cls-1" d="M50.77,11.12c0,.08,0,.05.27.07s.08,0,.15-.07,0,0,0,0,0,0,0-.09a.06.06,0,0,0,0-.06s0,0-.06,0,0,0-.14,0-.14,0-.18,0,.12-.12-.18-.1c-.14,0,0,.06,0,.15S50.76,11.05,50.77,11.12Z"/><path class="cls-1" d="M70,21.07s0,.06,0,.08.07,0,.17,0,0-.07,0-.12a.49.49,0,0,1,0-.12c0-.18-.07-.18-.21-.17s0,.06,0,.11,0,0-.06,0,0,0,0,.05,0,.06,0,.08S69.94,21,70,21.07Z"/><path class="cls-1" d="M66,17.18c.07,0,.18,0,.19-.07s0-.11,0-.12l-.28-.08c-.09,0-.15-.05-.1.07A.32.32,0,0,0,66,17.18Z"/><path class="cls-1" d="M64.1,32a.08.08,0,0,0,0,.06c0,.07,0,.07-.11,0s0,0-.1,0,0,.09,0,.19,0,0,.1,0a.27.27,0,0,1,.15,0l.07.05s0,.07.09.06,0,0,0-.07a.14.14,0,0,0,.08-.14c0-.06,0,0,0-.1S64.15,31.94,64.1,32Z"/><path class="cls-1" d="M72.32,36.12l.12,0c.13,0,.16,0,.18-.12a.86.86,0,0,0,0-.25s0-.07-.07-.07l-.15,0c-.06,0-.09.07-.13.14s-.06,0,0,.1S72.1,36.15,72.32,36.12Z"/><path class="cls-1" d="M66,32.25c.08.09.16,0,.31,0s.11.09.19.15l0,0a.65.65,0,0,0,.24,0l0,0s0,0,0-.12,0-.06.06-.17.11,0,.23-.09,0-.25-.25-.32-.2.22-.3.35l0,0c-.06.07,0,0-.09-.16s-.07-.07-.34-.12S65.91,32.16,66,32.25Z"/><path class="cls-1" d="M69.33,20.35s.13-.08.14-.15a.18.18,0,0,0-.11-.17s0,0-.14,0,0,.08,0,.18S69.28,20.31,69.33,20.35Z"/><path class="cls-1" d="M68.83,19.71h0s0,.05,0,.09l0,0s0,0,.15.06.13-.09.13-.12,0-.08-.15-.1S68.89,19.69,68.83,19.71Z"/><path class="cls-1" d="M68.65,19.62s0,0,.12-.06l.06,0,0,0s0-.05,0-.06l-.1,0c-.09,0-.06,0-.18,0s-.15.16-.12.22A.17.17,0,0,0,68.65,19.62Z"/><path class="cls-1" d="M70.69,19.29l.13.08s.17.06.18,0,0-.11,0-.15,0,0,0-.09a.21.21,0,0,0-.13-.19.28.28,0,0,0-.12,0s-.2,0-.14.13S70.65,19.25,70.69,19.29Z"/><path class="cls-1" d="M70.93,20.53c.24,0,0-.08,0-.2s.08-.19.08-.19,0,0-.06-.06-.18,0-.26.08-.06,0-.13.13,0,.11,0,.2S70.69,20.52,70.93,20.53Z"/><path class="cls-1" d="M71.37,23.42c.19,0,.29,0,.33-.06s0-.08,0-.15,0-.13,0-.17c-.23-.15-.13,0-.23.11s-.17,0-.16.11S71.18,23.42,71.37,23.42Z"/><path class="cls-1" d="M71.61,23.68c-.11,0-.27.11-.08.18s.24.09.26.12,0,.09.07,0a.22.22,0,0,0,0-.17.62.62,0,0,0-.18-.13Z"/><path class="cls-1" d="M72.67,26.36a.59.59,0,0,0-.09-.18l-.24,0c-.09.08-.24.17-.2.32s.2.39.28.33.1-.2.13-.25S72.67,26.42,72.67,26.36Z"/><path class="cls-1" d="M72,28.29c.08-.1,0-.15.1-.27s.2-.29.14-.44-.06-.28-.14-.2l-.13.15c-.08.16-.21.19-.15.33a.6.6,0,0,1,0,.33C71.85,28.25,71.92,28.39,72,28.29Z"/><path class="cls-1" d="M71.31,29.06c-.09.17-.21.3-.07.32a.53.53,0,0,0,.36-.23.15.15,0,0,1,0-.14c.06-.07,0,0,.11-.11s.14-.27.07-.27a.45.45,0,0,0-.15.06s0,0-.06.1,0,.14-.13.16S71.4,28.89,71.31,29.06Z"/><path class="cls-1" d="M70.92,29.65c-.08,0,0,.2-.11.31a.28.28,0,0,0,0,.28c0,.07.19.1.25.05s.13-.09.18-.22a.27.27,0,0,0,0-.3c-.07-.09,0-.15,0-.22s-.08-.05-.14,0A1.27,1.27,0,0,1,70.92,29.65Z"/><path class="cls-1" d="M74.89,27.94c0,.1.07.13.1.2s.14,0,.35-.05,0-.08-.08-.26-.09,0-.21-.15,0-.09-.12-.13a.43.43,0,0,0-.15,0c-.08,0,0,.14,0,.2S74.87,27.85,74.89,27.94Z"/><path class="cls-1" d="M72.32,32.74a.34.34,0,0,0,.19-.32c0-.13,0-.07-.32-.07a3.79,3.79,0,0,0-.61.08c-.34,0-.11.07-.26.18s-.13,0-.3,0h-.13c-.06,0,0,0,.08.15s0,0,.24.06.18.07.24.16,0,.17,0,.33-.11.19-.22.28a.92.92,0,0,1-.23.15s-.14,0-.26.08,0,.05,0,.09.06,0,.18,0a4,4,0,0,0,.58,0c.4,0,.16,0,.23-.06a1.69,1.69,0,0,1,.26-.11,1.22,1.22,0,0,0,.42-.22c.14-.12,0-.23,0-.37a.32.32,0,0,0-.11-.24c-.07-.09-.1-.07-.13-.1S72.15,32.83,72.32,32.74Z"/><path class="cls-1" d="M72.66,31.8a.24.24,0,0,0,.28,0c.1-.08-.06-.16.11-.19s.27-.1.19-.14a.27.27,0,0,0-.14,0l-.13,0a1.5,1.5,0,0,1-.23.22A.2.2,0,0,0,72.66,31.8Z"/><path class="cls-1" d="M56.62,16h.05c.1,0,.17-.09.13-.12a.27.27,0,0,0-.14-.06h0s-.07,0-.1,0-.18,0,0,.08S56.59,16,56.62,16Z"/><path class="cls-1" d="M45.12,7.21s-.18,0-.23,0,0,.11.11.26.1.11.28.29.07.13.08.23,0,.05-.14.13,0,.23.07.31.14,0,.29,0a.26.26,0,0,1,.22.15c0,.05,0,.09.08.28l0,.08c.06,0,.13-.06.21-.15s0-.2,0-.3a.49.49,0,0,0-.18-.2l-.07-.05a.5.5,0,0,0-.2-.07c-.13,0,0-.1,0-.15s.08-.14.07-.23-.21-.23-.31-.33-.1-.2-.19-.3Z"/><path class="cls-1" d="M45.93,7.4H46c.14,0,0-.07.13-.12s.06-.11,0-.16-.11,0-.17,0h-.1s-.12,0-.19.1,0,.11,0,.18S45.83,7.4,45.93,7.4Z"/><path class="cls-1" d="M42.41,3.73c.1.11.11.08.22.16s.18.08.3.17a1.55,1.55,0,0,0,.39.18c.16.07.1.13.14.26s0,.19-.09.31-.06,0-.22,0,0,.15,0,.2.05,0,.11,0,0,.07,0,.15.15,0,.15,0l.09-.13a.63.63,0,0,0,.09-.25c0-.2,0-.09,0-.23a1.94,1.94,0,0,0,0-.36c0-.08-.1-.07-.16-.19a.6.6,0,0,0-.14-.22c-.09-.07-.1,0-.27-.07s0,0-.18-.1a.93.93,0,0,1-.25-.12c-.13-.09-.1-.06-.16-.12a.69.69,0,0,0-.13-.07s-.05,0-.07.15S42.3,3.62,42.41,3.73Z"/><path class="cls-1" d="M43.61,7.42c.19.11.34.11.41.17s0,.08.08.14.07.14.23.1.22-.1.16-.15a1,1,0,0,0-.23-.12s-.07-.12-.07-.12-.07-.13-.15-.22-.2-.12-.22-.1-.08,0-.09.09a.17.17,0,0,1-.07.13S43.41,7.32,43.61,7.42Z"/><path class="cls-1" d="M46.55,6.79c.07,0,.12,0,.14,0s0-.06.07-.07.12,0,.11-.12,0-.2,0-.26,0-.08-.1-.07h-.16s-.08-.08-.06.16S46.48,6.75,46.55,6.79Z"/><path class="cls-1" d="M44.69,5.78c.11.16.18.2.13.27s0,0-.1.12-.1.3.09.29.35,0,.37-.13,0-.15-.09-.3-.22-.23-.26-.32a1.28,1.28,0,0,0-.08-.23,1,1,0,0,0-.18-.27s-.32-.22-.32,0a2,2,0,0,0,.17.37C44.56,5.64,44.58,5.62,44.69,5.78Z"/><path class="cls-1" d="M46.92,9.29c-.06,0-.05,0-.08.1a.33.33,0,0,0-.13.15c0,.07,0,0,.25,0s.08-.07.12-.15.1-.07.24-.07.13,0,.18.09.14,0,.16.14-.11.1-.23.15-.1,0-.16.17a.43.43,0,0,1-.18.19.28.28,0,0,0-.13.18c0,.11,0,0,.22,0a.59.59,0,0,0,.29-.08c.13-.06.11-.24.15-.33s.2-.1.35-.25,0-.19,0-.26,0-.27-.11-.28-.09.06-.25.07a.38.38,0,0,1-.24,0c-.07,0,0-.05-.07-.11s-.22,0-.28,0-.12.09-.11.16,0,.06.09.1S47,9.27,46.92,9.29Z"/><path class="cls-1" d="M41.93,4.05c0,.06-.11.07-.2.1s-.11,0-.13.09a.17.17,0,0,1-.13.07s0,0-.14,0-.18,0-.24,0l-.18.09s-.06,0-.07.06-.13.1,0,.14.21.08.27,0,0,0,.11-.07.07-.09.18-.09.15,0,.19,0l.12-.09c.08-.06,0-.05.12-.07s.07,0,.12-.08.06,0,.1-.09a.3.3,0,0,0,0-.17s0-.07,0-.06l-.11,0S42,4,41.93,4.05Z"/><path class="cls-1" d="M39.35,5.16a.82.82,0,0,0-.19.19c-.12.13,0,.17.09.25s.2.09.37.15a.29.29,0,0,1,.17.15.25.25,0,0,1,0,.09c.06.12,0,.06.19.07s.07,0,.15-.1,0-.08.13-.17l.06-.06s0,0,.11,0,.06,0,.08-.19,0-.1,0-.26,0-.17,0-.22,0-.12,0-.18-.05-.07-.1-.11a.52.52,0,0,1-.11-.1c-.07-.1,0-.11-.06-.22s-.13-.1-.29-.23-.07-.1-.11-.15-.1-.1-.19,0a.52.52,0,0,0-.08.26c0,.06,0,.12.11.25s0,.17-.09.31S39.44,5.1,39.35,5.16Z"/><path class="cls-1" d="M48.07,8.5c0,.05,0,.08,0,.1s.08-.1.17-.1.12,0,.12,0a.44.44,0,0,0,0-.12c-.07,0-.16,0-.25,0a.43.43,0,0,0-.14,0s0,0-.06,0a.22.22,0,0,0,0,.17S48,8.45,48.07,8.5Z"/><path class="cls-1" d="M40.93,6.93a.83.83,0,0,0,0-.16c0-.07,0-.18,0-.29s-.05-.07-.11-.14,0-.11,0-.19a.75.75,0,0,0-.06-.22s-.18,0-.28.08-.09.07-.13.11l0,0-.13.12c-.1.1,0,.11,0,.22s0,.16.08.25a.24.24,0,0,1,0,.16.74.74,0,0,0,0,.17v0s.08,0,.32.07,0,0,.2,0S40.92,7,40.93,6.93Z"/><path class="cls-1" d="M39.28.22h0a.28.28,0,0,1,.3,0c.09.08.06.1.16.12l.16,0,.41,0a.17.17,0,0,1,.1,0c.08,0,.18.11.09.13h-.36c-.12,0-.23,0-.16.06a.46.46,0,0,0,.33.14h.11c.2,0,.1.06.26.1a1,1,0,0,1,.41.31.91.91,0,0,1,.18.21c0,.1.07.07.09.21s0,.06,0,.26a1.72,1.72,0,0,0-.09.34,1.48,1.48,0,0,1,0,.24c0,.15.1.25.1.32s-.14.11.08.09.26,0,.26-.13a1.89,1.89,0,0,0,0-.3c0-.11-.15-.24,0-.27s.29-.06.31-.13a.53.53,0,0,0,0-.28c0-.05-.09,0-.1-.1a.27.27,0,0,1,0-.2s-.16-.08,0-.07.21,0,.2-.06,0-.11-.06-.14-.2,0-.2-.06,0,0,0,0,0,0-.05.08,0,.1,0,.11-.17,0-.19,0,0-.13,0-.17L41.38,1s-.1-.13-.16-.2,0-.06-.07-.15a.29.29,0,0,0-.21-.13.24.24,0,0,1-.21-.07c-.06-.07,0-.07-.1-.09a.63.63,0,0,0-.19,0h-.08l-.1-.06s-.17-.06-.2-.09-.05,0-.16,0h-.11a.2.2,0,0,1-.11,0A.21.21,0,0,0,39.57,0l-.23,0s-.06,0-.07,0a.36.36,0,0,0,0,.11C39.26.21,39.25.22,39.28.22Z"/><path class="cls-1" d="M49.23,9.89c.07.08.08.08.19.1a1.55,1.55,0,0,0,.21,0c.1,0,.11.08.14.1s.13,0,.13,0,.15,0,.17-.08,0-.1,0-.11a.14.14,0,0,1-.12-.09c0-.06,0,0-.07,0s-.21,0-.27,0a.54.54,0,0,0-.17-.08l-.1,0c-.06,0-.08,0-.15,0s0,.06,0,.14S49.16,9.82,49.23,9.89Z"/><path class="cls-1" d="M38.15,1.28c.16.12.25.12.27.23s-.16.14.07.13a.63.63,0,0,0,.43-.14c.13-.1.13-.15.33-.14a.69.69,0,0,0,.31,0c.12,0,.13-.05.23,0l.09,0,.31,0c.1,0,.18-.08.13-.15A1.28,1.28,0,0,0,40.08,1a.4.4,0,0,0-.29,0l-.08,0a.9.9,0,0,1-.39.07c-.17,0-.21,0-.25-.08s0-.12-.08-.13-.2-.07-.21,0a.85.85,0,0,0,0,.16c0,.07,0,.15,0,.17a.08.08,0,0,0,0,.06c0,.05-.12.13-.18.09s-.08-.11-.18-.14-.19-.08-.23-.06-.09,0-.09,0S38,1.16,38.15,1.28Z"/><path class="cls-1" d="M48.1,12.37c-.05.1-.35,0-.05.2s.16.17.37.18a1.66,1.66,0,0,1,.41.05c.1,0,.15.06.29,0s.13-.16.17-.21,0,0,.11-.11.18-.08.17-.23,0-.16,0-.27-.05-.14.06-.17.18,0,.17-.12a.24.24,0,0,0-.13-.18s0-.07,0-.1-.06-.08-.09,0l-.1.15s-.07,0-.07.15,0,.27,0,.32-.12.08-.17.13a.31.31,0,0,1-.25.07.33.33,0,0,0-.18-.08c-.09,0-.17,0-.27,0s-.09.14-.17.18S48.15,12.27,48.1,12.37Z"/><path class="cls-1" d="M39.43,18.11c.1.1.19,0,.4,0a.9.9,0,0,1,.37.12c.17.06.23.4.31.44a.56.56,0,0,0,.26.1,1.32,1.32,0,0,1,.49.14c.13.07.18,0,.32-.07s.06-.08.18-.13,0,0,.13.06.13,0,.25-.1,0-.09.25-.1.18.1.22.2.15,0,.48,0,.22,0,.32-.13-.06-.17-.15-.3-.18-.12-.2-.19-.13-.09-.45-.17-.14-.11-.3-.23a.45.45,0,0,0-.27-.14c-.17-.05-.63-.05-.92-.11a1.76,1.76,0,0,1-.56-.13c-.19-.07-.08,0-.26,0s-.12.08-.3.14-.08,0-.17,0-.14.12-.3.11-.11.08-.24.2S39.34,18,39.43,18.11Z"/><path class="cls-1" d="M26.88,10.9c.12,0,.15,0,.32,0a.26.26,0,0,0,.23-.14l0,0c.09-.12.13-.09.27-.15s.16,0,.2-.06a.1.1,0,0,0,0-.11.83.83,0,0,1,.13.11s-.07.12-.2.14-.07,0-.19.08,0,.08,0,.18-.05.09-.08.17.1,0,.17,0a1.13,1.13,0,0,1,.13-.1c.07,0,.17,0,.22-.11a.45.45,0,0,1,.26-.12c.08,0,.09.08.16.08s0-.05.08-.13,0-.11.06-.25,0-.09.17-.16.25,0,.38,0,.23-.08.3-.05a.18.18,0,0,0,.23-.12c0-.1,0-.09.14-.16s.38,0,.42-.09a.32.32,0,0,1,.11-.17,1.53,1.53,0,0,1,.23-.17l.09-.05c.08,0,.11-.13.18-.24s.15,0,.25.06A2.59,2.59,0,0,0,32,9.2a2,2,0,0,1,.75,0c.26,0,.29,0,.41.19s0,.21-.18.27-.07.06-.19.11-.1,0-.31,0-.32.05-.27.1a1.22,1.22,0,0,0,.19.12l.2.14a.83.83,0,0,0,.28.12.68.68,0,0,0,.22,0,2.38,2.38,0,0,1,.35,0h0a.26.26,0,0,1,.28.17.37.37,0,0,0,.18.14.15.15,0,0,0,.09,0c.07,0,0-.2-.07-.32l0,0a0,0,0,0,1,0-.05s.08-.05.12-.08.12.16.12.23,0,.15.24.18.61.06.7,0,.06-.11.18-.2.24-.07.23.16,0,.15,0,.19.1.08.13.16.08.08.22.1.26.18.36.26a.62.62,0,0,0,.44.07c.18,0,.27.05.53.13l.5.16.08,0c.15,0,.13,0,.34-.06h.05a1.57,1.57,0,0,1,.4-.08h0c.25,0,.2.14.33.26s0,.25.06.32a1.08,1.08,0,0,1,.19.43,1.09,1.09,0,0,0,.12.3.37.37,0,0,0,.06.09,3.93,3.93,0,0,1,.49.38c.09.11.07.18.27.06s.19,0,.36,0h0a1,1,0,0,0,.39,0,2,2,0,0,1,.45,0c.13,0,.21.14.25.21s.23,0,.19.26-.11.17-.3.23-.12.18-.25.27a2.65,2.65,0,0,1-.35.13c-.19.08-.16.13-.28.2s0,.25,0,.3.12.07.32,0,.1,0,.19,0a.39.39,0,0,0,.27-.16c.08-.1.14,0,.3,0a.93.93,0,0,0,.32,0,1,1,0,0,0,.36-.05c.23,0,.23,0,.33,0a.37.37,0,0,0,.33,0c.11-.07.07,0,.32-.05s.24,0,.28,0,.17,0,.33,0a.6.6,0,0,1,.35,0,.78.78,0,0,0,.32.05c.18,0,.11,0,.23.1s.12.06.35.07.07-.07.14-.23.18-.07.2-.06a.31.31,0,0,0,.24,0,1.12,1.12,0,0,0,.25-.11c.11,0,.52.08.61,0s.36-.05.41-.07,0-.08.11-.17.17-.07.24-.11.06-.06-.07-.15-.06,0-.29,0,0-.1-.15-.12a.75.75,0,0,1-.26-.05c-.12,0-.08-.15-.09-.22s-.05,0-.13,0-.06-.16-.07-.2-.17-.05-.23-.14-.39,0-.45,0a1.25,1.25,0,0,1-.33,0,1,1,0,0,1-.25-.09c-.1,0-.18.09-.45.06s0,0,0-.12-.08-.07-.16-.15,0-.16,0-.2a.41.41,0,0,0,.16-.18c0-.09-.19-.12-.25-.17s-.41,0-.56.07-.11,0-.24-.12l-.28-.13a.66.66,0,0,0-.34,0c-.11.07-.09,0-.26-.15s-.1-.14-.3-.15-.1.05-.22,0a.5.5,0,0,1-.21-.36c0-.17-.06-.11-.29-.2s-.11,0-.27-.16a2.5,2.5,0,0,0-.27-.19.93.93,0,0,0-.15-.13.85.85,0,0,1-.14-.21c0-.06-.13-.13-.23-.18l-.12-.08a.9.9,0,0,1-.3-.32c-.07-.14-.3-.17-.45-.25s-.15-.16-.27-.24-.13,0-.2,0a.14.14,0,0,1-.09,0,2.89,2.89,0,0,0-.52-.14c-.06,0-.09,0-.11,0s0,0,0,.07a.38.38,0,0,1,0,.1c0,.1.07.11.07.11l.29.1a.78.78,0,0,0,.33,0h0c.16,0,0,0,.14.06s.09.06.26.19l.11.08h0a3.46,3.46,0,0,0,.34.11c.08,0,.15.15.24.23l.1.07c.08,0,.17.07.21.14a1.49,1.49,0,0,0,.23.28.12.12,0,0,1,.05.09,2.46,2.46,0,0,1-.39-.13l-.1-.05c-.06-.05,0-.06-.11-.14a.53.53,0,0,1-.17-.17c-.06-.07-.06-.16-.21-.22s-.25,0-.34-.12-.07-.11-.29-.16l-.1,0c-.12,0-.13,0-.17-.1s-.33-.07-.43-.11l-.12-.06a1.28,1.28,0,0,0-.33-.08h-.07c-.21,0-.09.09-.39,0h0c-.37-.07-.31-.08-.36-.18s-.18-.15-.38-.29-.1-.11-.07-.15.1-.05.19,0a.34.34,0,0,1,.25.2.22.22,0,0,0,.19.14c.08,0,0-.12-.06-.2A.92.92,0,0,0,37.22,9,.58.58,0,0,0,36.89,9c-.09,0-.11.17-.25.08s0-.15-.18-.22-.25,0-.29-.08A1.3,1.3,0,0,0,36,8.39c-.09-.1-.18.09-.4.18a.46.46,0,0,1-.44,0c-.12-.05-.14-.1-.13-.14s.16,0,.26-.13-.13,0-.13,0-.7.09-.78.08-.22.09-.36,0,0-.18,0-.21a.13.13,0,0,0-.1,0,.7.7,0,0,0-.22.2c-.05.06-.16,0-.26,0l-.1-.08c-.12-.08-.32.06-.43,0s-.19,0-.24-.08-.09,0-.3-.08-.23.15-.31.25-.1.17-.39.14-.19-.06-.41-.13-.28.14-.37.19a.33.33,0,0,1-.2,0l-.28-.06a.72.72,0,0,0-.4,0c-.07,0-.11.08-.16.14a.45.45,0,0,1-.3.11.34.34,0,0,0-.2.08,1.68,1.68,0,0,1-.27.09.81.81,0,0,1-.17,0,2.39,2.39,0,0,0-.26.1l-.35.31a2.78,2.78,0,0,0-.36.23c-.18.13-.07.15-.08.36s0,.14-.06.18,0,.06.05.11,0,.1-.13.12-.07.08-.18.07h-.08a1,1,0,0,0-.17.13c-.12.11-.16.13-.27.11s-.21-.16-.28,0C26.7,10.82,26.77,10.85,26.88,10.9Z"/><path class="cls-1" d="M30.47,11.71c.14.06.05.1.19.08l.12,0c.3-.07.23-.19.4-.25a.27.27,0,0,0,.15-.31,2.09,2.09,0,0,1-.1-.23c-.05-.09,0-.07-.07-.14s.06-.12-.18-.15-.25,0-.32,0a.18.18,0,0,0-.12,0c-.09.07-.15.06-.15.13s0,.08,0,.1-.15,0-.08.1,0,.11.11.16.08,0,.2.07a.17.17,0,0,1,.07.08c.05.07,0,.13,0,.13h0a.44.44,0,0,1-.13,0c-.1,0-.1,0-.18-.05s0-.1-.15-.08-.3-.06-.15.1.3.17.35.24S30.32,11.64,30.47,11.71Z"/><path class="cls-1" d="M39.74,13.4a.25.25,0,0,0-.11,0c-.06,0,0,.09.07.23s.11,0,.36.1.1,0,.2.14.05.11.12.2.06.12.09.11h0c.06,0,0-.08,0-.15v0a.41.41,0,0,0-.07-.15c-.06-.06,0-.11-.23-.22s-.15,0-.27-.1S40,13.42,39.74,13.4Z"/><path class="cls-1" d="M38.53,13h0l0,0-.07.05s0,.05,0,.09,0,0,.09.07l0,0h.11c.09,0,0-.06,0-.08l0-.16C38.59,13,38.59,13,38.53,13Z"/><path class="cls-1" d="M39.48,13.58a.19.19,0,0,0-.06-.16c0-.05-.1,0-.16-.06h0a.26.26,0,0,0-.15-.07l-.09,0s0,0,0,.1.08.07.16.1,0,.11.08.17h0c0,.06.08.06.19.09S39.48,13.67,39.48,13.58Z"/><path class="cls-1" d="M40.9,13.81a1,1,0,0,1,.21-.08c.08,0,.12,0,.1-.07s-.41.07-.44.12-.07.07-.14,0-.09-.12-.14-.12h0s-.08,0,0,.06a.61.61,0,0,1,0,.06.11.11,0,0,0,0,.05.69.69,0,0,1,.09.15c0,.06,0,.11.06.15s.15,0,.16,0,0-.09,0-.17S40.78,13.85,40.9,13.81Z"/><path class="cls-1" d="M38.07,9.35s-.07,0,0,.06h0c.07,0,.08,0,.09,0s0,0,0,0,.07-.13.08-.15,0,0-.05,0h-.17c-.14,0-.16,0-.18,0s0,.06,0,.1S38.06,9.31,38.07,9.35Z"/><path class="cls-1" d="M38.13,12.76c-.05,0-.09-.06-.13-.15s-.1-.06-.21-.12l0,0a.71.71,0,0,1-.18-.12l-.12-.14a.23.23,0,0,0-.09,0c-.07,0-.05.09-.06.16a.51.51,0,0,0,.06.23c0,.13.11.11.3.17l.09,0A.34.34,0,0,1,38,13a.22.22,0,0,0,.17.12h0s0-.08,0-.15a.21.21,0,0,0,0-.16Z"/><path class="cls-1" d="M33.93,10.89s0,0,0-.06l0,0a.29.29,0,0,0-.11,0c-.06,0,0,.13,0,.17s.09,0,.12.11v0c0,.05,0,.08.09.06s.11-.1.06-.16S34,10.91,33.93,10.89Z"/><path class="cls-1" d="M33.41,11.27h0c-.09,0-.13,0-.18,0s-.12,0-.09.1,0,.12.13.11.08-.05.16-.08h0a1.3,1.3,0,0,0,.21,0,.13.13,0,0,0,.08-.17c0-.08,0-.11-.1-.1C33.36,11.14,33.53,11.25,33.41,11.27Z"/><path class="cls-1" d="M27.28,10.29c.06,0,0,0,.08-.14s0-.07.07-.11h0a.45.45,0,0,0,.11-.15c0-.09.07-.08.1-.11h0a.08.08,0,0,0,0-.07s-.11,0-.2,0a.09.09,0,0,0-.07,0,.1.1,0,0,1-.06,0c-.08,0,0,0,0,.09s0,.07-.12.09,0,.09,0,.27S27.23,10.28,27.28,10.29Z"/><path class="cls-1" d="M32.06,35.21h0a1.21,1.21,0,0,1-.16-.16s-.1,0-.1,0c0,.22,0,.34.12.42s.09.06.16.16h0c.07.11.21.13.23.09a.3.3,0,0,0,0-.22A1.12,1.12,0,0,0,32.06,35.21Z"/><path class="cls-1" d="M64.31,18c.09,0,.11,0,.09-.09a.42.42,0,0,0,0-.13l0,0c-.07.05,0,.05-.11,0s-.2-.08-.2,0,0,.12,0,.16A.29.29,0,0,0,64.31,18Z"/><path class="cls-1" d="M60.6,18.65c.24.06.46.13.51.08s0-.08.19-.13a1,1,0,0,1,.54,0,1.48,1.48,0,0,1,.32.11c.18.06.43.1.5,0s.05-.13.22-.2.2,0,.31-.11,0-.21.14-.26.21.06.21-.11.11-.21-.07-.26-.28,0-.44-.07-.09-.13-.28-.12a1.77,1.77,0,0,0-.3.05c-.09,0,0,0-.25,0a7.55,7.55,0,0,0-.93,0,.69.69,0,0,1-.28-.06.75.75,0,0,0-.29-.06c-.05,0-.17.05-.18.1a.71.71,0,0,1,0,.23c0,.12-.07.13,0,.28s0,.44,0,.47S60.36,18.59,60.6,18.65Z"/><path class="cls-1" d="M59.17,18.47c.09,0,.12,0,.13,0s-.08-.07,0-.09.1,0,.1-.06,0-.1,0-.11a.2.2,0,0,0-.08,0,.58.58,0,0,0-.16,0c-.09,0-.12,0-.11.09s.11,0,.13.07S59.08,18.47,59.17,18.47Z"/><path class="cls-1" d="M45.51,17.75c.13.11.26.14.26.09s0-.17,0-.17a.29.29,0,0,0-.16-.05C45.55,17.63,45.38,17.64,45.51,17.75Z"/><path class="cls-1" d="M49.66,14.43c.12.12.32.07.29.2s-.44.13-.44.13a.28.28,0,0,0-.11,0,.85.85,0,0,0-.27,0c-.31.08-.4,0-.44.17s-.22.25.12.29.42,0,.59,0a.55.55,0,0,1,.27.12c.21.19.23.3.22.39a.84.84,0,0,0,0,.35c0,.19,0,.13.14.33s0,.24.19.39.57.13.57.26.24.23-.11.33-.41,0-.51.05a.61.61,0,0,1-.23.09,1,1,0,0,1-.55,0l-.21-.05c-.33-.06-.34,0-.6-.06s.13-.1-.39-.11-.36.09-.61,0-.14-.16-.32-.17-.27,0-.28,0-.08.06-.08.06,0,0-.09.21-.13,0-.12.24,0,.19.23.25.49,0,.57.09,0,.13.16.21a.58.58,0,0,0,.3.13c.13,0,.15,0,.13-.07s-.1-.18,0-.21a.73.73,0,0,1,.3-.05.64.64,0,0,1,.22,0c.13,0,.54,0,.77,0h.08l.32.06a.49.49,0,0,0,.4,0c.1-.06.09-.15.34-.12l.47,0h.26c.2,0,.41,0,.49.25a1,1,0,0,0,.12.23,1.05,1.05,0,0,1,.16.21c0,.1-.06,0,.08.28s.2.34.28.26a1.46,1.46,0,0,0,.33-.48.5.5,0,0,1,.15-.33,1.33,1.33,0,0,0,.39-.44c0-.17.07-.14.29-.21s.24-.24.38-.11-.18.31.17.36.64.16.81,0,0-.23.25-.31.17-.13.43-.12.09-.12.38,0,.09.07.55,0h.09c.41,0,.71-.06.78.1s-.06.21.18.36.41.11.37,0-.21-.19,0-.3.34,0,.37-.23.24-.36-.1-.5-.3-.32-.57-.49-.21-.27-.49-.22,0,.11-.47,0h0c-.46-.07-.55.07-.55-.17s.12-.23.22-.29-.09-.15-.16-.14,0,.15-.28,0-.34-.11-.4-.27,0-.31-.24-.33l-.6,0-.26-.2c-.23-.17-.78-.09-.89-.22s-.24-.28-.36-.15a.41.41,0,0,1-.44.15c-.23,0-.28-.19-.49-.08s-.12.19-.34.29l-.08,0c-.13.09-.11.14-.51,0L51,15c-.37-.14-.68-.23-.75-.36s-.07-.27-.3-.27S49.55,14.32,49.66,14.43Z"/><path class="cls-1" d="M63.9,18.38c.05-.05.14,0,.25-.05s.08,0,.07-.14-.06,0-.06,0a.74.74,0,0,1-.2,0,.23.23,0,0,0-.25.06l-.05,0s-.06.14,0,.2S63.85,18.43,63.9,18.38Z"/><path class="cls-1" d="M65,19.15c.17,0,.24.06.28,0s0-.08.1-.08.22,0,.24-.05c0-.24-.14,0-.31-.13s-.06-.07-.13-.06-.12,0-.14,0,0,.07,0,.08-.12,0-.09.1S64.8,19.11,65,19.15Z"/><path class="cls-1" d="M65.15,18c.18-.05.16-.09.23-.17s0-.08.28-.08.4,0,.4-.09.08-.23-.07-.23h-.15c-.07.07-.06.13-.27.15s-.18-.1-.23,0,0,.18-.14.2a.46.46,0,0,1-.26,0c-.11-.05-.18-.1-.23-.07s-.19,0-.06.14A.67.67,0,0,0,65.15,18Z"/><path class="cls-1" d="M49.37,17h0c.2.05.19.06.24.09l.06.05a.31.31,0,0,0,.18,0c.08,0-.05-.11-.18-.23s-.16-.06-.3-.09h0c-.16,0-.09-.09-.16-.18s-.21-.05-.27,0,0,.09.07.2S49.14,16.93,49.37,17Z"/><path class="cls-1" d="M68.65,18.34s.06,0,0,0,0,0,0,0h0s0,0,0,0,0,0,0,0S68.63,18.33,68.65,18.34Z"/><path class="cls-1" d="M91.9,53.49a.54.54,0,0,0,.07-.3c0-.09-.09-.09-.14-.07s-.1.1-.15.12h0c-.14,0-.2,0-.25.13s-.1.06-.07.17-.1.16.15.1l.17,0,.18-.06A.22.22,0,0,0,91.9,53.49Z"/><path class="cls-1" d="M92.42,52.41c-.21.15-.4.13-.41.26s-.06.27.11.17.31-.24.42-.3h0c.07,0,.12,0,.28-.12l.12-.1c.11-.1.17-.12.18-.24a.78.78,0,0,0,0-.21h-.11s0,0-.08,0l-.14.07c-.15.1-.18.08-.26.18a.43.43,0,0,0,0,.07C92.43,52.34,92.62,52.27,92.42,52.41Z"/><path class="cls-1" d="M92.38,49.33s-.07.11,0,.13a.44.44,0,0,0,.18,0l0,0a.14.14,0,0,0,0-.07c0-.1.06-.11,0-.24h0c-.07-.12,0-.18-.15-.18s-.16-.06-.2,0-.06.08,0,.17A.46.46,0,0,1,92.38,49.33Z"/><path class="cls-1" d="M93.87,53c-.11.07-.25.06-.15.17s.2.09.23.2,0,.22-.1.17a4.72,4.72,0,0,1-.45-.16l-.15-.06L93,53.28h-.08a1.27,1.27,0,0,0-.32,0h-.06a1.9,1.9,0,0,0-.32.2c-.14.13-.18.12-.23.3s-.2.16,0,.29.37.25.31.27a.5.5,0,0,0-.21,0,1,1,0,0,0-.21.11.18.18,0,0,0,0,.11,1,1,0,0,1,0,.25c0,.08-.12,0,0,.13l0,0c.11.11.16.15.27.1s.33-.08.28,0a.7.7,0,0,1-.28.2s.06.22,0,.17-.11-.14-.21,0l0,0c-.09.1-.18.16-.13.31a.32.32,0,0,0,.13.15c.07,0,.15.1.16.19a.4.4,0,0,0,.16.29c.08.1.32.08.44,0h0a.49.49,0,0,1,.36-.08h0c.06,0,.17,0,.26,0a.12.12,0,0,1,.1,0c.11.08.38-.09.38-.09s.28,0,.36-.07,0-.27.15-.17.36.25.44.2.1-.09.24-.14a.94.94,0,0,0,.38-.2c.15-.13.29-.1.2-.24s-.24-.27-.09-.36.17-.07.23-.17a2.55,2.55,0,0,0,.28-.4s0,0,0-.06h0c0-.08-.09-.13,0-.23h0l.11-.11a.3.3,0,0,0,.07-.11c.05-.12.11-.24.15-.32s.19-.15,0-.2l-.21,0-.11,0a.19.19,0,0,1-.1-.05c-.11-.09,0-.15-.26-.15s-.3.06-.44,0-.11-.19-.31-.12a1,1,0,0,0-.31.12c-.1,0,0,.11-.17.07s-.19-.08-.19-.19.11-.17,0-.24-.14-.14-.19-.1Z"/><path class="cls-1" d="M103.48,57.62c0,.11,0,.16.11.14h0a.25.25,0,0,0,.23-.16.76.76,0,0,0,0-.11.65.65,0,0,0,0-.24h0c0-.12-.06-.2-.13-.18a.56.56,0,0,0-.14.09h0C103.18,57.52,103.41,57.39,103.48,57.62Z"/><path class="cls-1" d="M93.25,52.53l-.13,0-.13,0-.29.09,0,.06-.06,0c-.08,0-.14.06-.07.11l.07,0a2.63,2.63,0,0,1,.3.08.21.21,0,0,1,.1.06.36.36,0,0,0,.12,0l.14,0a.31.31,0,0,0,.12-.07c.1-.09.08-.17.19-.21s.11,0,.27-.13.23-.27.15-.29-.11-.09-.26,0,0,.1-.25.11S93.35,52.51,93.25,52.53Z"/><path class="cls-1" d="M90.07,55.18c-.15.12,0,0-.23.19s-.21.17-.22.27-.09.18,0,.19.08-.1.16-.13,0-.1.21-.12a.64.64,0,0,0,.34-.16l0,0c.05-.08.06-.21.12-.27s.09,0,.18-.11.1-.2.18-.32.12-.09.17-.21.15-.14,0-.29-.34-.19-.35-.15a.25.25,0,0,1-.05.07c-.21.15-.19.08-.25.25a1,1,0,0,0,0,.17l0,.08a1,1,0,0,0-.13.33C90.12,55.09,90.22,55.06,90.07,55.18Z"/><path class="cls-1" d="M103.91,58.35H104c.17,0,.2,0,.28-.12l0,0c0-.09,0-.15.15-.2s.22,0,.23-.14,0-.18-.07-.2a.32.32,0,0,0-.13,0l-.18.1-.08.06c-.1.08-.15.05-.18.15s0,0,0,.19a.23.23,0,0,1-.06.14S103.88,58.34,103.91,58.35Z"/><path class="cls-1" d="M2.88,4.36c.1-.09.09-.16,0-.19l-.11,0a.06.06,0,0,1,0-.06c0-.08,0-.1,0-.09l0,0a.39.39,0,0,0-.06.19c0,.1,0,.21,0,.29s0,.11,0,.16a.49.49,0,0,0,.12.08h0s0-.14,0-.21S2.78,4.44,2.88,4.36Z"/><path class="cls-1" d="M23,14c.16.05.16.08.23,0l0-.05c.12-.17.13-.14.19-.27s.22-.26.08-.29-.16-.06-.21,0l-.09,0h0a.39.39,0,0,0-.17.19c-.05.11-.11,0-.11.21S22.77,13.93,23,14Z"/><path class="cls-1" d="M96,106.59h0s0,0-.06,0,0,.1,0,.18,0,.05,0,.13a.28.28,0,0,0,.06.18h0a.4.4,0,0,0,.09-.16.88.88,0,0,0,0-.23C96.13,106.55,96.07,106.59,96,106.59Z"/><path class="cls-1" d="M96,104.09s-.06,0-.09,0a.12.12,0,0,0-.1.07c0,.07,0,.11.05.15l0,0a.06.06,0,0,0,.08-.05C96,104.18,96.06,104.15,96,104.09Z"/><polygon class="cls-1" points="54.49 115.74 54.49 115.74 54.5 115.75 54.49 115.74"/><path class="cls-1" d="M54.52,115.76h0Z"/><path class="cls-1" d="M122,66.74c-.08-.18-.08-.1-.09-.26s0-.18,0-.37-.09-.48-.1-.58a1.32,1.32,0,0,0,0-.32.49.49,0,0,0-.16-.3c-.13-.16-.11-.27-.16-.45a2.77,2.77,0,0,1,0-.54,1.65,1.65,0,0,0-.11-.57c-.08-.2-.44-.26-.55-.36a.85.85,0,0,0-.53-.2h-.47l-.48,0a1.68,1.68,0,0,1-.75-.15c-.45-.13-.21-.08-.26-.14s-.24,0-.47,0-.33-.33-.34-.37a1,1,0,0,0-.48-.22c-.23,0-.17-.1-.24-.17a2.28,2.28,0,0,1-.21-.3c-.08-.09-.39-.2-.47-.31a1.38,1.38,0,0,1-.14-.25c0-.06-.37-.35-.41-.41a1.16,1.16,0,0,0-.42-.23.63.63,0,0,1-.39-.28c-.11-.18-.17-.09-.34-.16s0-.08-.08-.15-.13-.09-.27-.16a4.66,4.66,0,0,1-.55-.33s0,0-.23-.08a.6.6,0,0,1-.35-.23c-.08-.07-.09-.05-.29-.14s-.17-.07-.26-.16-.37,0-.47,0h-.54a1.22,1.22,0,0,0-.43,0c-.15,0-.14.09-.2.13a2,2,0,0,1-.43,0c-.16,0-.17,0-.19.1s-.09.07-.16.05,0,0-.08-.06a1,1,0,0,1-.27,0c-.17-.05-.06-.05-.21-.1s-.21,0-.28-.11,0-.07-.15-.13a.46.46,0,0,0-.39,0,1.55,1.55,0,0,1-.34.05.38.38,0,0,1-.19,0c-.09,0-.19,0-.3-.1s-.2,0-.3-.09-.09-.11-.25-.2-.18,0-.41-.14-.06-.06-.22-.09-.31-.12-.43-.14-.08,0-.17.07-.09.08-.1.16,0,.11-.14.06a.62.62,0,0,0-.33,0c-.11,0-.14.07-.22.07a.34.34,0,0,0-.19,0,2,2,0,0,0-.36.18,1.73,1.73,0,0,1-.12.26.08.08,0,0,1-.1,0l-.1,0c-.12,0-.12,0-.19.06l-.08.1a.3.3,0,0,1-.14.07.18.18,0,0,0-.13.07l-.07.14a.47.47,0,0,1-.18.21l-.12.06c-.08,0,0,.14-.17.21s0,0,0-.13,0-.09.13-.21.06-.08.11-.22a1.17,1.17,0,0,0,0-.37,1.39,1.39,0,0,1,.09-.35c0-.13.06-.11-.05-.25s0-.14-.1-.28-.09-.08-.12-.15.09-.16.18-.2.08-.06.12-.21,0-.11,0-.18.05,0,.05-.11-.1-.14-.13-.16a.24.24,0,0,0-.1,0s-.18,0-.22-.11,0-.13-.19-.19-.08,0-.11-.15-.08-.13-.29-.16-.11.09-.11.19-.09.19-.27.17-.09,0-.11-.1S102,56,102,56a.39.39,0,0,1-.26-.11,1.35,1.35,0,0,0-.27-.2l-.19-.1a.65.65,0,0,1-.26,0,.45.45,0,0,1-.2-.21c0-.09-.14,0-.23,0s-.23,0-.38-.19-.2-.08-.37-.15-.13,0-.3,0-.14-.09-.18-.14a.61.61,0,0,1-.09-.13s-.12,0-.24-.05a1.56,1.56,0,0,0-.36-.11c-.26-.07,0-.07-.11-.18s-.2,0-.29,0-.06.16-.16.18,0,0-.09-.15-.21,0-.3,0-.09.07-.19,0a.17.17,0,0,0-.19,0,.53.53,0,0,0-.27,0c-.09,0,0,.09-.35.21s-.15.06-.24.14-.06.13,0,.29.08.1.12.23,0,.1,0,.15-.12.08-.19.17,0,.07.15.12a.58.58,0,0,1,.21.1c.06,0-.08.09-.19.11a.42.42,0,0,0-.24.09c-.05,0,0,.12-.1.18s0-.06-.13-.18h0C96,56,96,56,95.92,56h-.19c-.27,0-.15.1-.27.31s-.17.18-.37.26a.77.77,0,0,0-.45.37c-.08.18-.17.52-.25.65a.74.74,0,0,0-.08.38c0,.08-.15.18-.19.13s0-.28,0-.35,0,0,0-.1a.94.94,0,0,1,0-.37c0-.18,0-.16.16-.36a1.83,1.83,0,0,1,.13-.21c0-.07,0-.1,0-.22s-.09,0-.18.11-.08.08-.25.11-.13,0-.23,0-.08.12-.1.32-.1,0-.15,0,0-.11,0-.22-.11-.06-.19,0l-.14,0-.12,0-.07,0a.8.8,0,0,0-.26,0h-.07a.4.4,0,0,1-.17-.09c-.13-.09,0-.05-.27-.13s-.17,0-.26-.07l-.06,0v0a.14.14,0,0,0,0-.07c0-.07.08-.06,0-.15h0c-.11-.09-.07-.17-.13-.23l0-.09c0-.06-.05-.14-.07-.18s0-.13,0-.25a.15.15,0,0,1,0-.08c0-.06.08-.07.11-.14s-.07-.13-.1-.23v0c0-.07-.07-.08-.15-.12s-.13.08-.24.17-.09.07-.28.12,0,.05-.31.26a2.46,2.46,0,0,1-.29.21l0,0a4.28,4.28,0,0,0-.42.26c-.11.09,0,.11-.11.14s-.2,0-.45.09-.14.09-.26.15-.17,0-.26,0,0-.08,0-.18-.09-.06-.2-.08-.27,0-.36,0-.17,0-.17-.07.05,0,.16-.08a1,1,0,0,1,.3-.08c.17,0,.16,0,.25-.14s.23,0,.31,0a.86.86,0,0,0,.25,0c.14,0,.12,0,.18-.13s0-.15.07-.32.16-.1.25-.24.07-.12.07-.22.06-.34.06-.39.21-.21.28-.35a.18.18,0,0,1,0-.07c.06-.06.13-.06.2-.15a4.44,4.44,0,0,1,.27-.44,3,3,0,0,1,.48-.48,2,2,0,0,0,.3-.15l.07,0a1.2,1.2,0,0,0,.15-.16l0,0c.08-.08.14-.09.23-.17a2,2,0,0,0,.22-.32.52.52,0,0,1,.17-.16c.08-.07.07-.08.1-.18a.19.19,0,0,1,0-.09l.1-.12a1.16,1.16,0,0,1,.3-.22l.07,0c.1-.12.13-.13.19-.15l.13-.06c.18-.1,0-.09-.13-.13h0c-.13-.06-.14,0-.15-.09s0-.1.13-.14l0,0a.27.27,0,0,0,.13-.07.24.24,0,0,0,.1-.22.48.48,0,0,0-.11-.29,1.62,1.62,0,0,0-.12-.16l-.06-.08c0-.06-.06-.06-.2-.07l-.2,0-.2,0a.6.6,0,0,1-.23,0c-.15,0-.06-.1-.16-.2s-.12,0-.16-.1,0-.13-.07-.2-.08,0-.14,0a.08.08,0,0,1-.08,0c-.08,0,0-.05,0-.14s0-.06.1-.1h0a.21.21,0,0,0,0-.18.56.56,0,0,1,0-.19.14.14,0,0,0,0-.07c0-.06-.11-.1-.18-.22v0c-.1-.17,0-.17-.11-.41a.76.76,0,0,1-.11-.32.55.55,0,0,0-.18-.26c-.14-.14,0-.2,0-.34a.48.48,0,0,0-.15-.3c-.1-.1,0-.16,0-.25s-.09-.59-.1-.73,0-.12-.06-.15a.22.22,0,0,1-.09-.13,1.5,1.5,0,0,0-.17-.29c-.11-.15-.11-.12-.16-.15s-.15,0-.17,0h0a.08.08,0,0,0,0,.07.85.85,0,0,0,.08.17c.06.1,0,.09.06.19s0,.11,0,.11l-.17-.07h0c-.08,0-.12-.26-.13-.46,0,0,0-.07,0-.1s-.14-.18-.17-.3a1,1,0,0,0-.15-.33c-.09-.15-.25,0-.24.12a2.18,2.18,0,0,1-.08.51c0,.06-.08-.14-.07-.3a1.42,1.42,0,0,0,0-.43c0-.11-.12-.1-.19-.19a.37.37,0,0,0-.32-.14c-.16,0-.07.14-.13.19s0-.08-.06-.16.09-.12-.11-.25-.27-.08-.5-.42a1.2,1.2,0,0,0-.94-.56c-.44-.07-.13,0-.43-.15s-.73-.29-.73-.29a.92.92,0,0,0-.3-.08h0c-.21,0-.1-.08-.35-.16s-.64-.09-.9-.2-.27,0-.39.08a1,1,0,0,1-.5.13,3.79,3.79,0,0,1-.61-.19c-.24-.06-.38,0-.65,0s-.2.14-.22.36-.09,0-.28-.11A.79.79,0,0,0,81.4,42c-.17,0-.29-.13-.53-.18s-.48,0-.56-.1-.28,0-.36.06-.06.22-.18.12a.2.2,0,0,1-.07-.11.24.24,0,0,0,0-.14,2.14,2.14,0,0,1-.16-.28c0-.09-.13-.13-.34-.15s-.34,0-.48-.24-.07-.23-.18-.38-.41-.23-.56-.38A.48.48,0,0,0,77.6,40c-.18,0-.23,0-.35.07s-.2.2-.31.43a1.14,1.14,0,0,0-.09.29.18.18,0,0,0,0,.08s0-.06,0-.26.07-.2.11-.37a3.6,3.6,0,0,1,.11-.39c0-.09.12-.58.11-.67s-.16-.22-.22-.3a2,2,0,0,0-.27-.39,2.37,2.37,0,0,1-.53-.44c-.28-.32-.14-.13-.21-.24a4.3,4.3,0,0,0-.7-.36c-.26-.13-.12-.09-.2-.19a3.83,3.83,0,0,0-.65-.37l-.29-.16c-.15-.1-.24-.08-.59-.07s-.24,0-.32.1a.23.23,0,0,1-.25-.07c-.07-.06-.22.09-.33.08s-.1,0-.13,0l0,.06a.24.24,0,0,0-.11.18c0,.09-.08.11-.15.08S72.06,37,72,37a1.17,1.17,0,0,1-.29.13c-.14,0,0-.17-.06-.19s-.31-.07-.47-.14,0-.08,0-.13.24,0,.4-.06.24,0,.33-.14.05-.14.07-.28.09-.13.12-.23a1.41,1.41,0,0,1,.07-.36c0-.12.16-.13.3-.16l.06,0c.16-.06.07-.18,0-.27a.44.44,0,0,0-.1-.15L72.33,35a2,2,0,0,0-.47-.13.66.66,0,0,1-.25-.11c0-.05-.12-.06-.28-.14s-.11-.1-.23-.13-.13.08-.13.2-.07.08-.2,0,0-.11-.11-.21-.38-.12-.45-.11,0,.07,0,.21,0,.23-.16.18-.05-.09-.18-.16-.11-.14-.18-.34,0-.14-.12-.22-.2-.14-.24-.12a.53.53,0,0,1-.19.09,2.33,2.33,0,0,1-.35.06.39.39,0,0,1-.31-.09c-.06-.06,0-.06.22-.1a1.14,1.14,0,0,1,.37,0c.13,0,.12-.06.19-.21s0-.19-.15-.27-.25,0-.33.05-.15,0-.21-.12,0-.09,0-.17.16-.11.29-.09a4.13,4.13,0,0,0,.47,0c.21,0,.5-.06.51-.13s.11-.09.23-.11.51,0,.58-.14,0-.07-.12-.12-.33.09-.63.08a4.16,4.16,0,0,1-.5,0c-.25,0-.16,0-.3-.1s-.18,0-.26.09-.07.09-.41,0a1.33,1.33,0,0,0-.71.11.63.63,0,0,1-.45,0c-.32-.06-.43,0-.63,0h-.13a.54.54,0,0,0-.29.18c-.09.08,0,.2,0,.29s-.29.06-.34.07l-.35.26-.05,0a2.16,2.16,0,0,0-.61.32c-.22.19-.41,0-.75,0l-.1,0a1.45,1.45,0,0,1-.59-.25c-.17-.09-.44-.18-.61-.27s-.11-.35-.19-.41l0,0c-.17-.05-.66-.09-.68-.12s-.12,0-.21.06l-.06,0a1.58,1.58,0,0,1-.64,0c-.24-.06-.29,0-.47.16s-.13,0-.41,0-.23,0-.43.05a1,1,0,0,1-.39.07c-.14,0-.69-.14-.69-.14s-.18-.26-.17-.34a2.82,2.82,0,0,0,.1-.33c0-.15,0-.15-.11-.26s0-.16-.11-.22-.16-.12-.21-.19-.17-.07-.37-.18-.14-.12-.22-.2-.18-.07-.45-.06-.15-.05-.25-.1a.6.6,0,0,0-.35,0,2.25,2.25,0,0,0-.31.1.43.43,0,0,1-.24-.07.32.32,0,0,0-.17-.15c-.11,0-.06.05,0,.09a.3.3,0,0,1,0,.17c0,.07-.16,0-.26,0a.25.25,0,0,1-.19,0h0s0-.06-.09-.18,0,0-.08,0,0,.08,0,.17,0,.22-.1.24-.16,0-.25,0a.72.72,0,0,1-.63.17c-.47-.05-.27.15-.48.16s-.28,0-.37.14-.21.2-.32.16a.57.57,0,0,0-.43.1c0,.07,0,.13.08.2s-.05.07-.12.11-.06.16-.06.25.09.13.18.27,0,.1.08.32.13.18.27.29.12.13.13.32.08.15.25.35.1.17.08.29a3.25,3.25,0,0,0-.07.38c0,.13,0,.3-.1.37s-.1.07-.11.15-.08.22-.21.22a1.11,1.11,0,0,0-.39.13c-.06,0-.41.12-.53-.06s0-.13,0-.24a.79.79,0,0,0-.08-.32c-.06-.12-.14-.1-.18-.22a1,1,0,0,0-.21-.4c-.16-.18-.06-.13,0-.57s.16-.26.23-.37.09-.2.13-.27.29-.23.35-.3a.62.62,0,0,0,.08-.35c0-.15,0-.2-.09-.33s0-.1,0-.21,0-.17-.17-.32-.15-.06-.15-.18-.23-.28-.23-.36.05-.11.05-.18a.45.45,0,0,1,.19-.28c.11-.07.1,0,.24,0a2.07,2.07,0,0,0,.41,0l.22-.09c.14-.06,0-.1.05-.21h0c0-.11.24-.2.3-.22S53,30,53,30s-.11-.23-.13-.31-.19-.15-.3-.19l-.43-.17c-.26-.1-.2.06-.26.12s-.24.22-.24.24,0,.23-.15.21-.11-.13-.24-.11-.08.22-.11.37-.23.15-.33.27,0,0-.16.12-.13.12-.45.13-.2.1-.28.22-.12.05-.4.19-.11.18-.19.33-.39.15-.7.14a5.17,5.17,0,0,0-.67.06c-.13,0,0-.19-.16-.23a.6.6,0,0,0-.48.12c-.15.11-.13.13-.2.31s0,.16,0,.34a.39.39,0,0,1-.11.26c-.07.1-.14.19-.29.16s0,0-.22-.1,0-.07,0-.17-.11-.22-.11-.3-.09-.13-.24-.19-.1,0-.15,0a.6.6,0,0,1-.27.15c-.15.05,0,0-.09.18s-.05.07-.11.13-.15,0-.25.11-.07.23-.1.31-.14,0-.28,0-.11.13-.1.2a1,1,0,0,1-.12.4c-.06.18-.06.09-.12.24s0,.39,0,.55,0,.15-.08.24,0,.24.07.3,0,.08,0,.26-.08.08-.13.15a.4.4,0,0,1-.26.17.93.93,0,0,0-.48,0c-.15.08-.27.47-.36.58l-.22.24c-.13.13-.25.13-.3.28s-.12.1-.31.15a.62.62,0,0,0-.34.21c-.11.11,0,.07.22.2s0,.06.1.18a3,3,0,0,1,.07.55c0,.24,0,.28-.14.37s-.12-.05-.23-.24,0-.07,0-.16a.52.52,0,0,0-.17-.31,2.68,2.68,0,0,1-.47-.54,1.61,1.61,0,0,0-.31-.38l0,0c-.16-.16-.39-.19-.5-.38a.86.86,0,0,0-.28-.34c-.15-.13-.29-.08-.53-.27s-.26-.13-.65-.24-.56,0-.86,0l-.08,0c-.21-.07-.18-.21-.27-.25a2.7,2.7,0,0,0-.47,0,1.09,1.09,0,0,0-.45-.07c-.31,0-.09,0-.18.16s-.16.07-.32.19-.1.17-.38.22-.14.16-.2.23a.56.56,0,0,1-.28.12,3.12,3.12,0,0,0-.51.14,3.7,3.7,0,0,0-.6.42c0,.07-.21.06-.35.06h-.59a.8.8,0,0,1-.31-.05c-.17,0-.09-.09-.2-.15L32.88,36l0,0c-.15-.08-.05,0-.06-.17s0,0-.1-.1-.17,0-.17,0l.08.1a.41.41,0,0,1,0,.16c0,.14,0,0-.09.07a.66.66,0,0,1-.34-.06.26.26,0,0,1-.13-.06.68.68,0,0,1-.18-.21c-.15-.18-.07-.14-.15-.29a.85.85,0,0,1-.14-.34c0-.08-.17-.19-.3-.28l-.17-.12a2.94,2.94,0,0,0-.29-.19c-.14-.09-.15-.09-.22-.22s-.06-.15-.16-.33-.27-.08-.49-.28,0-.08-.16-.25-.19-.13-.26-.3,0-.28-.06-.51a1.3,1.3,0,0,0-.21-.53h0a3,3,0,0,1-.37-.48c-.15-.24,0-.08.15-.27s.11-.14.19-.27.07-.09.07-.24a1.91,1.91,0,0,0-.05-.36c0-.19.05-.17,0-.32s0-.17.1-.33.07-.2.1-.26.17-.2.16-.27a1.43,1.43,0,0,0-.07-.28.84.84,0,0,1,0-.36c0-.17.12-.14.12-.26s-.08-.12-.13-.2,0-.12,0-.37,0-.33,0-.43.1-.05.14-.28a1.88,1.88,0,0,0,0-.43c0-.13.12-.23.22-.34a3.73,3.73,0,0,0,.26-.3c.05-.08.08-.1.09-.16v-.17a1.67,1.67,0,0,1-.05-.38c0-.21,0-.17-.09-.32s0-.12,0-.27a2.42,2.42,0,0,0-.1-.45v0a3.22,3.22,0,0,0-.05-.38c0-.09-.26-.14-.53-.25s-.23-.05-.37-.17a3,3,0,0,1-.3-.25.71.71,0,0,0-.25-.29c-.2-.16-.13-.13-.22-.23s-.08-.09-.36-.12a1.77,1.77,0,0,1-.46-.07c-.15-.06-.4-.13-.53-.19a.52.52,0,0,0-.44.12c-.13.11-.13,0-.34,0s-.17.07-.33.08-.17,0-.28-.11a1.46,1.46,0,0,0-.59-.14c-.18,0-.18.06-.21.17s.11.19-.16.18-.19,0-.33.07-.05.22-.25.14-.3,0-.36-.06a.87.87,0,0,0-.5,0l-.11,0c-.05,0-.07-.05-.14-.09s-.23,0-.42-.07-.19,0-.26.07-.15-.06-.2-.1a1.62,1.62,0,0,0-.48-.06,1.41,1.41,0,0,0-.41.06c-.17.07-.15.17-.32.19h-.07a.43.43,0,0,1-.36-.07,5,5,0,0,1-.51-.34c-.18-.15-.1.06-.1.12s.06.1.12.23,0,.18-.09.14a.77.77,0,0,1-.29-.32v0c-.09-.15,0-.24.17-.45s.21-.16.42-.31.15-.16.19-.22.26-.6.37-.77,0-.29,0-.45a1,1,0,0,1,0-.46,3.52,3.52,0,0,0-.05-.5c0-.19.13-.08.36-.08h.06c.23,0,0-.1-.06-.2a.1.1,0,0,1,0-.05c-.08-.12-.19-.13-.19-.29a.35.35,0,0,1,.11-.26s0,.07.12.1a.37.37,0,0,0,.16,0c.07,0,.12,0,.14,0s0-.1,0-.19a.41.41,0,0,1,0-.12c0-.22-.25-.09-.17-.23s0-.15-.12-.21l-.17-.09c-.23-.12-.23,0-.37-.12s-.07-.08,0-.11h-.07c-.18,0-.19,0-.27.24a3.28,3.28,0,0,1-.19.36,3.86,3.86,0,0,1-.24.35c0,.06-.05.2-.21.21s-.13-.09-.29-.15-.1,0-.21.09l0,0,0,0,0,0,0,0,0,0s0,0,0,0l0,0c-.08,0-.6,0-.93,0H16.67c-.4,0-1.05,0-1.18,0s-.18,0-.19.1,0,.21,0,.35a1.81,1.81,0,0,0,0,.32c0,.2,0,.28,0,.39s-.09.1-.33.11a1.84,1.84,0,0,1-.37,0c-.16,0,0,.14.06.2l.3.31a1.51,1.51,0,0,0,.4.16c.11,0,.14.2.31.26s.15.09.18.19a2.06,2.06,0,0,0,.23.31s0,0,.09.07a1.11,1.11,0,0,1,.26.17c.08.1,0,.09-.06.21a1.44,1.44,0,0,1-.09.29,1.44,1.44,0,0,1-.56,0,4,4,0,0,0-.69,0h-.59l-.21,0c-.38,0-.24,0-.37,0s-.12.1-.15.28,0,.09-.14.21-.08.07-.11.16,0,.16-.06.28v0l0,0,0,0s0,0,0,0l0,0v0l-.06,0c-.08.06-.12.18-.21.26s0,.06,0,.2,0,.05.16.13.05.07.07.15,0,.1-.11.15-.08.21-.09.35a2.79,2.79,0,0,0,0,.39c0,.12,0,.15,0,.16s.15,0,.19.1a1.52,1.52,0,0,0,.45.4,3.4,3.4,0,0,0,.49.24,1.19,1.19,0,0,0,.33.24c.22.09.23.05.39.18s.14,0,.51,0a3.86,3.86,0,0,1,.69,0c.35,0,.42.07.52.17a.75.75,0,0,0,.28.15l.15,0a.77.77,0,0,1,.4.24c.06.11.19.1.45.15a2.89,2.89,0,0,1,.46.08,1.47,1.47,0,0,0,.53.15c.21,0,.17.08.32.23s.11,0,.48,0,.16,0,.3,0,.2.13.41.14a1.66,1.66,0,0,0,.36,0,1.65,1.65,0,0,0,.34,0c.15,0,.17,0,.21-.13a.57.57,0,0,0,.07-.23c0-.09,0-.14.08-.15h.13c.19,0,0,.15,0,.22s0,.09,0,.21.06-.08.13-.2,0-.1.21-.07.14-.11.28-.17.05.16,0,.19a.46.46,0,0,0-.17.14c-.06.07.08.26.09.3s.24.1.23.27h0c0,.17-.13.1-.28.14s-.11-.05-.17-.24-.15,0-.23,0,0,.16.11.27.22.26.35.37.37.19.45.3a4,4,0,0,0,.31.36,1.28,1.28,0,0,1,.32.16,1,1,0,0,1,.33.43,2.37,2.37,0,0,0,.21.33c.06.12.16.21.43.31s.21.14.37.38.11.23.22.37.11.07.33,0,.12-.1.09-.18a.62.62,0,0,1,0-.27c0-.08,0-.08.11-.09s.15.08.28.15.06.13.16.19.14-.07.07-.14a1.25,1.25,0,0,0-.23-.23c-.07-.05-.07-.18-.35-.25s-.17-.09-.22-.35,0-.15,0-.22.18-.14.25-.15a1.25,1.25,0,0,1,.24,0,.26.26,0,0,1,.19.16c.05.13.31.17.37.23a.83.83,0,0,0,.21.17c.13.1.23.17.26.26s.06.13.25.2.06.17.08.25.05.09.11.15a.66.66,0,0,1,.1.27A.25.25,0,0,1,27,32a.1.1,0,0,1-.15-.08.21.21,0,0,0-.19-.14c-.08,0,0,.12,0,.23s-.09,0-.15,0h0a1,1,0,0,1-.43-.09c-.21-.08-.18-.22-.34-.34s-.29,0-.4,0-.14.11-.09.21.2.24.2.27-.13.1-.1.17-.08.16.05.26.09.16.11.3-.1.2-.17.33a.82.82,0,0,0-.13.31c0,.15.23.46.32.54a2.16,2.16,0,0,0,.48.27c.17.08.16.24.2.34s.21.13.21.13l.15-.06a2.53,2.53,0,0,0,.22-.13.27.27,0,0,0,.1-.34c0-.14-.2-.26-.47-.44s-.12-.11-.18-.26,0-.05.34.08.14.08.34.24a2.82,2.82,0,0,1,.25.25c.11.11.2.19.22.27s0,.26,0,.46.26.11.38.14a2.12,2.12,0,0,1,.63.17,2.59,2.59,0,0,1,.38.25c.1,0,.49.23.52.47s.12.25.2.41,0,.16-.14.3,0,.1,0,.29.08.08.35.21.1,0,.16-.09-.08-.2-.15-.26,0-.15,0-.23.12,0,.24,0a.5.5,0,0,1,.34.29c.07.17,0,.34.05.48s.1.1.23.1h.13c.21,0,.2.08.26,0s.08,0,.37-.07.17,0,.32.07a1.64,1.64,0,0,0,.41.13h.07c.23,0,.2-.08.25-.07s.16.11.24.12l.26,0H33a2.19,2.19,0,0,1,.11.2,1.8,1.8,0,0,0,.21.35,2.59,2.59,0,0,1,.18.21,2.35,2.35,0,0,0,.3.19.46.46,0,0,0,.18.09c.13,0,.06,0,.13-.12s0-.16-.14-.23-.06-.08-.12-.17.06-.19.06-.19l.26.12s.08.27.15.46.11.26.16.43,0,.21,0,.34.17.13.26.14.12,0,.24-.08a4.77,4.77,0,0,0,.43-.25,1.48,1.48,0,0,1,.27-.21c.14-.07.23,0,.37-.09s-.05-.22-.15-.35-.14-.08-.21-.25a1.3,1.3,0,0,0-.48-.48c-.19-.12,0-.14,0-.35s.09-.09.29-.1.27,0,.36,0a2,2,0,0,0,.3-.29c.08-.1,0-.08.19-.12s.11-.06.17-.2a1,1,0,0,1,.19-.37l.3-.24c.16-.12.24.05.28.05a1.13,1.13,0,0,0,.42-.31c.18-.2.19-.07.34,0l0,0s0,0,0,.05a.8.8,0,0,0-.13.13c0,.07,0,.07.13.09h0a1.57,1.57,0,0,1,.37.18c.28.14.14.24.2.27s.08.08.21.17a2.23,2.23,0,0,0,.35.17c.13.05.18,0,.36,0h.13c.12,0,.07,0,.08.12s0,.08,0,.26.08.12.24.23l.3.16c.2.12,0,.1-.05.14s-.07,0-.24,0-.11,0-.27-.18a1.13,1.13,0,0,1-.19-.18c-.06-.06-.06,0-.06.11a.2.2,0,0,1-.18.21c-.16,0,0-.07,0-.24s0-.1.07-.18-.08-.08-.33-.09,0,0,0,.24a1.18,1.18,0,0,1,0,.52.87.87,0,0,0,.11.53,1.31,1.31,0,0,0,.27.44c.19.23.21.17.26.27a1.18,1.18,0,0,0,.39.38h0c.16.09.17.05.29.21s0,.18.15.29,0,.07.11.33.06.11.24.18.09,0,.14.21a.74.74,0,0,1-.07.52c-.07.18,0,.26,0,.34a2.2,2.2,0,0,1,.23.44.33.33,0,0,1,0,.35c-.06.1-.23.12-.31.28s0,.17.09.36.06.07.09.2,0,.51,0,.62a.45.45,0,0,1,.07.39c0,.17,0,.28,0,.51s0,.13.06.33,0,.13-.22.15-.05.12,0,.29.13,0,.22-.12.16.06.18.22.14.1.2.13,0,.14-.17.21,0,.17-.08.28a2.22,2.22,0,0,0-.16.47c-.1.25-.13.13-.25.28a1.38,1.38,0,0,1-.33.35c-.15.12-.14.21-.22.44a.93.93,0,0,0-.08.35c0,.23,0,.1-.17.18s-.17,0-.28.09-.09.09-.45.13-.25,0-.46,0-.26.24-.37.42,0,.21.13.41.06.14,0,.34-.06.13-.27.13,0,0-.06-.06-.1-.06-.38,0-.09.35,0,.43a.61.61,0,0,1,.18.26v0c0,.09-.15.43-.16.5s-.07,0-.21,0-.08.1-.17.14a2.92,2.92,0,0,1-.5,0c-.18,0-.17.1-.25.22s-.08.22-.2.17-.08-.17-.24-.08-.11.11-.24.12-.39.18-.38.39.14.1.15.16a2.5,2.5,0,0,1,0,.4,2,2,0,0,1,0,.42c0,.15,0,0-.06.07a1.4,1.4,0,0,0-.12.37c-.06.2-.11.14-.3.27s-.07.06-.22.27.15.21.24.35-.06.13-.29.14-.08.07-.28.42-.15.07-.45,0-.13.21-.11.49.06.18.26.3-.05.14-.06.19a.43.43,0,0,0,0,.34,2.48,2.48,0,0,0,.16.45,1,1,0,0,1-.1.47.54.54,0,0,1-.16.24c-.09.05-.18,0-.22,0s0,.1.08.31.17.11.46.16.1.05.19.16a.64.64,0,0,0,.3.26l.44.17c.17.07.1.19,0,.34s-.07.12-.08.26.26,0,.33-.24,0-.11.15-.22a.33.33,0,0,0,.08-.35c0-.17-.09-.18-.09-.34s.15-.23.31-.5.05-.18.05-.27.11-.08.18-.07,0,.1,0,.2-.17.18-.16.32a1.23,1.23,0,0,0,.08.38c0,.13.09.14.1.3s-.07.15-.16.27,0,.31-.06.45-.18.24-.41.47-.21.21-.3.28a1.46,1.46,0,0,1-.25.13.79.79,0,0,0-.38.26c-.15.13-.13.07-.24.17s-.36.29-.5.44a1.9,1.9,0,0,0-.26.41.72.72,0,0,1-.29.22c-.07,0-.07.12-.1.19s0,0,0,.27.05.2,0,.32,0,.08,0,.22,0,0,.2.2.25.13.31.2-.11.09-.21.24,0,.14-.06.28.23.16.47.37.13.25.15.42,0,.17-.12.34-.15.08-.19,0,0-.14-.17-.16-.12.19-.08.47.06.13.21.25.08,0,.22.15.21,0,.38.09.62.36.78.42.17.15.33.23,0,0,.24.21.13.18.29.31.13.13.29.35a1.5,1.5,0,0,1,.2.34,4.6,4.6,0,0,1,.25.61c.06.15.16.37.21.53a.79.79,0,0,0,.29.46,2.43,2.43,0,0,1,.48.4c.11.14.27.4.37.56a2.28,2.28,0,0,1,.17.49,1.72,1.72,0,0,1,.09.44c0,.21.26.28.4.53s.09.4.16.54a3.68,3.68,0,0,1,.2.62.84.84,0,0,0,.14.38,3.72,3.72,0,0,0,.19.34c.13.18.08.23.12.39s.36.29.41.37a2.22,2.22,0,0,1,.25.61c.07.27.05.15,0,.33s0,.14.1.22a2.13,2.13,0,0,0,.38.25l.24.33c.09.13.13.36.21.48s0,.19,0,.35,0,.15.15.26a.68.68,0,0,0,.34.13l.14.34c0,.1.08.12.16.26s.16.14.28.31a.86.86,0,0,1,.16.47c0,.19.15.25.17.32s.09.07.22.21a.48.48,0,0,1,.17.34.76.76,0,0,1,0,.33.65.65,0,0,1-.19.35c-.14.12-.08.13-.05.2a.38.38,0,0,1,.08.27c0,.16.26.3.34.38a1.8,1.8,0,0,1,.17.34c.07.12.2.26.19.32s.12.2.17.27.3.13.43.24a5.37,5.37,0,0,1,.41.45,6.46,6.46,0,0,1,.54.62c0,.11.21.16.54.31a1.36,1.36,0,0,1,.54.39,1.89,1.89,0,0,0,.78.38,5,5,0,0,1,.94.56c.11.07.29.12.44.2s.4.11.49.21A2.58,2.58,0,0,0,50,85a3.07,3.07,0,0,1,.55.15c.24.11.14.2.21.33a.89.89,0,0,0,.41.26c.09,0,.76.41.91.45a.76.76,0,0,1,.4.31.68.68,0,0,1,.17.38c0,.16,0,.19.17.24s.23.16.42.37a2.8,2.8,0,0,0,.48.49,2.25,2.25,0,0,0,.49.3h0c.29.13.15.11.22.22l0,0a1.44,1.44,0,0,1,.07.22,2,2,0,0,1,0,.63c0,.28.06.21.1.35s-.06.31-.08.4a.57.57,0,0,0,.08.36.7.7,0,0,1,.12.36c0,.19,0,.12.07.26a1.26,1.26,0,0,1,0,.38.7.7,0,0,0,0,.23s0,.11,0,.19a.42.42,0,0,1,0,.35l0,.16a1.15,1.15,0,0,0,0,.54,1.23,1.23,0,0,0,0,.39c0,.16,0,.41,0,.54v0a.74.74,0,0,1,.09.39.83.83,0,0,1-.06.45l0,.11a2.29,2.29,0,0,0-.07.49c-.06.55,0,.11,0,.34s-.1.21-.11.35,0,.68,0,.76a.82.82,0,0,0-.14.46.51.51,0,0,1,0,.32s0,0-.08.07-.3.11-.37.25,0,.23,0,.42.26.19.29.23,0,.06,0,.37-.09.16-.2.42,0,.26.09.51-.1.28-.14.42a5.79,5.79,0,0,0-.09.75.17.17,0,0,0,0,.07.56.56,0,0,0,0,.13c0,.25.17.26.32.59s-.06.47-.14.58a3.36,3.36,0,0,0-.18.34l-.08.17c-.06.11-.06.11-.06.36s.05.18.07.26,0,.41,0,.53a1.93,1.93,0,0,1-.09.41l0,.06c-.08.23,0,.15-.06.41s0,.17-.06.2,0,0-.08.08,0,.12,0,.26a.41.41,0,0,1,0,.28c0,.09-.13.13-.21.26v0c-.05.08,0,.1,0,.2a1.23,1.23,0,0,1,0,.13c0,.24.07.14.12.35s0,.17-.14.25h0a.68.68,0,0,0-.18.23,1,1,0,0,1-.06.2c0,.09-.06.07-.07.15s0,.35-.06.54a2.15,2.15,0,0,0,0,.4c0,.23,0,0-.06.18a.5.5,0,0,1-.07.13,1,1,0,0,0-.11.15c-.06.13,0,.12,0,.22s-.1.07-.19.2-.12.11-.13.18a1.22,1.22,0,0,1,0,.37c-.06.38.06.28.11.41s.11.1.17.22,0,.24.05.3a.72.72,0,0,1,0,.37c0,.15.09.17.11.32s0,.12-.15.2,0,0,0,.17,0,.16,0,.25,0,0-.17.15,0,.11-.15.13,0,0-.08-.1-.08,0-.09,0,0,.12-.09.22l0,0c-.05.07,0,.14,0,.35V113c0,.2,0,.26,0,.52a.73.73,0,0,0,.09.41c.06.16,0,.16,0,.4a1.81,1.81,0,0,0,0,.42c0,.29,0,.07.08.33s0,.22.07.34a.89.89,0,0,1,0,.37c0,.15,0,.36,0,.36a.88.88,0,0,0,.05.29s0,.07.12.22,0,.16,0,.22a2.29,2.29,0,0,0,0,.4c0,.16,0,.15-.13.27s-.09.17-.1.36-.05.2-.2.29a.23.23,0,0,0-.09.07s0,.1,0,.17v0c0,.12.11.14.08.34s0,.1,0,.24a1.85,1.85,0,0,1,0,.34s0,.12-.13.27l0,0a1.34,1.34,0,0,1-.23.24,2.42,2.42,0,0,1-.15.24.92.92,0,0,0-.14.3l-.07.2c-.1.3,0,.21,0,.36a.69.69,0,0,1-.1.36c-.06.1,0,.11,0,.25s0,.13-.13.27-.08.08-.1.27,0,.17,0,.28,0,.11-.11.15h0a1.07,1.07,0,0,0-.19.29s-.1.11-.18.23,0,.15-.11.24-.09.1-.19.24,0,.17,0,.3,0,.09,0,.17-.21.16-.24.28-.08.06-.15.14,0,0,0,.23a1.2,1.2,0,0,1,0,.34l0,.08c-.06.2,0,.07,0,.19s0,.1-.11.22-.08.09-.09.16,0,.09,0,.21,0,.12-.11.13-.12-.06-.17-.08h0a2,2,0,0,0-.07.72c0,.38-.05.28-.05.28s-.06.11-.1.13l-.13.07-.07,0-.23,0c-.08,0-.09,0-.11,0a.17.17,0,0,0,0-.05c0-.08,0-.1-.09-.12h0a.59.59,0,0,0-.09.35c0,.12,0,.17,0,.27a.71.71,0,0,1-.07.28l0,0a.19.19,0,0,0,0,.17,1.31,1.31,0,0,1,.12.26.14.14,0,0,1,0,.07,2.57,2.57,0,0,0,.1.3l.12.26c.09.23,0,.23,0,.42a.37.37,0,0,1-.09.2.17.17,0,0,0,0,.1c0,.05,0,.12,0,.19s0,.23,0,.23a1.6,1.6,0,0,0,.11.31.77.77,0,0,0,.16.22l0,0c0,.06,0,.09.09.26a1,1,0,0,1,.1.48c0,.14,0,.11.12.25s0,.19,0,.34a.74.74,0,0,1-.17.31.55.55,0,0,0-.1.18c0,.06,0,.14-.06.27-.06.29,0,.2,0,.39s-.07.07-.14,0,0-.07-.07-.12a.09.09,0,0,0-.06,0,.24.24,0,0,0-.12,0l-.06,0-.06.08a.83.83,0,0,0-.09.3c0,.1,0,.29,0,.31s-.07.21-.09.4a1.34,1.34,0,0,1,0,.28c0,.2,0,0-.16.4s0,.18-.06.35a.31.31,0,0,1,0,.1.47.47,0,0,0-.09.36.5.5,0,0,0,.09.28.19.19,0,0,1,0,.09.54.54,0,0,1,0,.3.34.34,0,0,0,0,.23c.05.13.09.14.19.21a.21.21,0,0,0,.22,0h0a.31.31,0,0,0,.1-.05l.1-.07h0c.06,0,0,0,.06.13s0,.07-.06.09l-.12,0-.06,0-.06,0c-.13.05-.12.1-.13.14s0,.05.13.07l.12,0h.12a.89.89,0,0,0,.32,0h.31a.16.16,0,0,0,.15-.08.65.65,0,0,0,.11-.3c0-.12,0-.09,0-.27s.09-.1.14-.12.13,0,.25.1h0c.11.06.1.08.21.2s0,.06.12.15.16,0,.34,0,.07,0,.11-.17a1.72,1.72,0,0,0,.06-.34c0-.14.1-.08.1-.08a.41.41,0,0,1,0,.2c0,.12,0,.31,0,.47s-.09.05-.27.14-.4.2-.51.26a.25.25,0,0,0-.17.26c0,.14,0,.09.2.13s.24,0,.36-.11.08,0,.11.05,0,.11,0,.26,0,.22,0,.3,0,.18,0,.32,0,.11-.1.1,0,0-.09-.06-.06-.07-.07-.18-.05-.15-.17-.25-.1,0-.19.1,0,.2.08.34.07.09.23.19.06.07.09.21,0,.06-.13,0,0,0-.23-.09-.07,0-.17.12h0c-.09.1,0,.21,0,.35s0,0,0,.08.08.26.09.3,0,.09,0,.26-.06.11-.08.12,0,0,0,0a1.61,1.61,0,0,1-.3.4c-.19.2-.11.18-.14.41s.09.25.18.36.19.12.23.22,0,.17-.09.27-.08.07-.19.14a.27.27,0,0,0-.15.25.15.15,0,0,1,0,.09,1,1,0,0,0-.13.14c-.1.15,0,.17,0,.24s0,.21,0,.29,0,.06.1.08a.09.09,0,0,1,.06,0c.07.06.07.08.11.1s.09,0,.1-.11,0-.11.09-.14,0,.05.07.16.07.06.11.07h0s.08,0,.18,0,0,0,.06,0a.1.1,0,0,0,.08-.09c0-.07,0,0,.1,0s.1,0,.09.07,0,.06,0,.1,0,.07,0,.15,0,.06,0,.12,0,.06-.12.09-.05.06-.07.17-.18.28-.22.35a.15.15,0,0,1-.08.08l-.14.06a.77.77,0,0,0-.34.12l-.06,0c-.11.09,0,.1-.06.12s-.15-.05-.38,0h0c-.27,0,0,.11,0,.21s0,.05,0,.05,0,0,0,.06a.55.55,0,0,1,0,.23l.4.18h0c.26.12.12.09.16.21s.16.11.26.11l.11,0a.1.1,0,0,1,.07.08s0,.06-.07,0h0a.36.36,0,0,0-.24.07s-.06-.05-.26-.1h0c-.19-.05,0,0,0-.09s0-.1-.2-.16-.12.09-.2.17l0,0c-.12.07-.13,0-.18.08s0,.12-.13.22l-.12.12h0c-.11.09-.07.13,0,.15l.12,0h0a.81.81,0,0,0,.29-.12l.11-.05c.14-.06.12,0,.2.05s0,.07,0,.12,0,.14-.12.11-.06-.07-.14-.11-.07,0-.1.06l0,.07c-.06.08,0,0-.14,0s-.07.05-.11.11,0,.2,0,.27,0,0,0,0-.08.05-.12.07l-.06,0a.56.56,0,0,0,0,.35c0,.07,0,.07.07,0l.12-.12,0,0c.14-.12.1-.1.23-.14h.07c.06,0,0,.12,0,.18s0,0,0,0l-.18.14c-.09.08-.07.24-.09.38s0,.1-.07.11h-.14c-.06,0-.09,0-.1.06s0,.07-.08.12-.1.22-.14.3,0,.12-.12.09,0-.1,0-.13-.05,0-.14,0h-.1c-.07,0,0,0-.09,0s0,0,0-.08a.19.19,0,0,1,.07-.08l.09-.13a.11.11,0,0,0,0-.05v0s-.05-.08-.1-.11l0,0a.17.17,0,0,0-.13,0h0s0-.08,0-.13-.11,0-.16,0h0s0,0-.17.06h-.26s0,0-.12-.07-.09-.1-.09-.19,0,0,.15,0l.06,0s0,.07,0,.1.07,0,.14,0,0,0,.05,0a.07.07,0,0,1,.06,0h.21c.06,0,0-.06,0-.1s0-.07,0-.14,0-.09,0-.15l0,0s0,0,0,0l0,0s.07,0,.06-.1,0-.06-.08-.08h0s0,0,0-.09v0a.07.07,0,0,0,0,0,1,1,0,0,0-.15,0h0c-.07,0-.11,0-.16,0a.17.17,0,0,0-.1,0l-.06.08c0,.08,0,.06.06.09l0,0c.06.05,0,.09,0,.11h0c-.05,0-.05.09-.07.14s-.07,0-.1-.06a1.07,1.07,0,0,0-.07-.19l0-.05s-.06,0-.14-.05-.06.06-.08.13a1.14,1.14,0,0,0,0,.25c0,.11,0,.09-.07.12s0,0-.09,0a.11.11,0,0,0,0,.05c0,.06,0,.06,0,.07s0,0,0,0a.07.07,0,0,1,0,.09l0,0c-.06,0-.18.11-.32.17h0c-.13.06,0,.17-.24.18h0c-.15,0,0,0-.11.07a.25.25,0,0,1-.08,0,.37.37,0,0,1-.14,0c-.13,0-.09.08-.16.19l-.06.06s-.06,0-.09.07-.08,0-.21.05h-.06c-.17,0-.08.12-.16.22s0,.06-.05.14.05,0,.13,0,0,0,.13,0h0c.08,0,.08,0,.18,0s.07,0,.08-.09,0-.05,0-.05H45a.18.18,0,0,0,.15,0,.26.26,0,0,0,.05-.09l.1-.1a.44.44,0,0,0,.08-.11.23.23,0,0,1,.11-.08l.11,0a.82.82,0,0,0,.17-.11h0s.09.07.09.12,0,.11-.09.18l0,0c-.09.07-.11.06-.14.24s.08.12.18.13h0c.1,0,.09,0,.16.07a.34.34,0,0,0,.19,0h.17c.15,0,.06,0,.14-.13l.06,0c.06,0,.12,0,.22,0h.06s0,0,.12,0h.14l.18.06h0s0,.13.07.32a.31.31,0,0,0,.16.19l.17.05h0c.08,0,0,.06.07.15s0,.05-.07.1h0c-.06.05,0,.09,0,.16a0,0,0,0,1,0,0c0,.08,0,.05.09.11h0s0,0,0,.06l-.1,0h-.07c-.16,0,0,0-.09-.05h0s0,0-.06.08a1,1,0,0,1-.13.25l0,.08c-.06.07,0-.1,0-.17a.26.26,0,0,0-.16-.15h0c-.09,0-.17.14-.23.21h0a.44.44,0,0,0,0,.2.61.61,0,0,1,0,.15A.26.26,0,0,0,47,151s.07,0,.12,0a.41.41,0,0,0,.17-.12l0,0s0,0,.14,0h.09s0,0,.07.07,0,.11-.07.19l-.06.07c-.12.09,0,.17,0,.25a.09.09,0,0,0,.06.07.38.38,0,0,1,.13,0h0a.1.1,0,0,0,.1,0l.06,0a.45.45,0,0,1,.17,0v-.17c0-.06,0-.25,0-.33s.08-.12.15-.18.09,0,.1.09a.17.17,0,0,0,0,.1l0,0a.65.65,0,0,1,.1.09h0s0,0,0,0-.06,0-.12,0h-.06c-.11,0-.08.05-.08.16s.07.08.07.08h.25a.08.08,0,0,1,.06,0s0,.06,0,.08l0,0a.44.44,0,0,0,0,.08h0l.12.09s0,0,.21.06h0c.16,0,.11,0,.2,0s.12,0,.12,0a.28.28,0,0,1,0,.07c0,.07,0,0-.09,0s-.05,0-.15-.06l0,0a.4.4,0,0,0-.27.11c-.08.08,0,.15.06.19s.17,0,.21,0h0s.08-.1.11-.13.06.05.06.09a.22.22,0,0,1,0,.13s0,0,0,.1,0,.08-.09.08l-.09,0c-.16,0,0,0-.14-.06s-.08,0-.11,0l-.06.06-.06,0s0-.06,0-.14a.12.12,0,0,0-.07-.07.55.55,0,0,1-.19-.08c-.09-.08-.18-.06-.31-.09l-.1,0-.09,0-.09,0c-.12-.08,0-.08-.13-.17s-.08-.05-.1,0a.38.38,0,0,0-.1.17c-.08.15,0,.11.06.21l0,.05a1.16,1.16,0,0,0,.18.24c.06.07,0,0,0,.15h0c.05.12.06.11.09.12h.22c.11,0,0,.05,0,.1s0,.08-.09.09h0c-.09,0,0,0-.07,0l0,0c-.06,0,0,.09,0,.14l0,0c0,.07,0,.1,0,.19s0,0,0,0a.35.35,0,0,0-.12,0H47.5v0s0-.05,0-.07a.16.16,0,0,0,0-.09s0,0,0,0-.17,0-.2,0h0s0,0-.12,0,0,0-.06.06l-.09.05c-.13.06-.05,0-.06.07s0,.23.14.23h.27a.24.24,0,0,1,.16.09l0,0a.09.09,0,0,1,0,.11h0s-.11,0-.18-.1l0,0c-.07,0-.16,0-.19.05h0A.24.24,0,0,0,47,154a1.41,1.41,0,0,0,0,.27,2.67,2.67,0,0,1-.06.42c0,.16.07.18.08.41a1.59,1.59,0,0,0,.05.3c0,.06,0,.07,0,.13a0,0,0,0,0,.06,0l.09,0c.06,0,0-.11,0-.29s0-.1,0-.19a.11.11,0,0,1,.05-.09l.1-.07c.07,0,0,0,.08-.15s0-.11,0-.16v0c0-.07.08-.09.17-.15a.21.21,0,0,0,.08-.06l0,0c.09-.07,0,0,.09,0s.05.1.11.19,0,.06-.18.1h0l-.1,0a.11.11,0,0,0-.07.06s0,.09.07.11h0a.08.08,0,0,1,.07.1.15.15,0,0,0,0,.16c0,.06,0,.08.05.09l.12,0c.13.05.1.09.09.15s-.1,0-.21,0h-.1a.48.48,0,0,0-.18,0l-.08.05c-.06.05,0,.13,0,.17s.07,0,.1,0h0l.18,0h.19c.15,0,0,.13.06.24s.12.09.21.21.08.2,0,.27-.1,0-.19-.11-.06-.05-.15-.15h0a.63.63,0,0,0-.1-.12.72.72,0,0,0-.18-.11h0c-.21-.1-.17,0-.21,0h0c-.06,0-.14.09-.17.17a.14.14,0,0,0,0,.06.06.06,0,0,0,0,0s.08,0,.12,0h.07l.21,0h0s0,0,0,0a.24.24,0,0,1-.11,0,.24.24,0,0,0-.12,0,.32.32,0,0,0-.17.15c-.05.09.09.06.14.11h0a.49.49,0,0,0,.23,0h.11l.07,0s0,0,.08-.09l0,0c.06,0,.07,0,.1,0s0,.12,0,.22,0,0-.06,0,0,0-.07,0,0,.08.07.1a.23.23,0,0,1,.1,0s0,.1-.1.12h-.12l-.16,0s-.06-.06-.12-.11a.38.38,0,0,0-.11-.08l-.19-.09-.06,0c-.14-.06,0,.05.06.17h0c.06.12.1.09.17.25l0,0a.36.36,0,0,0,.14.17l.09,0,.18,0,.1,0h0c.14,0,.05.17.05.17l-.07,0h-.1c-.07,0-.12.12-.1.27s0,.1.1.11l.06,0,0,0a.15.15,0,0,1,.06.16s0,0-.06,0l-.1-.07h0a.26.26,0,0,0-.18-.05.91.91,0,0,0-.22.05h0c-.23.06-.09.15,0,.26a.43.43,0,0,1,0,.07c.06.15.13.06.15.07a.05.05,0,0,1,0,0l.07.07-.07,0-.22.08h0c-.13.05-.08.13,0,.16l.06,0c.09,0,.1-.05.16-.11h0a1,1,0,0,1,.18-.05l.06,0,0,0a.36.36,0,0,0,.1-.13.7.7,0,0,0,.06-.19c0-.09.11-.13.12-.24a.6.6,0,0,1,.13-.28.14.14,0,0,1,.09-.08l.07,0s0,.08,0,.14,0,.07-.09.16v0s0,.06,0,.08a1.15,1.15,0,0,1,.07.11.58.58,0,0,0,0,.09s0,0,0,0l.09,0a.24.24,0,0,1,.1.06s0,.11,0,.17,0,0-.06,0a.19.19,0,0,1-.12-.06l0,0-.08-.09a.17.17,0,0,0-.13,0c-.11,0,0,.2,0,.26s0,.32,0,.32a.74.74,0,0,1,0,.16c0,.07-.18.06-.26.05a.18.18,0,0,1-.07-.05.3.3,0,0,0-.1-.09h0c-.06,0-.1,0-.16.08l-.13.19c-.14.19,0,.21.05.31a.13.13,0,0,0,.08.07h.2c.07,0,.08,0,.08,0s0,0,0,0,.19,0,.21,0a.19.19,0,0,1,.1-.1s.09.09.12.19,0,.12,0,.23a1,1,0,0,0,0,.25.1.1,0,0,0,0,0l.12,0h0c.11,0,0,0,0,.13s0,.15,0,.31,0,.1.09.11h.1a.29.29,0,0,0,.24,0h0a.69.69,0,0,1,.24-.07c.17,0,.08,0,.12-.05l0,0,.05-.07a.09.09,0,0,0,0-.11h0a.74.74,0,0,1-.25,0c-.06,0,0-.1,0-.18s.11,0,.23,0h0a.5.5,0,0,1,.18.11,2.16,2.16,0,0,0,.36.14h0c.22.07.21.19.33.27a.21.21,0,0,1,.12.18l.12.16c.1.12,0,.08.09.21s0,.12-.08.24-.14.05-.26.14,0,.11.07.26.16.07.23.15,0,.13,0,.29-.07.11-.09.2,0,.09,0,.13a1.86,1.86,0,0,1,.11.27c0,.06.22.06.42,0l.18,0h.3a3.6,3.6,0,0,1,.45.05H52l.22,0,.18,0a.73.73,0,0,1,.08.16c0,.07,0,0-.09.11s-.14.07-.39,0H51.9a2.49,2.49,0,0,1-.29-.05l-.18,0-.17,0c-.22,0-.08,0-.26.1l0,0c-.1,0,0,0-.17.14s-.1.13-.16.22-.11.06-.21.05-.11,0-.26,0-.07.07-.22.08,0,0,0-.12,0-.05,0-.06l-.15,0c-.11,0-.06.11-.09.24s.08.12.14.2,0,.12,0,.19,0,.06.09.07l.14,0c.15,0,.16,0,.2.11s0,.15-.08.29-.11.07-.26,0l-.08,0c-.22-.07-.1-.08-.18-.16a1.88,1.88,0,0,0-.23-.16H49.3c-.06,0-.1.07-.1.17a.13.13,0,0,0,.1.16l.16,0c.23,0,.08,0,.17.09a.83.83,0,0,0,.21.14h0c.15.08.16,0,.26,0s.16-.12.23-.22a.4.4,0,0,0,.07-.2c0-.09.12-.07.14-.14s-.06,0-.16-.13,0-.09,0-.1h.32a.57.57,0,0,1,.21.05h0l.26.05.21,0,.22-.05a1.61,1.61,0,0,0,.27-.37l0,0a3.35,3.35,0,0,1,.48-.3.32.32,0,0,1,.23,0l.17,0,.11,0c.07,0,.09.06.06.16s0,.09-.12.21l-.05.06-.14.14c-.11.12,0,.09-.08.14s-.08.07-.32.14-.16.08-.31.17l0,0c-.11.07-.08.08-.12.21a1.53,1.53,0,0,0,0,.37.79.79,0,0,1-.08.3c0,.07-.09.07-.3,0h-.07c-.27,0,0-.1,0-.2s0-.06.06-.06.07,0,.11,0,.14-.08.2-.25,0-.08-.1-.17-.08,0-.15,0l-.06,0a.92.92,0,0,0-.09.13.65.65,0,0,1-.17.22c-.1.1-.1,0-.14,0s0,0,.1-.12a.35.35,0,0,0,.1-.26c0-.12-.15-.06-.27-.05h0a.39.39,0,0,0-.3.18.88.88,0,0,0,0,.36c0,.14.05.1.16.15a.57.57,0,0,1,.13.1.53.53,0,0,1,.11.13c0,.06.23.16.35.18h0a1.59,1.59,0,0,1,.31.18,1.22,1.22,0,0,0,.21.07l.39.13a1.06,1.06,0,0,0,.46.12h0a.74.74,0,0,0,.4-.3,2.52,2.52,0,0,0,.15-.34v0a1.12,1.12,0,0,0,0-.32.74.74,0,0,0,0-.16.25.25,0,0,1,0-.12c0-.16,0-.15-.06-.3s0-.15.08-.23h0a1.67,1.67,0,0,1,.27-.36.46.46,0,0,0,0-.32c-.06-.14,0,0,.1-.13l.06,0s0,0,0-.08,0-.1.08-.2l0-.05s.05,0,.1-.05h0c.08,0,.22,0,.3,0a.24.24,0,0,1,.17,0h0a1.41,1.41,0,0,0,.27,0c.11,0,0-.1,0-.15l.06,0,.47-.17a.69.69,0,0,1,.3,0l.22,0a.37.37,0,0,0,.24-.25.64.64,0,0,0,.05-.17.29.29,0,0,1,.26-.22h0a.89.89,0,0,1,.49.09,1.5,1.5,0,0,0,.51.15.64.64,0,0,1,.24,0l.18.1a.49.49,0,0,0,.33.09,0,0,0,0,0,0,0,.68.68,0,0,0,0-.27c0-.18-.12-.21-.31-.31s-.12-.13-.18-.22-.33-.63-.33-.63a3.15,3.15,0,0,1-.25-.34c-.12-.18-.07-.09-.26-.13s-.17.08-.24.06a.31.31,0,0,1-.24-.14c0-.1-.12-.06-.25-.07s-.15.12-.18.13S56,161,56,160.88s.17,0,.34-.09.12,0,.27,0a.82.82,0,0,0,.47,0c.21-.06,0-.32-.08-.5s-.07-.22-.1-.25a3.85,3.85,0,0,1-.16-.48c0-.06,0-.09-.11-.18s-.18.15-.24.21,0-.05.1-.28.19-.14.28-.22.09-.17.1-.37,0-.13,0-.36.12-.19.16-.22a6.63,6.63,0,0,0,.51-.66c.07-.09.12,0,.37-.08s.26-.11.23-.2S58,157.07,58,157s-.28-.1-.49-.09-.16.09-.27.11-.15-.09-.17-.17.17,0,.39,0,.27,0,.45,0-.05-.17-.16-.26,0-.14-.1-.21,0-.11,0-.1.12.09.17.21.16.15.22.21a1,1,0,0,1,.14.25.57.57,0,0,0,.38.23A.77.77,0,0,0,59,157c.09-.09.25-.1.37-.25s0-.21.07-.4.12-.38.14-.55a1.23,1.23,0,0,0,0-.26c0-.14,0-.11-.12-.19s.1-.14.21-.25,0-.25,0-.43.23-.09.23-.17,0-.08.11-.16.09-.07.2-.16.09-.12.2-.21.14,0,.22-.19,0-.09.13-.2.14,0,.26-.11a1.09,1.09,0,0,0,.25-.23c.1-.11.05-.06.24-.1a1,1,0,0,0,.39-.15c.14-.11.15-.11.37-.26s.1-.11.22-.25.14-.09.25-.16,0-.21.08-.37.06-.05.16-.13,0-.17-.11-.24-.2.07-.33.1l-.29.08c-.07,0-.11.06-.19.06s-.1,0-.1-.1,0,0,.21-.06a.93.93,0,0,0,.4-.12,1.49,1.49,0,0,0,.36-.17c.25-.16.1-.13.13-.26s.09-.22.15-.39.06-.14,0-.37-.23-.16-.29-.27-.15-.16-.29-.19-.22.06-.39,0a2.11,2.11,0,0,0-.43-.05,1.42,1.42,0,0,1-.5-.11c-.29-.09-.31-.27-.4-.35a1.31,1.31,0,0,1-.17-.2c-.1-.13-.35-.17-.41-.32s-.13-.11-.34-.25-.12-.13-.16-.32a4.14,4.14,0,0,0-.14-.48.55.55,0,0,0-.09-.29c-.08-.14,0-.11.11-.36s.08-.12.22-.22.16-.09.23-.21,0-.13.1-.24.13-.24.21-.38.29-.35.32-.55,0-.09.22-.16.08,0,.2,0a1.72,1.72,0,0,0,.51-.09c.16-.08.07-.06.13-.22s.11-.07.26-.09a1.35,1.35,0,0,0,.44-.18c.11-.06.33,0,.41.08s.12,0,.43,0,.06,0,.11-.18,0-.1-.15-.19-.1-.13-.1-.31.13-.16.23-.27.23-.09.36-.17a.62.62,0,0,0,.27-.4c.05-.17,0-.07,0-.36s0,0,.09-.2,0-.08,0-.2,0-.14,0-.27-.13-.2-.17-.32,0-.21,0-.38,0-.08.16-.23a1.33,1.33,0,0,0,.24-.23c.12-.15.18-.16.24-.3s.24-.22.48-.38.09,0,.52-.15.15-.1.07-.17-.24,0-.33-.1a3.06,3.06,0,0,1-.42-.28c-.1-.09-.13-.05-.43-.09s.07-.13.16-.27.06,0,.24-.14a.54.54,0,0,1,.32-.11c.11,0,.19-.2.19-.35s.21-.21.22-.29-.15,0-.33,0-.21-.13-.46-.22-.13,0-.33-.22,0-.41.05-.54,0-.25-.07-.4,0-.1.12-.27,0-.16-.13-.27-.07-.11-.06-.26-.13-.18-.23-.5,0-.18.08-.4a.63.63,0,0,1,.24-.31A.53.53,0,0,1,65,135c.13,0,.18.14.23.15l.39.07c.17,0,.22.12.45.24s.27.1.38.17l.11.08a1.23,1.23,0,0,0,.24.14,2.86,2.86,0,0,0,.51.09,1.33,1.33,0,0,0,.42,0c.28,0,.08,0,.24,0s-.07.08.31.12.21-.08.36-.2.41-.11.57-.29.29-.1.52-.27.06-.11.14-.22.22-.3.14-.4-.12-.15-.22-.28-.18-.1-.29-.29,0-.12.07-.17a.31.31,0,0,0,.17-.32c0-.15,0-.08,0-.27a.47.47,0,0,1,.06-.3c0-.07.11,0,.33,0s.11-.12.13-.23,0-.32,0-.48.07-.15,0-.39-.1-.09-.29-.18-.16-.14-.25-.24,0-.18.07-.33,0-.05-.08-.16,0-.14,0-.2.15,0,.23.06.12.19.15.28a2.24,2.24,0,0,0,.1.21.67.67,0,0,0,.2.27c.14.12,0,0,.15,0s0-.14-.07-.24-.21-.15-.22-.3.1-.06.1-.06a1.67,1.67,0,0,0,.38.08c.3,0,.22.09.47.11s.07-.09.27-.09a3.87,3.87,0,0,0,.8-.06A2.75,2.75,0,0,1,73,131c.2,0,.63-.11.82-.12a7.94,7.94,0,0,0,1-.12,1.5,1.5,0,0,0,.46-.1,7.73,7.73,0,0,1,1-.29,4,4,0,0,0,.94-.29,5.89,5.89,0,0,0,1-.36,5.08,5.08,0,0,0,.77-.37c.37-.22,0-.21.06-.6s.06-.17.2-.42.16-.2.59-.45.27-.36.35-.67.34-.38.46-.56a1.5,1.5,0,0,0,0-.71s0-.26.05-.47-.14-.23-.35-.4-.19.07-.22.14-.3,0-.51-.21-.12-.23-.32-.57.07-.35.14-.59.18-.18.37-.5-.09-.43-.35-.6a2.9,2.9,0,0,1-.62-.51c-.34-.33-.36-.11-.38-.22s-.8-.23-1-.4-.26-.15-.32-.58.07-.2.1-.39a.71.71,0,0,0-.08-.41,2.5,2.5,0,0,0-.13-.71c-.14-.38,0-.16.1-.37s0-.1,0-.29,0-.3.24-.51.22,0,.37-.18.14-.1.14-.34-.14-.26-.18-.33a.79.79,0,0,1,0-.15l.16.13h0a1.15,1.15,0,0,1,.22.25c.07.14,0,.2,0,.4s-.16.2-.4.29,0,.14-.11.46,0,.2-.18.33,0,.19,0,.49.15.27.23.41.22.19.36.36.22.33.41.4.12.16.23.3.16.07.41,0a1.59,1.59,0,0,1,.66,0c.19,0,.26.1.38.22a.5.5,0,0,0,.47.25c.35,0,.18.15.35.24a2.86,2.86,0,0,0,.4.15c.24.08.23.15.32.19a.66.66,0,0,0,.5-.11c.08-.09.21,0,.46-.19s.13-.09.52,0,.33.11.33.11a3.21,3.21,0,0,1,.38.08c.28.07.11.09.39.06s.14-.07.24-.06a.81.81,0,0,0,.65-.39c.25-.36.12-.23.19-.34s.17,0,.33,0a1.74,1.74,0,0,0,.37-.13A.49.49,0,0,0,86,121c0-.16.21-.26.28-.42s.1-.16.22-.28,0-.11.11-.37a.37.37,0,0,1,.06-.16l-.09-.1.09.1s.07,0,.19-.1.15-.24.28-.41.27-.12.52-.31.24-.11.35-.35.32-.39.38-.64a4.79,4.79,0,0,1,.14-.6c.1-.34.27-.32.31-.5s0-.13.09-.2a.54.54,0,0,0,.14-.26c0-.13,0-.15-.06-.25s0-.14,0-.31.14-.2.13-.24a.24.24,0,0,1,.1-.18,1.31,1.31,0,0,0,.21-.23c.13-.19,0-.14.06-.32s.07-.08.17-.15.23-.08.33-.19,0-.13.08-.21.1-.06.2-.11l.07,0c.15-.1,0-.09,0-.18s.07-.15.16-.28,0-.07.08-.16.11-.11.1-.25,0-.11,0-.2a2,2,0,0,0,.09-.29c0-.14.15-.08.3-.11s.08,0,.23,0,0-.14,0-.14.14,0,.16,0l0,0a.5.5,0,0,0,.16,0h0s0,0,0,0h0a.14.14,0,0,1,0-.09l0-.06c0-.08.08-.07.13-.08s.13.11.14.17-.05.12-.13.23a.88.88,0,0,0-.12.2c0,.09,0,.2-.07.3h0a.63.63,0,0,1-.18.19l-.17.14c-.21.16,0,.07-.1.26s-.1.23-.25.27-.06.18-.1.33a1.17,1.17,0,0,1-.22.47c-.14.17-.22.06-.3.16l-.18.2a1.2,1.2,0,0,1-.16.16c-.18.15-.25.13-.37.28s-.1.15-.25.34a2.22,2.22,0,0,1-.28.26c-.07.06,0,.08,0,.13s0,0,.12,0a2,2,0,0,0,.4-.4,2.44,2.44,0,0,1,.45-.37l.11-.08A2.34,2.34,0,0,0,91,115a.73.73,0,0,1,.27-.37,3.64,3.64,0,0,0,.4-.38l.07-.1a.87.87,0,0,0,.11-.19s0-.05,0-.11.55-.77.71-1l0-.08a.82.82,0,0,0,.12-.37c0-.23.09-.2.23-.4l0-.06c.16-.28.08-.23.11-.43a.51.51,0,0,1,.12-.27l.18-.22a2.89,2.89,0,0,0,.39-.64c.05-.11.44-.52.59-.73s.31-.11.43-.32a.8.8,0,0,1,.47-.32c.17-.08.14-.09.16-.2s0-.06-.12-.16,0-.11,0-.22,0-.06.1,0,.1,0,.18,0,0,0,.07-.15a.88.88,0,0,0,.2-.4.71.71,0,0,0-.07-.53c-.07-.2-.07-.2,0-.29a1.28,1.28,0,0,0,.06-.49,3.49,3.49,0,0,1,0-.5c0-.11-.1-.32-.1-.66s0-.2,0-.25-.06-.1-.06-.28.06-.2.06-.37,0-.11-.07-.23-.18,0-.21-.18a.46.46,0,0,1,0-.26c0-.12.11,0,.11,0s0,.22.11.26.18-.11.17-.18,0-.09.07-.18l0,0c.12-.12,0-.18,0-.18h0c-.07,0-.31,0-.31-.11s.1-.06.31-.12h0a.19.19,0,0,0,.1,0s0,0,0-.08V103c0-.13.09-.23,0-.31l0,0a.2.2,0,0,0-.09,0,.39.39,0,0,1-.25-.11c-.17-.14-.1-.12-.08-.2s.11,0,.25.14l.08.06s0,0,.11,0h.06c.19,0,0,0,0-.19s.14-.14.19-.19.28,0,.43,0a.67.67,0,0,0,.25-.18s.14-.09,0-.17,0-.08.15-.13a.51.51,0,0,0,.22-.26,1,1,0,0,1,.35-.27c.13-.07.39-.21.5-.29s.06-.08.15-.15a2.93,2.93,0,0,0,.35-.21,1.2,1.2,0,0,1,.27-.21,2.67,2.67,0,0,0,.28-.19,1.48,1.48,0,0,1,.52-.29c.22-.07.16-.13.27-.24s-.08-.15.3-.12.27,0,.33-.09.08-.11.17-.16a1.3,1.3,0,0,1,.32-.09.33.33,0,0,1,.3.07.86.86,0,0,0,.27,0,.6.6,0,0,1,.24.09c.09.07.09.12.17.17s.11,0,.09,0a1.19,1.19,0,0,1-.19-.18.55.55,0,0,1-.14-.24c0-.09,0-.1,0-.16s.08-.09.13-.14.23-.08.37-.16.07-.06.21-.14.12,0,.3,0,.18,0,.21-.06,0-.09.14-.09.08.07.2.06.08-.1.07-.14-.09-.06-.21-.17,0-.19.11-.23l.16-.07.13,0h.14l.16,0c.22,0,.09.1.08.14s-.09.06-.14.1,0,0,0,.12.08,0,.12-.1,0,0,.13,0h0c.13,0,0,0,0-.09s0,0,0-.11.19-.17.31-.22.13-.1.32-.05.12.13.19.19-.09,0-.26,0-.11,0-.23,0,.06.08.33.09a1.69,1.69,0,0,0,.46,0c.16,0,.58-.07.74-.08s.09-.08,0-.26,0,0-.18-.12-.1-.11-.13-.24.13-.06.23-.12a.54.54,0,0,1,.27,0c.07,0,.1.22.09.31s-.08.11-.11.21.14.11.28.11l1.25.06.38,0c.14,0,.05-.13.06-.21s.14,0,.19-.08a.47.47,0,0,0,.13-.21c0-.07,0-.07,0-.12s-.07,0-.1.06-.06,0-.16,0,0-.07,0-.12.07-.28.12-.4a.48.48,0,0,1,.36-.24c.2,0,.35-.27.51-.31a7.29,7.29,0,0,1,.83-.4c.29-.06.19-.12.2-.28a.8.8,0,0,0-.06-.41,1.41,1.41,0,0,1-.08-.44.74.74,0,0,1,.11-.42c.09-.21.19-.14.29-.29s0-.14,0-.34.24-.29.42-.42a3.46,3.46,0,0,0,.51-.49c.1-.12,0-.2,0-.35s.22-.19.24-.47.09-.28.2-.46.31-.21.43-.36a1.81,1.81,0,0,0,.24-.46c.11-.21,0-.21,0-.3s0-.16,0-.44a4.48,4.48,0,0,1,0-.73c0-.29.12-.32.14-.57a.86.86,0,0,1,.21-.47l.56-.81c.23-.34.13-.19.11-.38s-.06-.27-.08-.48a.47.47,0,0,1,0-.29,2.61,2.61,0,0,0,.16-.66,2.25,2.25,0,0,1,.18-.59c.09-.3.12-.28.11-.52s.07-.17.16-.41,0-.26,0-.39a2.31,2.31,0,0,0-.08-.44c0-.2-.07-.15-.1-.2a5.28,5.28,0,0,1,0-.61,3,3,0,0,0,0-.43,1,1,0,0,1-.12-.46.54.54,0,0,1,.09-.36c.06-.12,0-.17,0-.35s0-.16,0-.25a.64.64,0,0,1,0-.42c0-.25,0-.19,0-.32a.78.78,0,0,1-.06-.32.87.87,0,0,1,.07-.36c.06-.15.2-.23.21-.42s.08-.1.25-.28.16-.16.18-.24a.19.19,0,0,0-.07-.18.28.28,0,0,1-.11-.24c0-.15,0-.13.08-.25s.11,0,.23,0,0,.14-.08.29a.2.2,0,0,0,.1.28,2.27,2.27,0,0,0,.36.11c.12,0,.14,0,.23-.08s.08-.09.21-.24a4.17,4.17,0,0,0,.34-.38c.12-.17.07-.13.11-.29s.36-.32.53-.59a2.27,2.27,0,0,0,.24-.48c0-.15.2-.43.23-.57a3.13,3.13,0,0,0,.06-.4c0-.19,0-.07.14-.16a1.77,1.77,0,0,1,.22-.16c.1-.07,0-.16,0-.24a.17.17,0,0,1,0-.18s.22-.11.22-.25,0-.12,0-.24.15,0,.24,0,.1,0,.17,0,.23-.08.27-.15.15-.13.42-.23a.75.75,0,0,0,.45-.3l.29-.45c0-.07.22-.2.35-.35s.08-.26.15-.32.08-.13,0-.24-.09-.09,0-.13.09,0,.31,0,.16,0,.33-.23a1.25,1.25,0,0,0,.26-.33,2.21,2.21,0,0,1,.22-.32,1.62,1.62,0,0,0,.31-.42,1.44,1.44,0,0,0,.09-.4c0-.15.17-.39.18-.53a2,2,0,0,1,.19-.63A.85.85,0,0,0,122,68c0-.2-.09-.23-.11-.49s.09-.16.12-.37A.57.57,0,0,0,122,66.74ZM57.46,84.3h-.12a.34.34,0,0,0-.13,0,2.53,2.53,0,0,1-.32,0,.32.32,0,0,1-.15,0c-.07,0,0-.07-.05-.12l-.11,0-.14,0s0,0,0,0,0,0,0,0-.24.15-.23,0L56,83.73h-.1l-.11,0-.08,0-.07,0c-.15,0-.38,0-.4-.11s-.1-.11-.1-.15a.05.05,0,0,1,0,0l.14-.07s.07,0,.07-.07v-.06a0,0,0,0,0,0,0s0,0,0,0,0,0,0,0,0,0,0-.06.05-.06.05-.07,0,0,0-.08a.21.21,0,0,1,0-.06s0-.1-.06-.14a0,0,0,0,1,0-.06.09.09,0,0,1,.07,0l.1,0,0,0,.07,0c.08,0,.16-.13.3-.07s.09,0,.11.07a.61.61,0,0,1,.09.17c.08.17,0,.17.22.27h0c.24.12.34,0,.36.2a.37.37,0,0,0,.24.36.64.64,0,0,1,.16.12.46.46,0,0,0,.14.1.2.2,0,0,0,.13,0c.06,0,.08,0,.07.06s-.08.15-.1.19,0,0,0,.06.14.07.15.14a.5.5,0,0,0,0,.12A.06.06,0,0,1,57.46,84.3Z"/><path class="cls-1" d="M77.61,116.92c0,.09.07.12.09.18S77.65,117,77.61,116.92Z"/><path class="cls-1" d="M77.71,116.38s0-.06,0-.08,0,0,0,.08a.19.19,0,0,0,.08.05A.19.19,0,0,1,77.71,116.38Z"/><path class="cls-1" d="M49.61,161.27h.06l.17.06a.41.41,0,0,1,.11.07.47.47,0,0,0,.14.14c.08,0,.17-.1.17-.15s0,0-.14-.12a2.73,2.73,0,0,0-.25-.2l0,0c-.14-.09-.22-.17-.4-.09s0,.07,0,.16S49.61,161.27,49.61,161.27Z"/><path class="cls-1" d="M47,149.88a.11.11,0,0,0,.11-.15.27.27,0,0,0-.08-.07.15.15,0,0,0-.17,0h0c-.09.1-.23.07-.12.18l.13.11.06,0C46.94,149.9,46.83,149.88,47,149.88Z"/><path class="cls-1" d="M49.3,162.34s-.07,0-.14.07-.08.11-.24.15h-.06c-.1,0-.1-.08-.12-.12s-.12,0-.22,0l-.12,0a.1.1,0,0,0,0,0c-.09.07,0,.11,0,.18l0,0c0,.09,0,.05,0,.05h0a.48.48,0,0,1-.12.18l0,0a2,2,0,0,1-.33.18l-.13.07a.41.41,0,0,0-.1.09.62.62,0,0,0-.13.24c-.06.19,0,.1.13.09h0a.08.08,0,0,0,.07,0c.1,0,.12-.08.19-.19s.05-.15.13-.22l.18-.17,0,0a.08.08,0,0,1,.07,0,.34.34,0,0,1,.12,0h0c.11,0,0,.17,0,.26l0,0-.12.08a.27.27,0,0,0-.1.11c0,.06,0,.06.1,0l.12,0,.07,0c.12,0,.11,0,.18-.12s0,0,.09,0a.46.46,0,0,0,.21,0c.17,0,0-.1-.11-.21s0-.09.2-.14.12,0,.14,0l.11.07c.17.06.08,0,.23-.17s.09-.06.2-.12h0c.14-.07.19,0,.33-.1s.06-.18.05-.3a.18.18,0,0,0-.15-.16.47.47,0,0,0-.19,0s0,.08,0,.15a.07.07,0,0,1,0,0,1,1,0,0,1-.26,0c-.25,0,0,0-.17-.11A.21.21,0,0,0,49.3,162.34Z"/><path class="cls-1" d="M46.61,149.21l-.07-.06h0s0,0-.07.05,0,0,0,.1,0,0,.13.06h0c.12,0,.09,0,.12,0S46.64,149.24,46.61,149.21Z"/><path class="cls-1" d="M47,157.25l-.15,0h-.11c-.1,0-.05.08,0,.2a.39.39,0,0,1,0,.19c0,.08,0,.07.16.09h0c.16,0,.06,0,.1-.07s0-.05,0-.09,0,0,.06-.05,0,0,0,0a.08.08,0,0,0,0-.07h0s0,0-.09,0,0,0,0-.07S47,157.26,47,157.25Z"/><path class="cls-1" d="M47.68,160.94s0-.07-.15,0h0c-.11,0-.23,0-.15.19s0,.2.12.27h0c.14.07.18.09.18,0s0-.18,0-.26a.58.58,0,0,1,0-.1Z"/><path class="cls-1" d="M47.93,160.36a.18.18,0,0,0-.15,0,1,1,0,0,0-.08.11.08.08,0,0,0,0,0v0s0,.11.06.18,0,.06,0,.07l.16.1a.44.44,0,0,1,.14.24c.05.12.06.06.12.11s0-.05,0-.1-.07-.21,0-.28,0-.08,0-.14l-.14-.19c-.1-.13,0-.07,0-.17S48.08,160.39,47.93,160.36Z"/><path class="cls-1" d="M47.08,161.32l-.26-.13-.06,0a.32.32,0,0,0-.06.07l0,0c0,.05,0,0,.1.09a.76.76,0,0,1,.12.15c.14.17.1.19.14.23l.16.1,0,0,.23.12a.31.31,0,0,1,.15.12l0,0a.29.29,0,0,0,.1.12.46.46,0,0,0,.14,0l.29.06.07,0s.11,0,0-.05h0c-.19-.16-.28-.16-.37-.26l-.11-.11-.1-.12h0c-.09-.11-.11-.18-.17-.24a.6.6,0,0,0-.14-.13l-.09,0Z"/><path class="cls-1" d="M44.83,155.3c0,.11,0,.11.06.14a.18.18,0,0,0,.09.06l.06,0c.09,0,.05,0,.1-.09s-.06-.07-.08-.12a.15.15,0,0,0,0-.06,0,0,0,0,1,0-.07s0,0-.06-.07l-.06-.07c-.12-.14,0,0-.08.06S44.82,155.18,44.83,155.3Z"/><path class="cls-1" d="M50.26,163c-.06-.06-.23,0-.34,0l-.08,0a2.4,2.4,0,0,0-.32.24.35.35,0,0,1-.22.11l-.06,0c-.16,0-.09,0-.13.29s0,.23,0,.23a.49.49,0,0,0-.22.16s0,0,0,0h0c0,.06.26.05.29.09s0,.18-.21.23,0,.13,0,.13l.22,0s0,.05.11.07l.14,0c.2,0,.07-.15.05-.25a1.4,1.4,0,0,1,0-.4c0-.19,0-.13.1-.32a.86.86,0,0,1,.2-.39l.09-.08c.07,0,.13,0,.33,0a.45.45,0,0,0,.15-.11C50.4,163,50.32,163.07,50.26,163Z"/><path class="cls-1" d="M45.34,157.85l.1,0c.1,0,.05,0,.09-.07s0,0,0,0,.07-.1.21-.25l0,0a.56.56,0,0,1,.24-.15l.11,0h0a.37.37,0,0,0-.17,0,.29.29,0,0,0-.19,0l-.08,0c-.08,0-.1.08-.2.19l0,0c-.13.13-.08.13-.11.16l0,0a.32.32,0,0,0-.1.17C45.23,157.9,45.27,157.88,45.34,157.85Z"/><path class="cls-1" d="M47.08,158.41h0a.31.31,0,0,0-.16-.19.12.12,0,0,0-.1,0l-.12.07c-.13.05-.08.05-.15.19v0s0,.07,0,.08l.14.05c.13.07.06-.05.14-.1h.06a.06.06,0,0,1,.08.05,1,1,0,0,0,0,.12s0,.06.1.06h.05c.11,0,0-.1,0-.14S47.09,158.46,47.08,158.41Z"/><path class="cls-1" d="M45.34,157.21h0c.14-.07.12-.09.14-.11l0,0a.08.08,0,0,0,0-.09s0,0,0,0h-.3c-.24,0-.17,0-.25.06h0s0,.06,0,.09a.86.86,0,0,1,.07.1c0,.09,0,.1-.07.13l-.07,0c-.09.06,0,.14,0,.27s0,.13.07.14a.11.11,0,0,0,.08,0c.1,0,0-.06,0-.2s0-.13,0-.23S45.21,157.27,45.34,157.21Z"/><path class="cls-1" d="M47.27,157.89a.22.22,0,0,0,.1-.12l.13-.06.07,0c.1,0,.11-.12,0-.12h0a1.24,1.24,0,0,1-.2,0h0c-.11,0-.15,0-.16.07s0,.05,0,.06h0s0,.1,0,.16,0,0,0,0h.19Z"/><path class="cls-1" d="M49.84,163.49a.22.22,0,0,0-.06.07c0,.05-.13.06,0,.18l.05,0c.07.07,0,.08.16.1s.19.13.21,0a1.27,1.27,0,0,0,0-.32.51.51,0,0,0-.26-.07Z"/><path class="cls-1" d="M46.54,159.44a.63.63,0,0,0,.28-.11h0c.16-.1,0-.06,0-.12a.78.78,0,0,1,0-.23h0l-.06-.05s0,0-.13,0,0,0,0-.12,0-.05-.09-.08l0,0c-.12-.07-.1,0-.1.15s0,.13-.07.19-.15,0-.13-.14a.31.31,0,0,0,0-.08,1,1,0,0,0-.09-.16s-.09,0-.13,0,0,.06,0,.16a.69.69,0,0,0,0,.25c0,.09.23.11.08.13s0,0-.07.16,0,.07.18.09h0c.11,0,0,.08,0,.14v0s0,0,0,0,.13,0,.22,0,0-.08,0-.13.08,0,.14,0Z"/><path class="cls-1" d="M47.27,162.91c0,.13,0,.05.19,0h0a.21.21,0,0,0,.18-.18v0h0c0-.09-.09-.1-.18-.16h0c-.09-.08-.06-.08-.07-.18s0-.07-.14-.13l-.07,0c-.07-.05-.1-.07-.12-.06s0,0-.1.06-.09.07-.16.14h0c-.06,0,0,0,0,.07l0,0c0,.06,0,0,.08,0s0,0,.06,0,0-.07.06-.12l0,0s.08,0,.19.08h0c.14.05,0,0,0,.11s0,.19,0,.24S47.27,162.79,47.27,162.91Z"/><path class="cls-1" d="M48.92,161.26l-.06,0s-.06,0-.16,0-.15,0-.18,0a.43.43,0,0,1,0,.07c0,.06,0,.12,0,.19l0,0a.42.42,0,0,0,.14.09c.05,0,.06.09,0,.2s.12.1.12.1.07.08.05.15a.11.11,0,0,0,0,.06s.08.06.11.08.05-.09,0-.14,0-.06.08-.13.14-.15.1-.22-.06-.06,0-.14.12-.17.13-.22A.25.25,0,0,0,48.92,161.26Z"/><path class="cls-1" d="M48.4,161.83l-.12,0c-.07,0-.1.1,0,.18l0,0,.12.09.07,0h.05s0,0,0-.08.06-.12,0-.2l0,0c-.06-.07-.05-.09-.12-.07Z"/><path class="cls-1" d="M45.44,155.52a.3.3,0,0,1-.1.07l-.05,0c-.1.07,0,.25,0,.44s0,.1,0,.31a.39.39,0,0,0,0,.11s.07,0,.19,0h.07c.24,0,.08,0,.08-.2s-.06-.13,0-.21,0-.07,0-.12a.8.8,0,0,1,0-.16c0-.11,0-.08.11-.12h0c.08,0,.16-.06.18-.11s0-.1-.09-.14l-.09,0a.09.09,0,0,1,0-.06.31.31,0,0,1,0-.07s0,0-.19,0h0c-.1,0,0,.06,0,.16S45.52,155.44,45.44,155.52Z"/><path class="cls-1" d="M46.36,151.29s0,.08,0,.18.07.08.18.07l.13,0c.18,0,0-.08,0-.2s.06-.09.13-.08H47c.08,0,0-.06-.06-.06l-.09,0-.07,0s0-.06-.16-.15l-.05,0c-.08,0,0,.05-.11.09s0,.11-.07.16S46.36,151.26,46.36,151.29Z"/><path class="cls-1" d="M48.1,142.19s0-.05,0-.11-.08,0-.1-.06,0-.06-.12-.13,0,0-.08.06h0s0,.09-.08.15,0,0,0,0a.1.1,0,0,1-.11,0s0-.06-.07-.1h0c-.08-.05-.16.11-.18.12l0,0,0,0c-.06,0,0,.06,0,.09h0s0,0,.16,0,.06,0,.07,0a.28.28,0,0,0,.11.09l.07,0s0,0,.1-.06h0c.1,0,.1,0,.13-.08s0,0,.13,0Z"/><path class="cls-1" d="M47.45,143.21a.34.34,0,0,1,0,.14s0,0,.08,0a1.26,1.26,0,0,0,.1-.18l0,0c0-.05,0-.05.07-.06h.07c.1,0,.16,0,.09-.08s-.06-.18-.11-.18h-.19c-.07,0,0-.05-.09.09s0,0,0,0-.1,0-.08.13S47.37,143.1,47.45,143.21Z"/><path class="cls-1" d="M46.82,140.9h0a2,2,0,0,0,.23,0,.2.2,0,0,1,.08,0c.07.07,0,.1.11.13l.1,0h.13c.08,0,.07,0,.17,0h0c.08,0,0,0,.1.06l.09,0c.2,0,.24,0,.25-.09a.47.47,0,0,0,0-.17.29.29,0,0,0,0-.19c-.05-.06-.24-.25,0-.25a.83.83,0,0,1,.23,0h.24s0,0,0-.11h0a.55.55,0,0,0-.12-.21l0,0c-.06-.11-.11-.16,0-.23h0l.12-.06s0,0,0-.11l-.05-.05-.07-.08-.12-.11-.09-.05-.1-.07a.65.65,0,0,1-.07-.27c0-.1,0-.24.1-.12s0,.17.08.18l.08,0s.09-.06.06-.11,0,0-.06,0-.09-.05,0-.13l0-.05.06-.1s0,0,0,0h0c.05,0,0,0,.12,0h0a.16.16,0,0,0,.19-.13s.07-.05.05-.15a.24.24,0,0,0-.05-.13c0-.08-.1-.1-.08-.19s.07-.11,0-.17l-.1-.07a.18.18,0,0,1,0-.11c0-.1,0-.09,0-.13l-.1-.07-.06,0-.06,0c-.33-.07,0,.09-.26.1s-.2,0-.24,0a.08.08,0,0,1,0-.06c0-.08,0-.14-.08-.15h-.06c-.08,0-.08-.13-.09.09a.87.87,0,0,1,0,.27v.09c-.05.24.07.31-.05.37s-.15,0-.17,0a.08.08,0,0,0,0,0c0,.13,0,.11,0,.25h0c0,.13,0,.07,0,.14l0,0c-.08.14-.17.08-.08.2s.06.22.11.3,0,0,0,0,.2.12.07.24l-.09.07c-.06,0-.08,0-.07.12s.11,0,0,.2a1,1,0,0,0-.13.26l0,0c-.08.15,0,0-.1.19s-.13.13-.14.18v.14C46.81,140.83,46.76,140.87,46.82,140.9Z"/><path class="cls-1" d="M47.68,147.37h0c-.07,0-.14,0-.14,0s0,.06,0,.09v.06a.18.18,0,0,0,0,.08.6.6,0,0,0,.13.14l0,0c.05,0,0,0,.06.05l0,0c.11.05.1.11.14,0s.09-.08,0-.14-.1,0-.17-.11,0,0,0-.05a.19.19,0,0,1-.07-.13C47.71,147.42,47.73,147.39,47.68,147.37Z"/><path class="cls-1" d="M47.07,146.27h0c.08-.06.07-.05.06-.14s0,0-.06-.06L47,146c-.09-.06,0,0,0-.12s0-.11,0-.14,0,.06-.1.15h0c0,.07,0,0-.08.17s0,.08.06.14l0,0s0,0,0,0,0,0,0,.09,0,0-.2,0h0c-.11,0-.07,0-.13-.06s-.08,0-.12,0,0,.11,0,.17.08,0,.23,0h0c.17,0,.11,0,.19,0h.07a.43.43,0,0,0,.13-.05c.07-.06,0-.06,0-.16S47,146.34,47.07,146.27Z"/><path class="cls-1" d="M48.18,146.32s0,0,.06-.07,0-.19,0-.19.06-.05-.13,0-.1.23-.29.09l0,0-.1-.09s-.06,0-.13,0a.36.36,0,0,1,0,.09c0,.07,0,.1-.08.11s-.13,0-.15.08v0s.1,0,.17,0,0,0,.06.07h0a.48.48,0,0,0,.16.08l.1,0s.09,0,.09,0-.1-.14,0-.16l.16,0C48.13,146.36,48.16,146.36,48.18,146.32Z"/><path class="cls-1" d="M46.58,143.78c0,.13,0,.17,0,.19l0,0c0,.05-.17,0-.31,0h0c-.11,0-.06,0,0,.09h0c0,.05.08,0,.37.06h.28l.12,0c.1,0,.12,0,.14.06a.08.08,0,0,0,.06.05.16.16,0,0,0,.13,0l.17,0,.06,0c.13,0,.07,0,.11-.12a.08.08,0,0,1,.07,0h.1l.28,0c.25,0,.18,0,.08.15s-.09,0,.08.06h.06c.08,0,0,0,.07,0a.11.11,0,0,0,0-.1v-.12s0-.06-.12-.09l-.07,0c-.19-.07-.08,0-.23,0a.41.41,0,0,0-.2,0l-.1,0h0a.19.19,0,0,1-.18,0l0,0s0-.06,0-.06h0a.47.47,0,0,0,0-.24s0,0,0,0-.12,0-.15.08,0,.05-.07.18,0,0,0,0a.21.21,0,0,1-.16.09h0c-.06,0-.17-.06-.18-.11s.05-.1.12-.14a.15.15,0,0,1,.06,0l.09-.07c.12-.08,0-.08,0-.12a0,0,0,0,0-.05,0c-.07,0-.17.06-.17.12s-.06.12-.09.11l0,0a.39.39,0,0,0-.14-.15C46.58,143.49,46.59,143.58,46.58,143.78Z"/><path class="cls-1" d="M49.12,144c0,.08-.08.12-.1.1S49,144,49,144l-.09,0a.08.08,0,0,0-.09,0c-.05.06-.13,0-.05.1s.09.07.12.11h0s.12,0,.18,0,.07.05.07.1.1,0,.11.08-.06,0,0,.06a.12.12,0,0,0,.07,0s.05,0,.05,0,0-.06,0-.07.08,0,.08,0,0-.1,0-.11,0,.08.13,0,0-.15,0-.15-.14.1-.15,0-.09-.16,0-.17.16-.05.19,0,0,.06,0,.08.12,0,.12,0a.07.07,0,0,1,0-.06h0s.06,0,.05,0,0-.07,0-.09l0,0a.06.06,0,0,1,0-.07s0-.12,0-.1-.1,0-.11,0,.1.12,0,.13-.14.07-.19,0a.7.7,0,0,1-.08-.12H49.3s-.1,0-.1,0,0,.06,0,.11.11,0,.07.08-.09,0-.12.05S49.14,143.87,49.12,144Z"/><path class="cls-1" d="M45.4,151.36h-.21c-.08,0-.13-.11-.1,0s0,.18.1.16l.15,0h.19s.09,0,.09,0a.27.27,0,0,0,0-.13s-.08-.07-.09-.1,0-.07,0,0h0C45.42,151.3,45.54,151.34,45.4,151.36Z"/><path class="cls-1" d="M46.26,152.65a.18.18,0,0,1-.08,0h0c0,.06,0,0,0,.1a.46.46,0,0,1,0,.17s-.07.06,0,.08h0c.13,0,.12.05.19,0s.13,0,.08-.11-.07-.09-.07-.15.06-.07,0-.11S46.3,152.62,46.26,152.65Z"/><path class="cls-1" d="M44.73,149.47c.15,0,.15.09.18,0s.05-.05,0-.17a.36.36,0,0,0-.07-.15c-.15,0-.13,0-.18,0h0c-.08,0-.1-.1-.15-.06s-.13,0-.14.09-.12.13,0,.24a.67.67,0,0,0,.28.13Z"/><path class="cls-1" d="M60.35,171.49c0-.17.08-.19,0-.28s0-.14-.08-.13l-.06,0a3,3,0,0,0-.24.26.05.05,0,0,1-.05,0s0,0,0,.07,0,.1,0,.17l0,0c.1.09,0,0,.15.13s.09.16.19.08.16,0,.11-.16S60.32,171.66,60.35,171.49Z"/><path class="cls-1" d="M56.56,170.71c0-.14,0-.25,0-.29s.05-.07-.08-.06h0c-.15,0-.14-.06-.21,0l-.08.08c0,.06-.08.11,0,.16h0c.11.06.23.07.24.16s-.11.06,0,.14h0c.12.06.09.06.2.07s.17,0,.1-.08S56.56,170.84,56.56,170.71Z"/><path class="cls-1" d="M57.74,170.28v0s.07,0,.19.13.1,0,.25,0,.19,0,.24,0l.16,0c.08,0,0-.09-.1-.13a2,2,0,0,1-.21,0,.92.92,0,0,0-.35-.09c-.24,0-.12,0-.17.12A0,0,0,0,0,57.74,170.28Z"/><path class="cls-1" d="M56.16,169.65s0-.06,0-.08a.13.13,0,0,0,0,0s0,0,0-.08a2,2,0,0,0-.38,0h-.2c-.36,0-.07,0,0,.16s.1.08.21.15h0c.1.05.19,0,.38,0l.08,0S56.18,169.67,56.16,169.65Z"/><path class="cls-1" d="M57.29,170.2c0-.13-.06-.1-.15-.16s-.14-.06-.2-.16l-.1-.18a.14.14,0,0,1-.07,0c-.05,0-.1,0-.13.11s0,.06-.13.07h0a1.11,1.11,0,0,0-.25,0,.06.06,0,0,0-.06,0,.17.17,0,0,0,0,.14l0,0c.05.06.11.05.28.05h0c.17,0,.08-.09.14-.11s.29.25.31.32.1.07.29.09S57.32,170.33,57.29,170.2Z"/><path class="cls-1" d="M54.26,166.35c.06-.07-.07-.15-.16-.17a.11.11,0,0,0-.06,0s-.08.09-.14.14h0s0,.06,0,.11l.11.11,0,.05c.07.09.09.09.1.13s-.07.09-.09.14,0,.12.06.18.17.07.3.07a.83.83,0,0,1,.09-.11h0a.17.17,0,0,0,0-.1,1.07,1.07,0,0,0-.1-.23c-.08-.15-.11,0-.21-.17S54.2,166.42,54.26,166.35Z"/><path class="cls-1" d="M56,169.94a.41.41,0,0,1-.25.05l-.16-.06c-.1,0-.22-.05-.17,0s.12.11.13.18-.12,0,0,.12a.55.55,0,0,0,.19.09c.1,0,.18,0,.21,0s0-.09,0-.13a.35.35,0,0,0,.1-.19C56.05,170,56,169.91,56,169.94Z"/><path class="cls-1" d="M52,168.29a.12.12,0,0,0-.09-.11c-.06,0-.08,0-.2.09s0,.09,0,.3-.09.09-.19.08h-.08c-.14.05-.06.22,0,.3s.06,0,.09,0a.36.36,0,0,1,.11-.1c.12-.09,0-.06.08-.15s.14-.11.27-.24a.17.17,0,0,0,.06-.06c0-.07,0-.1,0-.12Z"/><path class="cls-1" d="M53.76,168.14c.09-.09.07,0,.12-.07h0S54,168,54,168s0,0-.07,0h-.14l-.13,0c-.12,0-.1,0-.19.08s0,.18,0,.35,0,.13-.08.14l-.27,0c-.28,0-.22,0-.28.06l0,0c-.08,0,0,.07,0,.08h.08l.41,0h.06c.14,0,.06.09.15.14s.12.05.23,0l.1,0,0,0s0,0,0-.05l-.14-.07,0,0c0-.09-.11-.12-.13-.2s0-.1.14-.22Z"/><path class="cls-1" d="M52.57,168.6c0-.12.1-.2.17-.2h.09l.06,0c.1,0,.16,0,.18-.11s0-.13,0-.13H53a.68.68,0,0,1-.15,0,.11.11,0,0,0-.07,0l-.16.09a.25.25,0,0,0-.29,0c-.14.11-.17.07-.18.2s-.19.22.11.24S52.56,168.72,52.57,168.6Z"/><path class="cls-1" d="M54.51,169.88l0,0c-.13-.16-.37-.16-.21-.23s.19-.05.22-.1a.16.16,0,0,0,0-.1h-.1c-.09.06,0,0-.24.12a.38.38,0,0,0-.11.05c-.09,0-.07.09-.14.07a.47.47,0,0,1-.14,0h0a3.34,3.34,0,0,1-.35-.18.85.85,0,0,0-.25-.07,1,1,0,0,1-.3-.08.25.25,0,0,0-.17,0c-.14.07-.24.15-.1.19a1,1,0,0,0,.27,0,2.1,2.1,0,0,1,.38.06l.17,0c.13,0,.14,0,.2.12s.11.15.18.17h.14l.14,0c.11,0,.22,0,.22,0s-.27.16,0,.19h.24c.11,0,.15-.05.14-.09S54.62,170,54.51,169.88Z"/><path class="cls-1" d="M57.62,170.56s-.06,0-.08-.06,0,0,0-.07-.08,0-.16.07,0,0,.1.07.11.12.15.13,0,.05,0,.09,0,.1,0,.13.11,0,.14-.07a0,0,0,0,1,0,0v0a.24.24,0,0,1,0-.09C57.71,170.64,57.69,170.55,57.62,170.56Z"/><path class="cls-1" d="M54.73,164.07s0-.07,0-.14-.12,0-.21,0h-.19s-.06,0,0,.1,0,0,.19,0h0c.08,0,0,.07,0,.1S54.69,164.11,54.73,164.07Z"/><path class="cls-1" d="M58.74,171c-.24-.09-.19,0-.26-.11s0-.07-.12-.16-.08-.16-.2-.14-.19,0-.23.1-.19,0,0,.2a2,2,0,0,0,.44.32.57.57,0,0,1,.21.26s.1.08.1.08l0,0c.15,0,.17.09.23,0s.16-.14.06-.28S59,171.08,58.74,171Z"/><path class="cls-1" d="M46.71,145.47l.11.1c.08,0,.15.05.15-.09s0,0-.06,0l-.09,0C46.71,145.37,46.61,145.35,46.71,145.47Z"/><path class="cls-1" d="M54.87,164.28l.06,0c.07,0,.12,0,.11-.11a.41.41,0,0,0,0-.19.13.13,0,0,0-.07,0l0,0a1,1,0,0,0,0,.17.28.28,0,0,1,0,.15C54.83,164.25,54.79,164.34,54.87,164.28Z"/><path class="cls-1" d="M60.78,171.83s0,0-.08,0-.15.09-.13.23-.1.19.06.15l.15,0a.11.11,0,0,0,.08-.1.46.46,0,0,0-.06-.24Z"/><path class="cls-1" d="M60,171.89s-.16.07-.22.08,0-.06-.11-.14-.24,0-.24,0a.42.42,0,0,1-.13,0c-.08,0-.05,0,0,.16s.06,0,.2,0,.07.05.18.12.12,0,.16,0,.14,0,.19-.07l0,0c0-.08,0-.1,0-.13Z"/><path class="cls-1" d="M61.14,170.34a1.16,1.16,0,0,1-.28.13h-.08c-.07,0-.15,0,0,.09h0a.6.6,0,0,0,.33.07c.1,0,.22,0,.23-.1S61.27,170.26,61.14,170.34Z"/><path class="cls-1" d="M45,156.48c.13,0,0,0,0-.1h0v0a.33.33,0,0,0,.08-.15s0-.25-.07-.21h0a.53.53,0,0,1-.21.06c-.08,0,0,0-.09,0h0c-.14,0-.07,0-.06.11s.06,0,.11.08h0c0,.05,0,.07,0,.1h0c-.06,0,0,0,0,.09h0s.13.06.28,0Z"/><path class="cls-1" d="M47.08,152.57h0c.13,0,0-.12,0-.15h0a.21.21,0,0,1-.1-.15c0-.11,0-.12-.15-.12h-.08c-.14,0-.1,0-.1.1s0,.07,0,.15.06,0,.13,0h0c.07,0,0,.13.05.17S47,152.6,47.08,152.57Z"/><path class="cls-1" d="M44.68,154.34h0a1.15,1.15,0,0,1,.27.1h0c.14.07,0,.11.11.2s.15.05.2.07l.05,0,.07,0c.1,0,.06.06.09.1l0,0a.11.11,0,0,0,.07.06c.08.05.08,0,.21,0h0c.12,0,0-.12,0-.15h0a.28.28,0,0,0-.21,0h-.07a.69.69,0,0,1-.14-.15l0,0a1.93,1.93,0,0,1-.24-.17c-.14-.15,0,0,0-.18a.11.11,0,0,0-.11-.11l-.29,0h0c-.29,0-.1,0-.14.12S44.56,154.3,44.68,154.34Z"/><path class="cls-1" d="M53.76,166.69v0c0-.07-.09,0-.1.09s-.08.19-.18.16,0,0-.09,0h0c-.08,0-.05.08,0,.13a.54.54,0,0,0,.17.08c.19.06.1.09.21.17h0l.14.11.07.1a.27.27,0,0,0,.07.08c.08.08.19.11.18.07a1.81,1.81,0,0,0-.06-.2.27.27,0,0,0,0-.2.24.24,0,0,0-.08-.09.86.86,0,0,1-.14-.13l0-.05c-.08-.12-.06-.12,0-.23Z"/><path class="cls-1" d="M45.94,161.86a.49.49,0,0,1,.16-.21.33.33,0,0,0,.07-.13.3.3,0,0,0,0-.16v0c0-.06-.05-.08,0-.16s0-.18-.06-.19-.16,0-.17,0-.07,0-.07,0,.1.1,0,.17h0c-.15.08-.19-.05-.25.13a.43.43,0,0,1,0,0c-.06.13-.11.15,0,.28l0,.05a1.17,1.17,0,0,1,.08.21.34.34,0,0,0,.16.21h0a.12.12,0,0,0,.12-.05C46,162,45.89,162,45.94,161.86Z"/><path class="cls-1" d="M45.53,160.61c0-.05.08-.11.28-.09h0a.89.89,0,0,0,.35,0,.12.12,0,0,0,.07-.07c0-.1-.12-.14.1-.19l.2-.06c.06,0,.07-.06,0-.13s0-.12,0-.14-.06,0-.13,0l-.22,0,0,0a.28.28,0,0,1-.15.1c-.12,0-.13,0-.21.1h0c-.09.09-.06.16-.17.1s0-.15-.11-.11h0c-.09,0-.14.07-.16.12s0,0,0,.08,0,.06,0,.07h0l-.05.11c-.1.2-.15.12-.13.27s-.07.39.14.21l0,0c.16-.16.11-.29.16-.34Z"/><path class="cls-1" d="M45.34,158.31h0a.82.82,0,0,0,.18-.11.06.06,0,0,0,0-.08l-.05,0-.14,0a.5.5,0,0,0-.24,0s0,.1,0,.1,0,0,0,.16a.42.42,0,0,1-.06.12.48.48,0,0,0-.06.11c-.05.11-.21.09-.05.2l.11.07c.09,0,.13,0,.14-.07s0-.29.07-.34Z"/><path class="cls-1" d="M47.25,151.81h0s.07,0,.2,0h0c.12,0,0,0,.17,0h0l.06,0a.15.15,0,0,0,0-.12h0a.39.39,0,0,0-.18-.07h0a.29.29,0,0,0-.21,0l-.07.05c-.07,0-.08.06-.12,0l0,0a.22.22,0,0,0-.19,0h0s0,0,0,.07a.25.25,0,0,1,0,.09c0,.07.14.07.22.06h0C47.2,151.93,47.23,151.84,47.25,151.81Z"/><path class="cls-1" d="M44.93,152.17a1.31,1.31,0,0,0-.25,0,.05.05,0,0,0,0,0,.13.13,0,0,0,0,.11l0,0a.29.29,0,0,0,.1.12c.06,0,.09,0,.1.12a.17.17,0,0,0,.1.13l.08.06c.07.06,0,0,0,.13s-.07.1.09.12.11,0,.14,0,0,0,0-.1,0-.13,0-.17h0c-.06,0,0,.06-.1-.07s-.09-.09-.09-.2,0-.08,0-.19-.07-.14-.16-.14Z"/><path class="cls-1" d="M46,151.52l0,0c0,.07,0,.07-.09.16l-.08.08-.08,0c-.11,0-.13,0-.17.07l0,.07s0,.06,0,.08l.07,0h.21a.05.05,0,0,1,0,0c0,.07,0,.16.06.13a.12.12,0,0,0,.09-.16c0-.08-.14,0,0-.13s.09,0,.12-.13.05-.18,0-.23A.08.08,0,0,0,46,151.52Z"/><path class="cls-1" d="M45.51,152.72l0,0a.54.54,0,0,0,.09.12c.06.05.07.05.17,0h0c.1,0,.19,0,.2-.08s.07-.14,0-.15-.15,0-.13-.08.08-.22,0-.25h-.05c-.17,0-.15.07-.19,0s0-.11,0-.14h0s-.12-.09-.18,0a.09.09,0,0,0,0,.06.19.19,0,0,0,0,.19v0l.1.12C45.53,152.63,45.46,152.63,45.51,152.72Z"/><path class="cls-1" d="M44.53,153.46c.06.15,0,0,.15,0H45c.06,0,0,0,.12-.06s.06-.05.08-.05.07.13.08.21,0,0,.08,0a.42.42,0,0,0,.13-.07s0,0,.06,0,0,0,.07-.05.07,0,.16,0h.05s0,0,0,.05a.44.44,0,0,0,.17.1s0,0,.16-.1h0c.1-.06.12,0,.16,0a.58.58,0,0,0,.21.06h0c.08,0,.1-.09.1-.12s-.07,0-.12-.05a.13.13,0,0,1-.09,0c0-.07-.05-.1-.12-.14s-.07,0-.16,0h0c-.11,0,0-.05-.15-.08a.31.31,0,0,0-.19,0l-.1,0c-.1,0-.06.11-.14.1s0,0,0,0a.2.2,0,0,0,0-.08c0-.05-.07,0-.15,0l-.12,0c-.18,0,0,.13-.14.17s-.08,0-.1,0l0-.09c-.06-.1-.13-.08-.26-.08h0l-.15.11c-.12.08,0,0,0,.08S44.47,153.3,44.53,153.46Z"/><path class="cls-1" d="M50.57,167.56c-.2,0,0,.08,0,.13a.83.83,0,0,0,0,.12c0,.1,0,.06-.05.26s.05,0,.16,0,0,0,.07-.11,0,0-.07-.16a.18.18,0,0,1,.07-.24C50.84,167.5,50.62,167.55,50.57,167.56Z"/><path class="cls-1" d="M51.43,167.43s0,0,0,.06h0a0,0,0,0,0,0,.05.42.42,0,0,0,.08.18c.06.07.1.05.19-.13s0-.14,0-.2a.39.39,0,0,0,0-.18c0-.08.07-.12.16-.2l0,0s0,0,0-.14,0-.05,0,0-.05.06-.07.09-.11.15-.16.1.05-.08-.13-.19-.13,0-.16,0l0,.1c-.1.11,0,.11-.15.12s-.09-.07-.18-.22-.07-.08-.1,0a.16.16,0,0,1-.07.07c-.09,0,0,.07,0,.11a.25.25,0,0,0,.06.13.56.56,0,0,0,.11.11c.16.13.1,0,.25.12A.35.35,0,0,1,51.43,167.43Z"/><path class="cls-1" d="M50.54,167.26c0-.1,0,0-.12-.14s0,0,.13-.09,0-.11,0-.17.07-.12.09-.18.09,0,.23,0a.19.19,0,0,0,.09,0s0-.09.09-.19,0-.1-.09-.09h-.07c-.09,0-.15,0-.24,0s-.06,0-.13-.1,0-.05,0-.14.08-.08.09-.11,0-.08,0-.11,0-.06-.17,0-.1.1-.14.14-.07.11-.16.14,0,0,0-.13,0-.15-.17-.19,0,.08-.07.19a.1.1,0,0,1,0,.06.07.07,0,0,1-.09-.08c0-.09,0-.08,0-.15s-.23-.13-.35-.15-.09,0-.1.12,0,.07.09.15a.24.24,0,0,1,0,.12s0,.14-.08.14l-.1,0-.2,0c-.19,0-.09.1-.11.19a2.43,2.43,0,0,0,0,.42c0,.16-.06.15-.17.25h0c-.1.1,0,.13,0,.21a.05.05,0,0,0,0,0s.15,0,.31-.05.07-.07.13-.25v0a.67.67,0,0,1,.11-.24c.07-.1.17,0,.39-.1l0,0c.17-.08.11-.06.19-.07s.12.06.19.17,0,.11-.17.14,0,.17,0,.22a.72.72,0,0,0,.17.2.45.45,0,0,0,.27.13C50.67,167.46,50.54,167.35,50.54,167.26Z"/><path class="cls-1" d="M52.83,167.65s0,0,0,.06-.05.23,0,.28l.1,0a.33.33,0,0,0,.31-.21.68.68,0,0,0,0-.24s-.12-.06,0-.06h.08c.1,0,.09,0,0-.06l0,0s-.05-.07-.09-.09h-.13c0,.1,0,.14-.07.23S52.88,167.56,52.83,167.65Z"/><path class="cls-1" d="M52.83,167.12c-.12,0-.13.17-.2.17a.14.14,0,0,1-.1-.09c0-.06-.15-.12-.17-.12s-.1,0-.14,0,0,.07,0,.17-.06,0-.17.15l-.09.08c-.06.06-.09.11,0,.14h0c.17,0,.22,0,.3-.09s.17-.28.25-.18,0,.05,0,.17.23,0,.24,0l0-.17v-.06c0-.09.07-.17,0-.18Z"/><path class="cls-1" d="M46.41,162.6c.05-.07,0-.19,0-.19s-.07-.07-.11,0,0,.09-.08.12l0,0c-.06,0-.06.05-.11,0s0-.15-.09-.12l-.06,0c0,.07-.07,0,0,.12s0,.13.13.15h.14a.26.26,0,0,0,.1,0C46.36,162.67,46.36,162.68,46.41,162.6Z"/><path class="cls-1" d="M48.58,166l-.06,0s0,0-.07,0h-.07s0,0-.1,0l-.06,0c-.08,0,0,.06.06.1l.12.06,0,0c.15.09.07.15.09.21s0,0,0,0,.06,0,.15,0,0-.06.06-.13.09,0,.07-.18S48.69,166.06,48.58,166Z"/><path class="cls-1" d="M48,164.73c.1.05.13,0,.18.14a.52.52,0,0,0,.15.15l.12.09.12.08.09.06a1,1,0,0,1,.25,0,.13.13,0,0,1,.09.05c.06.09.16.06.12,0s0-.1-.21-.2h0c-.17-.1-.27-.12-.33-.26h0a.39.39,0,0,0-.12-.19.34.34,0,0,0-.12-.06,1,1,0,0,0-.19,0,1.58,1.58,0,0,0-.31,0h-.1a.42.42,0,0,1-.13,0,.1.1,0,0,0,0,0l-.15-.13-.08,0-.19,0H47a.58.58,0,0,1-.19-.05.38.38,0,0,1-.08-.09c-.06-.07-.12-.2-.2-.24h0c-.17-.05-.32-.19-.13.17.1.19.07.27.15.32l.17.07.11,0c.16,0,.23,0,.26.07s0,0,0,0-.05.15.17.14h.51A.37.37,0,0,1,48,164.73Z"/><path class="cls-1" d="M47.41,165l-.1,0,0,0a.12.12,0,0,0-.06.08c0,.07-.12.07-.09.13s.06.06.09.1l.06,0s.13,0,.14,0,0-.11,0-.15a.12.12,0,0,0,0-.05s0-.1,0-.12h0S47.45,165,47.41,165Z"/><path class="cls-1" d="M48.22,165.8a.44.44,0,0,0-.17-.12s0-.1-.07-.12-.08,0-.1,0,0,0,0,0a.17.17,0,0,1-.06.11s0,0,0,.08,0,.08,0,.09v0l.07,0c.12,0,.18,0,.21,0a.13.13,0,0,1,.11,0S48.26,165.87,48.22,165.8Z"/><path class="cls-1" d="M46.69,156.35l-.15-.07s-.06,0,0-.07,0,0,0-.1l0,0a.3.3,0,0,0,.05-.2s0-.06-.05-.08a.08.08,0,0,1,0-.14l0,0c.15-.11.2,0,.17-.32s-.06-.52-.06-.52-.14-.19-.1-.25a.24.24,0,0,0,.06-.22.3.3,0,0,0-.1-.15l0,0c-.08-.07-.16-.06-.17-.23s0-.2,0-.2,0-.08-.08-.06h-.06a.1.1,0,0,0-.07.11c0,.05-.11,0-.21,0l-.08,0a.13.13,0,0,0,0,.2l0,0c.08.09.2.08.22.17s0,.16-.05.23a.56.56,0,0,0,.05.2s0,.24,0,.3-.17,0-.19.06a0,0,0,0,0,0,0v0a.89.89,0,0,0,.21.22s0,.1.06.09l.09,0,.12-.07s.12-.16.14,0,.09.17,0,.21-.2-.06-.23,0l0,.09a.22.22,0,0,0,0,.14l0,0c.06.1.18.16.11.21a.61.61,0,0,1-.13,0s-.07,0-.08,0a.2.2,0,0,0,0,.11s-.11,0-.1.1.14.1.2.12h0c.06,0,.09,0,.07.09a.13.13,0,0,1-.07.09.08.08,0,0,1-.09,0,.43.43,0,0,0-.15,0s-.12.17,0,.2a.42.42,0,0,0,.27,0h0a.75.75,0,0,1,.37,0h0c.07,0,.11.18.2,0a.94.94,0,0,1,.08-.15.11.11,0,0,0,0-.12s0,0,0,0S46.85,156.42,46.69,156.35Z"/><path class="cls-1" d="M45.53,144.29a.3.3,0,0,0-.1.22c0,.06-.14.08,0,.1h.06c.12,0,.13,0,.1,0s.07-.24,0-.29A.1.1,0,0,0,45.53,144.29Z"/><path class="cls-1" d="M46.94,144.46l.14.1.11.1a.31.31,0,0,0,.08.11h0s.1,0,.15,0,0-.12,0-.15l-.12,0-.11,0-.08-.05s0-.06-.11-.12a.19.19,0,0,0-.15-.05l-.1,0s0,0,.1.05A.34.34,0,0,1,46.94,144.46Z"/><path class="cls-1" d="M47.27,145.41a.13.13,0,0,1,.07,0c.08,0,0-.07.14-.13h0c.08,0,0,.07.06.15a.14.14,0,0,0,.12.11l.1,0a1,1,0,0,0,.35-.07c.15-.05,0-.11,0-.16a1.18,1.18,0,0,0-.11-.46.27.27,0,0,0-.24-.09h-.1c-.07,0-.11.07-.18.14a.76.76,0,0,1-.23.15h0c-.29.11-.11.15-.14.32S47.18,145.45,47.27,145.41Z"/><path class="cls-1" d="M45.68,146.94c-.1,0-.08-.16-.11,0s-.06,0,0,.16a.23.23,0,0,1,0,.23,0,0,0,0,0,0,.06.3.3,0,0,0,.08.07c.06,0,.08.09.15.07l.05,0a.41.41,0,0,0,.1-.09l.11-.07c.1-.07.11-.11.15-.25h0a.31.31,0,0,0,0-.2h0c-.08,0-.15,0-.16.08s.06.21-.1.13a.21.21,0,0,1-.1-.06Z"/><path class="cls-1" d="M46.29,141.46a.37.37,0,0,1-.12,0l-.11,0c-.14,0-.09,0-.16.07s0,.09.07.16,0,0,.09.09a.1.1,0,0,0,.11,0l.11-.05c.09,0,0,0,.08-.09a.15.15,0,0,0,.1-.06c0-.06,0,0,0-.05S46.4,141.47,46.29,141.46Z"/><path class="cls-1" d="M67.08,138.09c-.21-.07-.17,0-.34.1s-.13.08-.15.11a.14.14,0,0,1-.07.06c-.11.08-.17,0-.35.06,0,0-.16,0-.17.07s0,.07.2,0,.2,0,.35.12a.08.08,0,0,1,0,0s0,.07,0,.12l-.12.14c-.09.12-.32,0-.42,0a.24.24,0,0,0-.26,0s0,.17.13.27.09.17.14.28a1.53,1.53,0,0,0,.24.39c.08.09.09.08.29.05h.19c.39,0,.18-.1.43-.3s.14-.24.16-.42,0-.19,0-.33a3.23,3.23,0,0,0,.06-.47C67.42,138.08,67.29,138.15,67.08,138.09Z"/><path class="cls-1" d="M63.94,168.83a4.64,4.64,0,0,1-1-.11c-.32-.09-.46-.07-.63-.27s-.63-.37-.8-.5-.08-.11-.23-.22-.28-.21-.57-.45-.37-.06-.54-.15-.07-.06-.24-.29-.28-.2-.45-.45-.37-.3-.41-.45-.09-.05-.14-.22,0-.14-.08-.21-.08-.06-.09-.18-.06-.08-.2-.11a3.17,3.17,0,0,0-.42,0,.29.29,0,0,1-.24-.17c-.06-.1,0-.08.09-.14s.08-.13.11-.22.18-.12.22-.12.11.12.14.17,0,.09.11.07,0,0-.06-.12,0-.06,0-.16-.09-.24-.11-.36-.11-.1-.28-.19a.51.51,0,0,1-.23-.28l0-.08c0-.09-.06-.13-.11-.15a.89.89,0,0,0-.24,0c-.26,0-.31.14-.41.28s-.14.05-.29,0-.07-.1-.19-.15a.27.27,0,0,1-.14-.11.21.21,0,0,0-.06-.08.27.27,0,0,0-.2-.11h-.05c-.08,0-.1.1-.13.15s0,.11-.06.22a.74.74,0,0,1-.14.23c-.06.09-.07.09-.13.1l-.08,0c-.14,0-.06.06-.09.09s-.11,0-.27,0-.18.22-.24.35a.2.2,0,0,1-.09.11.53.53,0,0,1-.33.08h-.09a.33.33,0,0,0-.19.05c-.09,0-.16.4,0,.7a.83.83,0,0,0,.22.3.9.9,0,0,1,.11.1c.08.1.18.06.31,0l.22-.12a1.36,1.36,0,0,0,.54-.32h0c.06-.06.27,0,.46,0l.22,0a.19.19,0,0,1,.09,0c.08.08.05.23,0,.39v.05c0,.11-.16.16-.3.19a1.74,1.74,0,0,1-.44,0h0c-.16,0-.33.23-.65.33l-.12,0s0,.09,0,.16a.86.86,0,0,1,.13.34c.06.38.06.1.29.39a.65.65,0,0,0,.35.28l.3.09.16,0,.31.11.14,0a1,1,0,0,1,.41.2c.14.08.06.11,0,.19s-.15.14-.25.17-.1,0-.2,0-.09.12-.14.23a.89.89,0,0,1-.09.16c-.13.18-.11-.06-.11-.15a.25.25,0,0,1,.09-.21.65.65,0,0,1,.11-.12l.1-.09c.1-.09,0-.12,0-.24a.07.07,0,0,0-.05,0c-.1,0-.27.08-.27.08l0,.05-.08.09c-.06,0-.08,0-.14-.25s-.09-.18-.24-.16h-.2c-.3,0-.1.06-.1.2s.05.09.17.16.08.06.1.11,0,.09-.09.18-.07,0-.17-.05,0-.1-.07-.14-.11-.26-.18-.48,0-.12-.13-.13-.05,0-.1.05v0c-.05,0,0,0,0,.06l.09.07c.11.1,0,0,0,.18s0,.1-.14.08l-.07,0c-.1,0-.07-.07-.21-.23s-.11-.08-.14-.07-.08.07-.16.1,0,.16,0,.32,0,.05.17.09h0a1.25,1.25,0,0,1,.42.2s0,0,0,0,0,0,0,0a1.29,1.29,0,0,1-.4-.12h0c-.16-.07-.13-.11-.32-.21a.19.19,0,0,0-.15,0c-.06,0-.07.09-.11.12s0,.17.11.26h0c.07.08.19,0,.23.07s0,.13-.11.22A.31.31,0,0,1,54,169l-.14.05h0c-.12.05-.07.13,0,.19l0,0a.13.13,0,0,0,.1,0l.17-.12c.13-.09.09-.12.2-.17l.1,0,.2,0-.2.22,0,0c-.05.05,0,.07,0,.09l.35.05.07,0c.19,0,.08-.11.21-.27s0-.15.14-.29.09.13.1.27,0,.18,0,.27.12-.12.15-.22.07-.09.15-.09h.09c.13,0,.11.11.22.27a.33.33,0,0,0,.15.11,1.37,1.37,0,0,0,.31,0h.15c.33,0,.06,0,.32.14s.25,0,.29,0,0-.06-.07-.23,0-.1.11-.09,0,0,0,0,.06.11.1.09,0-.14.08-.25.18,0,.18.08-.14.17-.1.22,0,.1,0,.24,0,.11-.17.11-.08.29.1.33a.61.61,0,0,0,.27,0l.28,0c.24,0,.24-.17.3-.31a1.14,1.14,0,0,0,.07-.22,1.54,1.54,0,0,1,.09-.3c.06-.08.23.11.29.28a.23.23,0,0,1,0,.16c-.08.16,0,.25,0,.38s.11.14.16.16a2.49,2.49,0,0,0,.44.17c.28.07.27,0,.48-.14a.2.2,0,0,1,.13,0c.09,0,.1.18.16.21s.09.12.2.12a.61.61,0,0,0,.27,0l.18-.31,0-.08c.09-.14,0-.12,0-.14l-.06,0c-.1-.07-.1,0-.18-.2s0-.14,0-.2l0,0c0-.11.65.07.9.12s.27.23.3.34v.1c0,.13-.06.31-.06.37s0,.08.2,0A.29.29,0,0,0,62,170h0c0-.09,0-.26.11-.31s.2,0,.37,0l.57-.2c.21-.09.42.17.42.17s.36,0,.46-.17a1.49,1.49,0,0,1,.4-.39c.19-.17.11-.24,0-.35S63.94,168.83,63.94,168.83Z"/><path class="cls-1" d="M66.71,169h-.12a3.27,3.27,0,0,0-.44-.07c-.38,0-.23.07-.32.1s-.13,0-.15,0-.12-.12-.18,0a.53.53,0,0,1-.13.13.37.37,0,0,1-.24.1s-.08.09,0,.13l.16.09c.11.06.09,0,.25,0a.66.66,0,0,0,.2-.06c.15-.06.07,0,.2-.09s.27,0,.41,0a.4.4,0,0,1,.25,0h0c.07,0,.06,0,.1-.06a.88.88,0,0,0,.17-.14s.08-.06,0-.18S66.89,168.94,66.71,169Z"/></g></g></svg>