<svg xmlns="http://www.w3.org/2000/svg" viewBox="0 0 168.86 163.39"><defs><style>.cls-1{fill:#5e6160;}</style></defs><title>africaMiddleEast</title><g id="Layer_2" data-name="Layer 2"><g id="Card_Content" data-name="Card Content"><path class="cls-1" d="M95.53,149.28l.07,0h0Z"/><path class="cls-1" d="M168.63,29.35c-.15-.1-.19,0-.33,0s-.24.11-.37.13-.19-.05-.22-.22,0-.21.11-.33a1.91,1.91,0,0,0,.07-.43.7.7,0,0,0,0-.41,1.09,1.09,0,0,0-.2-.25s0-.21.08-.31a.43.43,0,0,0-.06-.35s-.11,0-.28,0-.12-.15-.25-.27-.12,0-.32-.12-.12-.06-.23-.16-.16,0-.42-.07-.19-.08-.45-.29-.15-.2-.19-.34a2.78,2.78,0,0,0-.31-.65,4.54,4.54,0,0,1-.37-.68,3.41,3.41,0,0,0-.45-.58.27.27,0,0,0-.07-.08l0,0-.08-.07,0,0-.11-.08-.11-.1h0l0,0-.09-.08,0,0a.37.37,0,0,1-.07-.12c-.12-.22.11-.13.19-.22s.32-.32.59-.62.33-.36.49-.55a7.31,7.31,0,0,0,.63-.92c0-.05,0-.06.08-.14a.41.41,0,0,0,.08-.19c0-.1-.08-.13-.11-.28s0-.21-.06-.3-.11-.08-.19-.18-.16,0-.18-.05a1.06,1.06,0,0,1-.47,0,1.23,1.23,0,0,1-.31-.13c-.09-.05-.16,0-.3,0a1.25,1.25,0,0,1-.31,0c-.16,0-.06,0-.15-.14s0-.11,0-.24a2,2,0,0,0-.06-.3,1.12,1.12,0,0,1,0-.36,1.26,1.26,0,0,1,0-.33,1.34,1.34,0,0,1,.09-.24c0-.11,0-.21-.06-.41a2.83,2.83,0,0,1,0-.38c0-.14,0-.1-.1-.19a.67.67,0,0,1-.09-.34c0-.12-.16-.29-.16-.39a.57.57,0,0,0-.06-.27,2,2,0,0,1-.14-.25c-.07-.16,0-.12.16-.23s.23-.3.33-.31.32-.34.21-.38a3.46,3.46,0,0,1-.53-.29c-.25-.17-.12-.07-.14-.33s0-.05.07-.25-.11-.24-.09-.36a4,4,0,0,1,.05-.46c0-.14.12-.07.3-.11s.17-.1.19-.32-.11-.17,0-.32.19-.13.33-.29.11-.2.19-.39a1.67,1.67,0,0,0,.14-.39.63.63,0,0,0,0-.33c0-.1.11-.28.12-.35a1.19,1.19,0,0,1,.11-.28c.06-.13.07-.07.08-.13s0,0,0-.06a.43.43,0,0,0,0-.05V10c0-.14,0-.15,0-.26a1.43,1.43,0,0,0-.17-.43c-.07-.11,0-.2,0-.29s.17-.08.2-.28-.17-.25-.31-.43,0-.25,0-.34a.3.3,0,0,0,0-.29c-.06-.08-.19,0-.39,0h-1.26a.44.44,0,0,1-.16-.09c-.05-.06-.05,0-.05-.15s-.05-.11-.17-.17,0-.15-.13-.26-.14-.1-.22-.19-.08-.09-.19-.11-.41-.2-.45-.21a.93.93,0,0,1-.34-.09c-.15-.08-.13-.12-.24-.16s-.07-.1-.09-.29,0-.23-.16-.32-.1-.08-.25-.2-.14-.07-.4-.15a2.93,2.93,0,0,1-.3-.11c-.09,0-.18,0-.31,0l-.35,0a1.08,1.08,0,0,1-.44.07c-.25,0-.18-.17-.24-.27s-.26-.07-.4-.07-.15-.08-.34-.23-.23-.09-.48-.06a.58.58,0,0,1-.57-.23,1.32,1.32,0,0,1-.1-.38.28.28,0,0,0-.16-.28c-.1,0-.17,0-.27.09s-.07.13-.15.14-.08,0-.17-.11-.23-.06-.44-.09-.15,0-.28.07,0,0-.16-.1-.09,0-.3,0h-.1a0,0,0,0,0,0,0h0v.09a.13.13,0,0,1,0,.06c0,.14,0,.24-.11.3s-.17,0-.24,0-.17,0-.31,0a.81.81,0,0,1-.29,0c-.19-.05-.1-.08-.18-.11a1,1,0,0,0-.31,0,1.42,1.42,0,0,0-.41.08c-.22.05-.15.11-.26.19a.36.36,0,0,1-.27.06c-.11,0-.32.24-.39.32a1.52,1.52,0,0,0-.38.39c-.16.26,0,.13-.08.28s-.1.21-.21.27,0,0-.16.06a3.06,3.06,0,0,1-.57.18c-.54.14-.19.07-.42.08a.33.33,0,0,1-.14,0h-.27l-.12,0a2.6,2.6,0,0,0,.06.3l.06.13.11.23a2.61,2.61,0,0,1,.17.38c0,.13-.15.21-.22.2s0,0-.06-.08l0-.06c-.06-.12-.08,0-.24,0s.1.13.15.22-.18,0-.54-.16-.18-.13-.41-.19-.13.07-.35.15a.71.71,0,0,1-.26.06c-.51.06-.32.15-.7.16s-.44.17-.64.29a2.5,2.5,0,0,1-1.17.13,10.42,10.42,0,0,1-1-.12c-.57-.1-.39-.19-1-.37s-.49-.29-.86-.54a2.28,2.28,0,0,1-.68-.89c-.13-.23-.47-.16-.57-.25s-.52,0-.77,0-.21,0-.44,0-.29-.11-.55-.33l-.05,0c-.19-.17-.06-.14-.13-.33a1.32,1.32,0,0,0-.13-.36c-.12-.23-.09-.23-.08-.3s0-.55-.06-1c-.12,0-.13.05-.25.11s-.1.09-.25.05,0,0-.12-.12-.06-.13-.22-.25-.17,0-.24-.08-.25-.3-.35-.35-.29-.17-.32-.29,0-.1.09-.15.23,0,.37-.06.11-.11.1-.28-.11-.17-.26-.29-.06-.17,0-.26.19-.1.3-.17,0-.17-.13-.29a1.1,1.1,0,0,1-.22-.35.71.71,0,0,0-.26-.28c-.11-.07-.23.06-.36.13s-.25.18-.38.27-.22.12-.43.24-.09.08-.23.16-.13.1-.3.26a2.08,2.08,0,0,1-.37.28c-.23.15-.13.16-.31.3a4,4,0,0,1-.57.42l-.07,0h0l0,0h-.13v0l0,0h0l0,0h0c-.11,0-.31.16-.42.16a.6.6,0,0,1-.19,0h0l-.19,0-.33,0-.28-.15c-.13-.07-.25,0-.35,0a.36.36,0,0,1-.26-.22.66.66,0,0,0-.48-.34c-.34-.08-.18-.23-.32-.4s-.27-.21-.35-.38a3.65,3.65,0,0,0-.32-.54.27.27,0,0,0-.08-.07l0,0-.09,0h0l-.13,0h0a.43.43,0,0,1,0,0s0,0,0,0a.13.13,0,0,1-.07.08.44.44,0,0,0-.18.32c0,.17.2.29-.11.35a4.39,4.39,0,0,1-.61.07c-.12,0-.1.1,0,.31s.15.34.24.54a1.24,1.24,0,0,1,.07.41c0,.13.11.11.11.22a.83.83,0,0,0,0,.28c0,.1.11.21.05.34s-.17.12-.07.21.2,0,.22.13.06.05,0,.25a1.15,1.15,0,0,0-.1.39c0,.1,0,0-.09.18s-.15,0-.06.24,0,.14.21.26.27,0,.36.15.12.09.1.22a2,2,0,0,0,0,.43.34.34,0,0,0,.07.24c.08.08.23,0,.23.14V6a.2.2,0,0,0,0,.07v0a.43.43,0,0,1,0,.05v0s0,0,0,0-.09,0-.18.08-.11,0-.2.11-.33.25-.35.27,0,.15-.11.12-.17,0-.18-.09-.07-.1,0-.17.14-.07.09-.24,0-.15-.1-.2-.09-.15-.19-.15a.4.4,0,0,0-.32.08c-.07.09,0,.15-.14.18a.83.83,0,0,1-.31,0h-.22a1.46,1.46,0,0,1-.39-.12c-.18-.1,0-.06-.27-.15s-.29-.13-.4-.11-.13,0-.21.09,0,.15-.19.06-.06-.14-.24-.12-.27,0-.32.13,0,.1-.19.22-.33.15-.39.1l-.06,0h0l-.06,0,0,0,0,0L125,6c-.08-.06-.12-.1-.21,0s-.07,0-.15.13-.23.09-.29.12,0,0-.09.07-.32.06-.39.1a1.42,1.42,0,0,1-.45.07c-.13,0-.18,0-.3,0a.68.68,0,0,1-.38,0,.73.73,0,0,1-.3-.09,1.26,1.26,0,0,0-.66,0c-.09.05-.12,0-.18.14s-.31.2-.31.2a4.16,4.16,0,0,0-.75.28,2.48,2.48,0,0,1-.86.31,2.75,2.75,0,0,1-.72.08l-1,0a1.09,1.09,0,0,1-.37-.09,1.87,1.87,0,0,1-.37-.23c-.1-.11-.1-.14-.25-.19a1,1,0,0,0-.38-.07c-.16,0-.37,0-.47.09s-.07.13-.2.18-.2,0-.31.08l-.2.16s-.12,0-.31.06a.72.72,0,0,1-.5.08c-.23,0,0,0-.39-.09a1.27,1.27,0,0,1-.49-.21c-.09,0-.29-.19-.4,0s-.26.27-.29.33,0-.21,0,.16,0,.54.14.62.24,0,.09.15-.29.1-.45.2-.12.07-.2.32-.25.21-.34.34-.19,0-.28,0-.23-.16-.33-.14h-.09a.3.3,0,0,0,0,.1c0,.13.06.22,0,.33s-.14,0-.18.2-.14.11,0,.31.22,0,.26.27a3.52,3.52,0,0,0,.12.49c0,.21,0,.18-.07.4s-.27.15,0,.38,0,.53.1.66.2.08.2.11-.05,0-.16.09c-.34.14-.24,0-.39.19s-.24.16-.25.38.09.3,0,.56-.11.22-.23.35-.06.1-.11.37a3,3,0,0,1-.45.83c-.12.15-.36.14-.28.38s.19.09.07.38v0c-.11.27-.15.42-.23.6s-.09.44-.2.56-.16.08-.24.31.07.21-.08.53-.16.17-.21.4,0,.26-.1.35-.11,0-.16.2a.85.85,0,0,0-.09.25l-.08.09a5.9,5.9,0,0,1-.7.79h0a1.68,1.68,0,0,1-.24.21l-.11.09c-.08.06-.17.09-.45.1s-.13,0-.27,0-.33,0-.6.07a.82.82,0,0,1-.33,0,2.53,2.53,0,0,1-.65-.08c-.09,0-.14,0-.43.07s-.17,0-.33-.09-.07-.14-.1-.19a1,1,0,0,0-.33-.19l-.18-.07c-.28-.11-.24-.11-.26-.25s-.12-.21-.38-.3-.17,0-.28,0,0,.09.19.18.07,0,.19,0,.14.13.26.26a3,3,0,0,1,.27.33.83.83,0,0,1-.13.22c-.08.09-.27,0-.27,0s-.14-.17-.16-.21-.18-.15-.25-.28,0-.09-.15-.25-.21,0-.35,0-.36-.23-.36-.23a.69.69,0,0,0,0-.15c0-.09-.09,0-.47,0s-.06.18-.15.2-.23.17-.29.18,0,0-.44,0l-.31,0-.32-.13c-.23-.1-.11,0-.21.07s0,.23-.21.33-.09.1-.14.25-.06.35-.1.42-.24,0-.52,0-.52-.05-.62-.05,0,0-.2.12a.65.65,0,0,0-.16.16,1.44,1.44,0,0,1-.47.18,1.69,1.69,0,0,1-.57,0c-.34,0-.2-.2-.25-.3s-.34-.13-.46-.22-.7,0-.89,0S95,20.58,95,20.5s-.25-.05-.43-.05a3.73,3.73,0,0,1-.47,0,.45.45,0,0,1-.23-.09c-.1-.06,0-.14-.15-.22s0,0-.19-.07-.13-.08-.24-.11-.25,0-.54-.07-.14-.06-.18-.09-.3,0-.54-.08,0,0-.29-.12-.28,0-.49-.07a.41.41,0,0,1-.26-.12,1,1,0,0,0-.34,0,1,1,0,0,1-.37.07c-.07,0-.08,0-.19.16s-.6,0-.71,0-.17-.09-.25-.28v0c-.08-.21,0-.15,0-.3a.93.93,0,0,0-.15-.28c0-.05-.15-.11-.22-.18s-.26-.11-.61-.09-.07.08-.34.09-.2,0-.27,0,0-.05-.22-.05a1.31,1.31,0,0,1-.47-.05s-.07-.17-.12-.25-.16,0-.32,0-.1-.07-.25-.11a2.49,2.49,0,0,0-.6,0,.36.36,0,0,1-.28,0c-.13,0-.1-.12-.14-.19s-.23-.13-.28-.21.07-.16.12-.2a.3.3,0,0,0,.06-.24c0-.09-.15-.16-.23-.23a.78.78,0,0,0-.51-.18c-.32,0-.25,0-.25,0a.8.8,0,0,1-.38-.08c-.23-.1-.07-.09-.12-.13a2.25,2.25,0,0,1-.3-.16c-.07-.08-.27,0-.48,0s-.25-.06-.63-.09-.2.09-.29.15-.18.07-.32.21-.15,0-.45,0-.3.06-.34.13-.4.09-.55.13a1.22,1.22,0,0,0-.58.44c-.17.24-.42.29-.84.46s-.27.34-.54.63.07.91.29,1.39.31.63.29.85a2.79,2.79,0,0,1-.55.93c-.2.26-.53.71-.63.8s-.64.22-1.68,0-.65-.53-.91-.79a4.52,4.52,0,0,0-1.31-.51,1.13,1.13,0,0,0-.51-.45,6.62,6.62,0,0,0-1.47-.35l-1.85-.23a5.22,5.22,0,0,1-1.06-.88c-.74-.73-.14-.73-.18-1a1.69,1.69,0,0,0-.22-.66c-.09-.09-.36,0-.93-.07s-.29-.18-.38-.35-.31-.16-.63-.36-1.24-.2-1.6-.42-.28,0-.73.18-.51.11-1.42,0-.31,0-.76-.26-.17-.25-.5-.31a1.49,1.49,0,0,1-.61-.32.64.64,0,0,0-.16-.1,4.49,4.49,0,0,0-.64-.09H60c-.35-.06,0-.22,0-.47s-.27-.14-.36-.1a1,1,0,0,1-.39,0s-.19-.4-.3-.43-.23.15-.43.12a.44.44,0,0,1-.35-.21c-.11-.13-.4-.09-.45-.3s0-.33-.06-.56.26-.47.4-.57.13-.27.42-.33a1.38,1.38,0,0,0,.66-.49,1.65,1.65,0,0,1,.36-.46.69.69,0,0,0,.26-.53c0-.15,0-.07,0-.13a1.23,1.23,0,0,0,.1-.24.42.42,0,0,0-.12-.39c-.09-.11,0-.14,0-.27s0-.15-.22-.27a1.26,1.26,0,0,1-.38-.32s-.3-.31-.46-.44-.16-.11-.17-.32a.69.69,0,0,1,0-.34c0-.07.06-.11.2-.32s0-.05.1-.11.2,0,.45-.11.14-.13.15-.31,0-.13.08-.25.26-.25.29-.31A1,1,0,0,0,60,6.72c0-.11-.16-.28-.42-.29s-.1.2-.2.3-.37.13-.48.27a1.41,1.41,0,0,1-.4.38c-.14,0-.21,0-.36-.07s0-.07.14-.13.05-.25,0-.38-.22,0-.28-.07-.09-.22,0-.3-.11-.19-.36-.26-.31,0-.31,0,0-.21-.11-.29-.42.08-.54.13a4.61,4.61,0,0,1-.5.12.94.94,0,0,0-.47.23c-.13.13-.32.12-.42.2s-.1.05-.31.05a.34.34,0,0,0-.16,0c-.09,0-.15.16-.36.29S54.3,7,54,6.78s-.19,0-.44.18a1.38,1.38,0,0,1-.36.17c-.11,0-.25,0-.25-.08s0-.27,0-.3-.53,0-.6-.14a.43.43,0,0,0-.18-.15.13.13,0,0,0-.1,0s0,0-.21,0,0-.06-.13-.08-.05.17-.05.24a1.7,1.7,0,0,1,0,.22c0,.07-.09.07-.34.09a.89.89,0,0,1-.41-.07c-.2,0-.32,0-.48-.11s-.09-.21-.39-.32-.23.18-.29.29a.44.44,0,0,1-.3.21,1.09,1.09,0,0,1-.37,0,3.39,3.39,0,0,0-.49,0c-.22,0-.17.45-.74.53s-.54-.14-.7-.41a.6.6,0,0,0-.51-.32c-.21,0-1.27.07-1.52,0s-.33,0-.6.2-.3.14-.45.12-.19,0-.49.09-.06.07-.27,0a3.13,3.13,0,0,0-.4-.06c-.06,0-.54.25-.6.41s-.14.09-.46.07-.12-.07-.53-.11-.07.08-.36.11a5.44,5.44,0,0,1-.87,0c-.72,0-.12.1-.38.13s-.37,0-.59,0a1.51,1.51,0,0,0-.62.33c-.25.15-.29.14-.49.25s-.3,0-.43.19-.24.22-.41.43a4.09,4.09,0,0,0-.36.45c-.07.13-.25,0-.39-.11a.69.69,0,0,0-.71.13c-.14.2-.19.21-.49.19s-.18-.06-.37,0a.64.64,0,0,0-.32.35c-.09.16-.18.15-.47.22s-.44.62-.69.81a1.29,1.29,0,0,1-.71.22,1.49,1.49,0,0,1-.76-.15l-.11,0c-.28-.05-.37.1-.81,0s-.32-.18-.5-.29-.48,0-.65.06a2,2,0,0,1-.72,0c-.22-.07-.12,0-.25.06s-.1,0-.39-.07-.16,0-.39,0-.24.13-.53.12-.11,0-.46-.08-.12,0-.41-.11a.87.87,0,0,1-.36-.19c-.22-.14-.07-.22-.21-.38a4.15,4.15,0,0,0-.43-.4c-.17-.17-.1-.31-.2-.41a.24.24,0,0,0-.29-.07,1.57,1.57,0,0,1-.39.19c-.17.06-.05-.08-.32,0s-.08.11-.23.37-.06.33-.13.56a1.49,1.49,0,0,1-.22.39,4.85,4.85,0,0,1-.26.75,4.07,4.07,0,0,1-.41.61A1.77,1.77,0,0,0,23,13a1.87,1.87,0,0,1-.35.67,2.81,2.81,0,0,1-.72.5,4,4,0,0,0-.67.37c-.54.34-.43.25-1,.27s-.39.05-1,.46-.17.4-.53.63-.47.25-.61.46-.44.35-.51.47a1.44,1.44,0,0,1-.27.39c-.11.09,0,.08,0,.46s0,.24,0,.39a2.16,2.16,0,0,0-.2.41,1,1,0,0,1-.3.5,4.11,4.11,0,0,1-.35.4c-.15.18-.09.25-.27.48s-.07.32-.05.56a7,7,0,0,1,.08.79c0,.15-.12.26,0,.42s.2.11.3.27a.93.93,0,0,1,.13.3,2.56,2.56,0,0,1-.06.44,1.47,1.47,0,0,0-.23.43.61.61,0,0,1-.17.38c-.12.17-.3.32-.43.52a4.58,4.58,0,0,1-.33.48,2.62,2.62,0,0,0-.43.69c0,.14-.26.22-.45.37s-.35.09-.63.24-.23.27-.38.31a.82.82,0,0,0-.43.41c-.06.18-.18.25-.41.37l-.41.2a2.17,2.17,0,0,0-.53.27,1.82,1.82,0,0,1-1,.24c-.49,0,0,0-.23.08s-.16.05-.57.07-.27,0-.38.14a2.57,2.57,0,0,0-.33.56l-.07.15c-.12.24-.1.13-.24.35a10.27,10.27,0,0,0-.41,1.12c-.2.53-.12.24-.22.43s-.37.26-.63.4a3,3,0,0,0-.47.27,2.52,2.52,0,0,1-.37.24c-.29.17-.18.14-.33.38s-.09.3-.1.46-.18.19-.27.36a1.19,1.19,0,0,0-.13.48.35.35,0,0,1-.11.23,1.07,1.07,0,0,0-.1.25c-.05.16,0,.14-.1.3s0,.14,0,.36a1.68,1.68,0,0,0,0,.38.64.64,0,0,1-.08.31c-.06.1,0,.15-.06.34s-.17.12-.23.18-.06,0-.14,0,0,.08-.08.18-.33.24-.45.33-.07,0-.18.16a1.06,1.06,0,0,1-.34.32c-.22.13-.12.07-.24.24s-.06.27-.15.51-.1.07-.18.19,0,.16-.09.21-.13.32-.22.46-.08.07-.11.12a1.12,1.12,0,0,0-.07.45c0,.12-.07.15-.17.3a1,1,0,0,1-.21.25,2.25,2.25,0,0,0-.11.5c-.05.25-.1.11-.1.11s0,.12-.08.27-.08.2-.24.24-.21,0-.3.14-.14.29-.33.43-.17.31-.24.47,0,.19,0,.44,0,.08-.05.39a.56.56,0,0,0,0,.26.71.71,0,0,0,.23.3c.22.2.06.21.17.46a4.62,4.62,0,0,1,.18.49c.05.15.11.39.29.46s.2-.06.25-.2,0-.12.11-.11.09.17.17.39,0,.07,0,.26.09.13.19.21.07.4.07.61a1.09,1.09,0,0,1-.15.47.72.72,0,0,1-.16.26c-.07.11,0,.2.06.24a.47.47,0,0,1,0,.19c0,.09-.07.1-.25.21s-.05.3.14.42.15.16.33.41.05.16.06.42.07.25.14.44a.64.64,0,0,1,0,.45,3.55,3.55,0,0,0,.13.78,2.38,2.38,0,0,1,0,.47,2.81,2.81,0,0,0-.14.75,1.25,1.25,0,0,1-.29.8c-.14.13-.19.52-.3.63a2.36,2.36,0,0,0-.28.65c-.16.38,0,.37,0,.62v.31c0,.11,0,.22,0,.36s-.13.29-.26.72a2.31,2.31,0,0,1-.59.84L1,56a3.57,3.57,0,0,1-.39.38c-.16.11-.1,0-.25.09s-.15,0-.29,0,0,.08,0,.22.25,0,.42,0a.42.42,0,0,1,.23.05A1.11,1.11,0,0,0,1,57a1.32,1.32,0,0,1,.33.37c.16.19.07.14.09.29a1.68,1.68,0,0,0,.08.28c0,.09.12,0,.35,0s.12,0,.19-.09.15-.1.16-.17,0,0,.17,0,.07,0,.11.08.11.11.11.17,0,.06-.25.08-.07.07-.07.07a1.16,1.16,0,0,1-.21.16c-.12.08-.21.09-.34.18s.09.13.09.13a1.14,1.14,0,0,0,.21,0c.06,0,.17-.21.23-.26s0,.13,0,.38,0,.17,0,.22-.11.09-.17.16a.2.2,0,0,0,0,.08c0,.11,0,.15.12.18s0,.12.08.19.08,0,.19,0,.07,0,.1-.05,0,0,0,0,.4,0,.68,0,.17,0,.24-.15.21,0,.28,0a.83.83,0,0,1,.16,0h.19a.81.81,0,0,0,.35,0,.83.83,0,0,1,.31,0c.1,0,0,.06,0,.1s-.12.06-.12.06c-.39,0-.7-.13-1,0s0,.07-.18.09h-.2c-.13,0-.1,0-.22,0s0,.06,0,.1,0,.06,0,.15-.19.09-.2,0-.07-.08-.2-.08-.12.11-.18.2-.21,0-.23-.18-.09-.14-.11-.22-.25-.11-.3-.11-.18.19-.18.19l0,.25s.05.22.06.28h0c0,.06,0,.13-.09.24s.1.33.2.38a.09.09,0,0,0,.14,0,1.62,1.62,0,0,1,.34.19c.17.12.15.11.25.14a1,1,0,0,0,.42,0c.2,0,.08-.09.15-.2a.09.09,0,0,1,.16,0s0,.16.08.2.21.05.34.06a.68.68,0,0,0,.42-.1c.17-.09.05-.12.08-.22s.1-.13.19-.17.2.05.2.12,0,0-.16.07,0,0-.06.18-.07.07-.09.16-.08.09-.27.15-.26,0-.6-.06,0,0-.19-.12-.19,0-.26.08a1.12,1.12,0,0,1-.29.14.86.86,0,0,1-.26,0A1.6,1.6,0,0,1,2,61.29c-.17,0-.1,0-.31.09s0,.35.07.4a.22.22,0,0,0,.12.07L2,62c.15.1.21,0,.33,0s.13,0,.26-.09l.11,0c.22-.07.16-.16.27-.25s.15,0,.22.11,0,.12-.27.18a.42.42,0,0,0-.33.31v0c0,.1,0,.14,0,.21s.08.11.14.22.16,0,.27-.13a.62.62,0,0,1,.3-.12h.15c.15,0,0,.06-.05.13l-.1.07c-.08.06-.18.13-.2.23s.08.11.2.12a.32.32,0,0,1,.09,0A.81.81,0,0,0,4,62.88c.22-.11.13-.14.22-.26s.19-.06.38-.06h.11a1.84,1.84,0,0,1,.46,0h.07c.28,0,.2.16.23.3s0,.16,0,.36-.14.24-.25.23H5.1c-.13,0-.26.06-.42.19l-.1.08a.34.34,0,0,0-.12.3c0,.05,0,.09.12.11a2.35,2.35,0,0,0,.57.06h.06a1,1,0,0,1,.33.32l0,0c.09.1,0,0,.28,0s.09,0,.19,0,.08.15,0,.22a1,1,0,0,1-.28.12A1.08,1.08,0,0,0,6.1,65c.12,0,.12-.14.25-.24s.06.09,0,.22-.07.05-.06.18a1.06,1.06,0,0,1-.06.47c-.06.2.39.45.52.53s.09.08.22.1a.85.85,0,0,0,.46-.06c.17-.06,0,0,0,.18s0,.17,0,.24,0,0,.31.15.13,0,.2,0,.12.07.19.16,0,.27,0,.33-.08.11.1.2.12.09.19.22.06.16.16.22a1.28,1.28,0,0,1,.47.39c.12.21,0,.18-.14.27s0,.15.13.21l0,0a1.11,1.11,0,0,0,.31.15c.15,0,0,.12-.23.12s-.13.05-.36.2.15.31.4.23a1.54,1.54,0,0,0,.35-.13c.13-.07.1.11.1.18a.18.18,0,0,1-.12.2c-.11,0-.08.07-.09.18s0,.18-.14.16-.09,0-.22-.17-.1.07-.06.17a.43.43,0,0,0,.39.31c.23,0,.08.08.17.13a.54.54,0,0,1,.15.22s0,.06.1.2,0,.1,0,.1a.33.33,0,0,0-.21,0c-.13,0-.06.06,0,.09a1.14,1.14,0,0,1,.41.32c.16.16.24,0,.34-.14s0-.08.1-.1.06.13,0,.2a.61.61,0,0,0,0,.3c0,.1.21.13.33.11s.14-.13.19-.18a.32.32,0,0,1,.23-.12c.13,0,0,.17-.06.26a.58.58,0,0,1-.22.16s-.2,0-.26.08.26.2.4.26.42.19.52.22l.41.13c.28.1.2.19.27.36a.72.72,0,0,0,.3.3l.12.06c.07,0,.13.18.29.33a1.3,1.3,0,0,0,.77.23c.33,0,.21.09.26.25s.27.32.31.4.56.1.57.17a1,1,0,0,0,.34.33,1.21,1.21,0,0,1,.43.31c.23.21.21.28.31.38a6.43,6.43,0,0,1,.55.48,3.4,3.4,0,0,0,.56.43c.23.18.33.26.36.36a2.53,2.53,0,0,0,1.14.5c.53.11.23.17.36.27s.27.12.48.27.47.12.69.18a4,4,0,0,0,.66.21.81.81,0,0,0,.44,0c.35-.18.09-.09.37-.33s.25-.12.48-.25a2.32,2.32,0,0,1,.77-.19,1.82,1.82,0,0,0,.69-.25,1.23,1.23,0,0,0,.33-.23c.11-.08.42-.1.51-.16a4.74,4.74,0,0,1,.8-.06c.17,0,0-.16.05-.25s.2,0,.35,0,.45,0,.6.06.11.1.22.1.15-.18.22-.2.08-.09.13-.19.23,0,.33,0a2,2,0,0,0,.4,0c.26,0,.15,0,.26-.06s.2,0,.34,0a.87.87,0,0,0,.47-.15c.1-.08.17-.09.2,0s0,.06.07.19.11.22.16.24l.29.08c.07,0,.3,0,.34-.13a3,3,0,0,1,.15-.38c.05-.07.09-.07.24-.13s0,0,.08.12.05,0,.13.1-.08.1-.21.14-.1.06-.1.24,0,.15.15.15.15-.08.22-.17.13-.15.26-.14.1.07.11.31,0,.14,0,.12H31c.29,0,.33.07.43.18s.59.2.65.31.26.12.33.12a1.56,1.56,0,0,0,.5-.16.8.8,0,0,0,.37-.25,1,1,0,0,1,.3-.25c.14-.07.25,0,.58-.06s.11-.12.28-.23.33,0,.5-.06.18-.09.28-.18.31,0,.5-.23.11-.23.34-.24.25,0,.47-.16a1,1,0,0,0,.47-.34c.1-.16.35,0,.51,0a1.5,1.5,0,0,1,.48,0s0-.08,0-.08l0-.12c0-.07-.13-.16-.13-.16a2.12,2.12,0,0,0-.16-.16c-.09-.06-.14.07-.14.07s-.14,0-.17,0,0-.06,0-.1-.13,0-.26,0,0,0,0-.11.16,0,.38,0,.21,0,.4.12.08,0,.15.12a.24.24,0,0,1,.1.21.76.76,0,0,0,.06.21c0,.06.2,0,.45-.09s.15-.14.15-.25.16-.15.33-.23l.19-.09a1.27,1.27,0,0,1,.56-.16,1.51,1.51,0,0,0,.56-.11l.09,0c.32-.15.21,0,.44,0s.37-.06.92-.11l.36,0a2.92,2.92,0,0,0,.52-.12h.33a2,2,0,0,0,.37,0c.14,0,.14,0,.22-.16s0-.1.31-.26,0,.26.37-.07c.08-.07.06,0,.24-.07s.13.07.12.17-.07.1-.07.1a.25.25,0,0,0,0,.13c0,.08.17.06.22.06a.73.73,0,0,1,.29,0c.21.07.14.08.34.08s.24,0,.42,0,.06,0,.11,0a2.4,2.4,0,0,1,.27.15c.16.09.09.06.14.15s.18.18.3.33.05,0,.15.14a1.1,1.1,0,0,0,.27.21c.18.1.38,0,.48,0a.28.28,0,0,1,.16.13,1.94,1.94,0,0,1-.23.13c-.11,0-.09,0-.26.18s0,.09.31,0l.25,0c.08,0,.15,0,.33.06s.09.09.15.25a.48.48,0,0,1-.08.44c-.08.16-.08.09-.18.14s0,.11,0,.19,0,.13,0,.27a2.18,2.18,0,0,1,0,.26,1,1,0,0,0,.23.5,1.25,1.25,0,0,0,.72.56,2.82,2.82,0,0,1,.36.2c.26.13.12,0,.27,0s0-.22.15-.32,0,0,.07,0,.08.2.22.27.07,0,.22,0,0-.15.09-.29.06,0,.22,0,.15,0,.21-.13-.15-.26-.23-.34,0-.13.24-.23,0,.05,0,.13a.46.46,0,0,0,.06.16l.18,0a1.2,1.2,0,0,0,.19,0,.36.36,0,0,0,.19-.07,2.69,2.69,0,0,0,.2.21.84.84,0,0,0,.21.11,1.23,1.23,0,0,0,.34,0c.1,0,.11-.13.22-.25s.11.14.11.14a1.6,1.6,0,0,1,0,.25c0,.09.16,0,.35,0a4.74,4.74,0,0,0,.48-.09l.41,0c.3,0,.31-.16.23-.43s-.25-.19-.39-.3,0-.13,0-.2.1,0,.2.12.17.08.29.17.16.25.23.47.06.12.09.11.07-.08.11-.11a.91.91,0,0,0,.11-.18s0,.06.28.22.14-.08.25,0,0,0,.2.25,0,.09-.1.17,0,.15,0,.27.06.2.11.34.06.09.26.11.1.09.15.21a.44.44,0,0,0,.25.23c.13.06.18-.14.2-.31s0-.12.16-.17.08.08.14.15.29,0,.3-.15,0,0,.11,0,0,.08-.07.33a1.34,1.34,0,0,0-.07.3,2,2,0,0,0,0,.35c0,.13,0,.25.35.51s.1.12.19.4,0,.15-.11.5,0,.28-.07.45a1.54,1.54,0,0,0-.09.52c0,.11,0,.35,0,.54v.27a1.3,1.3,0,0,1,0,.68c-.1.23-.3.33-.35.43a.88.88,0,0,1-.37.47c-.28.19-.27.13-.3.3s0,.11.36.25.17,0,.3,0,.11,0,.26-.14.13,0,.23.07,0,.19,0,.22a.4.4,0,0,1-.16,0l-.22,0c-.17,0-.08,0-.13.22s.1.26.1.37,0,.4,0,.47a.3.3,0,0,1-.07.2c-.05.07-.05,0-.22,0h0c-.13,0,0-.07,0-.17s0-.1-.07-.18-.13-.11-.23-.14-.15.09-.15.21.11.16.23.3a.36.36,0,0,0,.22.14l.2.06c.25.07.15.13.25.25s.16.09.3,0,.13-.06.18-.07a.14.14,0,0,1,.13.07.28.28,0,0,1-.24.17c-.15,0,0,0-.13,0s0,.2-.07.29-.1,0-.29.08a.76.76,0,0,1-.33,0l-.07,0c-.12,0-.15,0-.26.07s-.06.26-.09.4a3.66,3.66,0,0,1-.26.65c0,.06,0,.14-.13.3s-.12.09-.22.18-.06.11-.1.18a.63.63,0,0,0,0,.31c0,.09.15.19.2.29s0,.18.07.24a.38.38,0,0,0,.33.09c.16,0,.08-.06.15-.15s.11,0,.14,0a.25.25,0,0,1,.06.18c0,.08-.05.06-.2.11s0,0-.13.09,0,.19,0,.27.13,0,.24-.16.14-.09.29-.1h0c.11,0,0,0,0,.2a.13.13,0,0,1,0,.06c0,.1-.09.08-.16.07s-.06.08-.17.13-.13.09-.14.17-.1.1.15.1.17.06.31.19h0c.13.12,0,.15,0,.38a3.22,3.22,0,0,0,.07.42,1.25,1.25,0,0,0,0,.22l.45,0c.24,0,.15,0,.39.06a.55.55,0,0,1,.43.22c.17.14.06.2-.13.27s-.23,0-.47,0,0,.13,0,.13l.51.31c.17.09.2.09.49.47a4.88,4.88,0,0,0,.57.71c.2.18.32.33.71.71a1.41,1.41,0,0,1,.29.4.72.72,0,0,0,.14.24c.17.14.66.36.84.54a6.64,6.64,0,0,1,.69,1.06l.2.35a1.4,1.4,0,0,0,.24.29c.29.32.09.14.23.51s0,.14-.11.41a.34.34,0,0,0,.05.36,1.22,1.22,0,0,1,.12.19.33.33,0,0,0,.27.24,1.21,1.21,0,0,0,.55-.07c.25-.08.14-.08.31-.3s.16.08.16.08a1.26,1.26,0,0,1-.14.21.73.73,0,0,1-.22.21c-.22.1-.13,0-.53,0s-.24,0-.35.1,0,.28.15.64.2.42.4.86.47.23.6.45a4.34,4.34,0,0,1,.31,1.15,2.47,2.47,0,0,0,.43,1,2.37,2.37,0,0,1,.39.91.73.73,0,0,1-.15.62,2.33,2.33,0,0,0-.53.55c-.18.29.15.61.17.85a8.12,8.12,0,0,0,.43,1.4c.09.2.53,1.08.62,1.19a1.6,1.6,0,0,1,.36.8c.13.53.08.36-.07.71a6.44,6.44,0,0,0-.13,1.24,2,2,0,0,1-.65,1.09c-.44.47-.16.11-.62.44s-.18.38-.58.72-.25.35-.65.75,0,.57,0,.78-.23.37-.4.81,0,.38-.14.94a6.91,6.91,0,0,1-.33,1.19,2.89,2.89,0,0,0-.11.51c0,.18-.36.87-.51,1.2a1,1,0,0,0,0,.76,3.13,3.13,0,0,1,0,.75,6.13,6.13,0,0,1-.09.85c0,.12,0,.36-.06.65s-.05.42-.08.65a2.18,2.18,0,0,0,.51,1.45c.29.48.45.51,1,1.06a2.13,2.13,0,0,1,.54,1.51c0,.22.82,1.22.89,1.48s.44.6.49.92a1.84,1.84,0,0,0,.35.7c.13.22.36.67.53.89s.53,1.22.76,1.51a1.61,1.61,0,0,1,.39.67c0,.16.28.39.34.5a2.14,2.14,0,0,1,0,.75c0,.16-.05.1-.13.34s.11.21.17.44,0,.21-.07.4a1.34,1.34,0,0,0,0,.51c0,.24.07.31.1.51s-.09.24-.15.41,0,.32.15.59a2.63,2.63,0,0,0,.24.55,4.66,4.66,0,0,1,.35.71,1.11,1.11,0,0,1,0,.7c0,.18-.08.3.05.4s.06.16.09.3-.06.23-.1.45,0,.23.21.44.1.14.19.36,0,.25.06.53.06.12.21.26,0,.13,0,.32a2,2,0,0,0,0,.58c0,.36.12.2.2.3s0,.5,0,.64a.9.9,0,0,0,.23.51,3.22,3.22,0,0,1,.5.86c0,.21.07.25.37.62s.3.2.53.42a2.63,2.63,0,0,1,.38.48,2.15,2.15,0,0,0,.36.28l.09.07c.19.14.16.26.33.45a2.76,2.76,0,0,1,.35.48c.1.19.28.53.35.69s.38,1.3.43,1.41a2.67,2.67,0,0,1,.25.75c0,.33.16.26.34.52a2.44,2.44,0,0,1,.33.8,2.53,2.53,0,0,0,.49.81,2,2,0,0,0,.49.43,1.33,1.33,0,0,1,.32.74,8.86,8.86,0,0,1,.26,1.43,2.42,2.42,0,0,1,0,.49c0,.14-.16.17-.33.32s-.26.06-.35-.05-.18,0-.37.1-.08.2,0,.3.14.21.27.35a.76.76,0,0,1,.17.28c0,.07.16.4.25.58a1.57,1.57,0,0,0,.26.45c.11.1.07.11.16.23a.88.88,0,0,0,.23.24.31.31,0,0,1,.06.26s-.16,0-.41.14-.06.24,0,.39.11.27.11.34.12.15.18.21.15,0,.16-.1a1.29,1.29,0,0,0,0-.25,1.17,1.17,0,0,0,0-.2c0-.06.05-.06.12-.09l.21-.06h.19a.5.5,0,0,1,0,.29.29.29,0,0,0,.27.32c.15,0,.24-.05.33,0s.07.07.15.15.07,0,.18.08,0,.13.13.33,0,.09.32.13,0,.08.24.28.18.06.4.08.09.18.59.12.15-.18.33-.34.32-.13.45-.26a3,3,0,0,0,.26-.29c.18-.21.07,0,.26,0h.32c.2,0,.24-.11.36-.11a2.45,2.45,0,0,1,.34,0c.3,0,.17.06.42.06s.28-.19.36-.2a5.45,5.45,0,0,0,.62,0c.37-.06.15-.09.22-.21s.17,0,.41-.17.07-.11.34-.2.49,0,.64-.13.19-.05.39-.06.21.11.36.16a2,2,0,0,0,.82.09c.63,0,.32-.2.58-.28s.42.07.64.11a4.64,4.64,0,0,1,.54.09,2.65,2.65,0,0,0,.49.12c.28.06.35.18.55.16a1,1,0,0,0,.55-.24c.14-.13.06-.1.13-.26s.11-.07.48,0,.2.13.24.19.43.07.64,0,0-.14-.08-.21-.1-.2.09-.35a1,1,0,0,1,.57-.28c.29-.05.27,0,.52.09s.15.1.35.16.59-.2,1.25-.41.33-.26.61-.42a4.5,4.5,0,0,0,1-.65,3.21,3.21,0,0,1,.68-.49c.2-.14.08-.28.16-.48a.48.48,0,0,1,.18-.21,3.53,3.53,0,0,1,.64-.35,1.78,1.78,0,0,0,.57-.4c.14-.11,1.12-1.24,1.12-1.24a1.72,1.72,0,0,1,.76-.62c.51-.21.19-.26.41-.38a1.22,1.22,0,0,0,.51-.59,1.51,1.51,0,0,1,.48-.63,2,2,0,0,0,.69-1.14c0-.21,0-.18.17-.31a2.46,2.46,0,0,0,.4-.54c.16-.31.1-.38.3-.65l.6-.81c.14-.16.3-.4.43-.44s.37-.43.52-.49.35-.25.6-.4a1.39,1.39,0,0,0,.48-.44,1.77,1.77,0,0,0,.22-.56c0-.26.16-.27.2-.51a5.22,5.22,0,0,0,.16-.7,1.71,1.71,0,0,1,.18-.61c.12-.28.06-.09.08-.33s.07-.21.23-.41.06-.14.09-.34a1.18,1.18,0,0,0,0-.33v-.16c0-.26.06-.21.06-.32a2.14,2.14,0,0,1,0-.4.9.9,0,0,0,0-.43c0-.2-.09-.19,0-.36s-.14-.12,0-.23.19,0,.28-.05.09-.13.09-.13a.91.91,0,0,0-.37,0c-.16.06-.1.1-.15.3s0,.11,0,.29,0,.1-.27.06-.19-.26-.25-.39-.22-.07-.28-.23.1-.06.29-.1.19-.13.28-.2.11-.27.14-.39a1.35,1.35,0,0,1,.64-.67c.4-.19.25-.14.64-.34s.41-.12.68-.32a1.36,1.36,0,0,1,.87-.29c.39,0,.43-.15.59-.19s.26-.19.56-.22a1,1,0,0,0,.57-.25,4.15,4.15,0,0,0,.54-.48,4.48,4.48,0,0,0,.33-.34c.12-.13.1-.09.15-.16v0a1.87,1.87,0,0,0,.14-.44c.06-.24,0-.3-.11-.4l0,0c-.07,0-.06,0-.18.07s0,0-.06-.12,0-.22,0-.43.08-.24.16-.42a1.41,1.41,0,0,0,.09-.32.76.76,0,0,1,.14-.38.49.49,0,0,0,.24-.28c.08-.18,0-.09-.2-.15s-.1-.08-.13-.13a1.93,1.93,0,0,1,0-.38v-.05a.24.24,0,0,1,0-.12c0-.06.07-.11.23-.29s.08-.08,0-.27-.1-.16-.08-.21a.42.42,0,0,0-.08-.34s0-.05-.06-.05-.12.06-.12.06a.71.71,0,0,0-.09.31c0,.13,0,.23,0,.34s-.07.24-.11.2,0-.18,0-.38.06-.24.06-.44,0-.22,0-.44,0-.24-.17-.43a1,1,0,0,1-.21-.41c0-.15,0-.14-.15-.31s-.08-.18-.07-.41a2.15,2.15,0,0,0-.15-.8c-.14-.5-.21-.22-.37-.35s-.24.05-.27-.27,0-.17.17-.32-.14-.19-.24-.35.11-.14.17-.25,0-.1,0-.22.07-.13.14-.21-.09-.15-.19-.23-.09-.18-.14-.26-.06-.06-.23-.13,0-.07,0-.11.08,0,.2,0,.11.11.21.2.08.15.12.23a.33.33,0,0,0,.28.17c.13,0,.19-.09.21-.25s.09-.1.29-.24a2.31,2.31,0,0,0,.35-.21c.18-.13.06-.06.21-.27s.1-.13.13-.12l.08,0a.37.37,0,0,0,.21-.32c0-.17.19-.2.35-.37s.34-.14.6-.25.14,0,.26-.14l.31-.24c.24-.17.07-.1.17-.3s.35-.17.54-.31,0-.21.1-.36.23-.15.29-.26a.37.37,0,0,0,0-.33c0-.07-.11,0-.17-.08s0-.13,0-.17.17.06.31.09a.45.45,0,0,0,.42-.21.6.6,0,0,1,.22-.3,2,2,0,0,0,.53-.26c.22-.18.46-.12.49-.19a.82.82,0,0,1,.19-.26c.13-.11.32-.08.54-.16s.13,0,.28,0a2.33,2.33,0,0,1,.36-.15,1.64,1.64,0,0,0,.71-.31c.3-.26.31,0,.47-.14s.24-.13.37-.24.35-.13.53-.45.3-.13.41-.2a1.11,1.11,0,0,0,.39-.37c.11-.19,0-.11.14-.27s.07,0,.29-.07.16-.34.16-.44,0-.1.17-.31.16-.12.37-.28.05-.11.15-.35.08-.07.26-.21,0-.07.14-.19a.35.35,0,0,0-.06-.4c-.08-.07-.06-.07,0-.19s.08,0,.22,0,0-.15,0-.29-.07,0-.12-.06,0-.15.06-.26.07.09.24,0,.11-.07.18-.2,0-.09,0-.2-.11-.19-.31-.23-.13,0-.17-.16,0-.11.08-.16.07-.09.07-.25-.11-.11-.11-.11a.37.37,0,0,1-.19-.09c-.12-.09,0-.06.07-.2a.55.55,0,0,0,0-.38c0-.15-.09-.2-.09-.3s0-.18,0-.37,0-.07.06-.18,0-.11-.08-.28,0-.11.08-.28a2,2,0,0,0,0-.35c0-.12-.1-.13-.25-.31s.07-.09.24-.2.07,0,.08-.19a.24.24,0,0,0-.15-.27c-.11-.07,0-.06-.07-.2s.07-.32,0-.4a.7.7,0,0,1,0-.32c0-.24,0-.11,0-.31s-.07-.26-.14-.4,0-.23,0-.45,0-.09,0-.2,0-.2-.11-.38-.07-.06,0-.19.09-.11.17-.22a2.08,2.08,0,0,0,.15-.24c.09-.15,0-.06,0-.15s.08-.06.09-.16a.74.74,0,0,1,.06-.31c.08-.27,0-.19,0-.28s-.12-.16-.15-.27l0,0a1.32,1.32,0,0,0-.13-.27c-.08-.13-.13,0-.37-.11s-.06-.09-.07-.16-.19,0-.42-.07-.07-.12-.12-.25-.14,0-.27,0-.08,0-.09-.19.06-.26-.06-.4l0,0c-.09-.11-.07-.12-.08-.38s-.08-.21-.07-.41,0-.19,0-.36,0-.21-.13-.32a.9.9,0,0,1-.28-.33c-.16-.25,0-.25-.12-.5a1.19,1.19,0,0,0-.1-.16.5.5,0,0,1-.13-.23c-.06-.21,0-.13,0-.23a2.34,2.34,0,0,1,.08-.39h0c.06-.23.17-.24.25-.36s-.2-.37-.25-.43h0a.47.47,0,0,1-.07-.34,5.75,5.75,0,0,0,0-.67c0-.22,0-.2.09-.24a.48.48,0,0,0,.11-.08c.16-.17.2-.14.3-.26s0-.11-.28-.3l-.13-.08c-.13-.08-.13-.09-.23-.31s-.18-.24-.3-.34-.35-.08-.44-.16,0-.33,0-.53,0,0-.23-.37,0-.16,0-.43.12-.1.23-.34.13-.11.21-.41,0-.25.11-.56,0-.13.08-.5.08-.11.2-.39l0-.13a.58.58,0,0,1,.08-.19c.11-.2.11-.11.35-.29s.1,0,.14-.15.12-.32.12-.32a.78.78,0,0,0,.2-.33c0-.19-.09,0-.24-.08s.06-.26.11-.31.25,0,.37-.08,0-.06,0-.11.12-.07.16-.18,0-.11-.08-.13-.09-.2-.06-.24.08,0,.23-.07.07-.23.15-.32a1.62,1.62,0,0,0,.21-.57c0-.24.06-.13.18-.32s0-.32.06-.47.09-.12.19-.28.23-.17.56-.24.21,0,.36-.14,0-.16.09-.26.09,0,.32-.16,0-.13,0-.29.05-.29.09-.38.13,0,.48,0,.3,0,.39-.13.22-.25.4-.47.46-.57.46-.57a3.34,3.34,0,0,0,.42-.62,6.1,6.1,0,0,1,.4-.56,1.93,1.93,0,0,1,.47-.58c.26-.22.26-.17.4-.33s.22-.42.39-.62a6,6,0,0,0,.54-.58c.15-.24.31-.27.51-.44a3.27,3.27,0,0,0,.82-.89c.2-.38.53-.26.69-.4a6.83,6.83,0,0,0,.69-.86,1.13,1.13,0,0,1,.66-.33,2,2,0,0,0,.74-.6,2.16,2.16,0,0,1,1-.72c.67-.3.73-.28,1-.39s.36-.31.64-.51a.91.91,0,0,0,.42-.51c.12-.29.78-.52,1-.65s.35-.69.56-.88a2.92,2.92,0,0,0,.44-.63c.09-.11.71-.46.75-1s.41-.46.69-.71.32-.2.49-.49a7,7,0,0,0,.62-.92c.14-.38.12-.23.54-.71s.24-.25.33-.65a5,5,0,0,1,.16-1.06,8,8,0,0,0,.39-.91c.09-.27.29-.33.54-.6s.16-.42.51-.8.05-.53.22-.75.43-.21.62-.4a2.11,2.11,0,0,0,.32-.91c.06-.25.26-.18.51-.62a3.16,3.16,0,0,1,.31-.51c.17-.2.07-.51.09-.78s.21-1,.2-1.19a.51.51,0,0,1,.07-.39c.09-.14.23-.2.36-.33s0-.19,0-.43.07-.12,0-.44,0-.15,0-.35,0-.19-.06-.42,0-.17,0-.42a.51.51,0,0,1,.25-.39l.06-.06c.13-.13.1-.18-.06-.27l-.1,0a2.86,2.86,0,0,0-.52-.17c-.22-.07-.13,0-.3,0a3.93,3.93,0,0,0-.45.12c-.26.08-.09.17-.15.32s-.27.11-.37.23-.11.14-.19.18-.25,0-.39.06a1.42,1.42,0,0,1-.49.1.93.93,0,0,0-.57.12c-.12.09-.11.17-.33.17a4.27,4.27,0,0,0-.75.22.57.57,0,0,1-.48-.06,2,2,0,0,1-.34-.14.5.5,0,0,0-.52.09c-.13.06-.25.24-.34.26s-.18-.07-.4,0-.44.11-.48.11a4.67,4.67,0,0,0-.53-.09c-.17,0-.27.14-.57.2s-.29.26-.58.37-.3.22-.54.33a.93.93,0,0,1-.75,0c-.35-.12-.44,0-.66,0s-.24-.11-.56-.2-.29.19-.42.26-.43.16-.64.25a8,8,0,0,1-1.73.39,1,1,0,0,1-.43-.09,2.3,2.3,0,0,1-.62-.28,1.6,1.6,0,0,1-.35-.57c-.09-.24-.18-.19-.3-.33s-.18-.14-.21-.55-.24-.19-.38-.33l-.14-.14a1.78,1.78,0,0,0-.31-.19.88.88,0,0,0-.81.09c-.24.1-.13.11-.31.22s-.23.07-.16-.16,0-.12.23-.17.17-.12.23-.16.06-.15.19-.2.25,0,.4-.05.26-.2.32-.24a1.35,1.35,0,0,0,.4-.44.49.49,0,0,0,0-.38c0-.22-.09-.14-.19-.41s0-.14-.24-.33l-.12-.13a1.73,1.73,0,0,0-.15-.27c-.1-.13-.38,0-.5,0s0-.14,0-.26,0-.16-.17-.25a1.83,1.83,0,0,0-.22-.13c-.31-.17-.35,0-.42-.17a1.31,1.31,0,0,1-.11-.57c0-.21-.18-.32-.41-.42a.68.68,0,0,1-.36-.37c-.08-.16-.31-.11-.5-.18a.6.6,0,0,1-.36-.34c-.11-.19,0-.2-.13-.35s-.27-.08-.34-.36a.57.57,0,0,0-.34-.4l-.19-.14s-.67-.24-.71-.37a.87.87,0,0,0-.22-.33c-.17-.19-.21,0-.48,0s-.2,0-.44-.11l-.13-.09c-.08-.09,0-.18,0-.35-.06-.33.12-.18-.36-.47a.41.41,0,0,0-.43,0c-.1.06-.06,0-.29-.07a.45.45,0,0,1-.29-.37,1,1,0,0,0-.11-.31,1.28,1.28,0,0,1-.16-.27c0-.1-.1-.21-.19-.43s0-.13,0-.27,0-.18-.06-.37,0-.32-.07-.43a.67.67,0,0,0-.15-.36c-.1-.08-.08-.32-.08-.38a.67.67,0,0,0-.13-.3.92.92,0,0,1-.09-.44c0-.26-.06-.14-.19-.25s0-.2-.12-.35-.17-.19-.18-.33a1.07,1.07,0,0,0-.11-.33l-.07-.18a.13.13,0,0,1,0-.07c0-.06-.22-.18-.34-.22s-.12-.11-.27-.2-.2,0-.34-.15,0-.12-.15-.27-.16-.11-.31-.2-.2-.17-.35-.35-.11-.2-.25-.27-.2,0-.32,0-.14-.25-.17-.36-.16-.27-.21-.42a.55.55,0,0,1,0-.38.3.3,0,0,0-.06-.33.4.4,0,0,1-.14-.28c0-.15,0-.06.06-.21a.52.52,0,0,0,0-.39c-.06-.1,0-.2-.09-.38s0-.22,0-.37a1.86,1.86,0,0,1,0-.36c0-.12.08-.2,0-.31a.37.37,0,0,1,0-.34c.08-.13.08-.16,0-.26s-.18-.1-.15-.22.12-.06.26-.09.07-.18,0-.29-.3-.25-.42-.41-.06-.29-.15-.44-.21-.2-.35-.41,0-.27,0-.38l.11-.26,0-.16c0-.12-.08-.07-.18-.19s-.25-.12-.48-.2a.39.39,0,0,1-.28-.28,2.07,2.07,0,0,0-.19-.32,3.1,3.1,0,0,1-.2-.34c0-.05-.42-.1-.51-.12a.79.79,0,0,1-.42-.34c-.09-.17-.09-.08-.25-.25a.83.83,0,0,1-.18-.25.84.84,0,0,1-.09-.42c0-.32-.17-.44-.09-.7s0-.33-.1-.58,0-.09.11-.1.2.08.37.07.24,0,.19-.12a3.81,3.81,0,0,0-.46-.44,4.23,4.23,0,0,0-.5-.36.54.54,0,0,1-.32-.54c0-.36-.28-.33-.34-.48a3.19,3.19,0,0,1-.13-.37,2.93,2.93,0,0,0-.13-.43c-.06-.18-.11-.1-.39-.39s-.11-.35-.18-.57-.15-.23-.26-.46a2.32,2.32,0,0,0-.35-.46,1,1,0,0,1-.23-.51c0-.22,0-.23-.23-.45s-.32-.35-.32-.6v-.1c0-.17-.07-.25,0-.37h0c.07-.11,0-.12,0-.24a.19.19,0,0,1,0-.09c0-.21-.19-.09-.25-.22a2.12,2.12,0,0,0-.4-.7c-.3-.37-.14-.26-.17-.46s-.13-.28-.13-.39,0-.15,0-.24a.33.33,0,0,0-.17-.27,1.56,1.56,0,0,0-.35-.2c-.12-.06-.09-.17-.26-.28s-.09-.11-.12-.18a1.49,1.49,0,0,1-.13-.39c0-.1-.08-.09-.16-.14s-.08,0-.12-.13a.43.43,0,0,0-.23-.25c-.13,0,0-.29-.23-.43s-.13-.08-.13-.25.07-.1.09-.27-.06-.1-.06-.31a.36.36,0,0,0-.16-.35c-.1-.09-.31-.12-.4-.21a.66.66,0,0,1-.08-.4c0-.08.12-.12.3-.36s.08-.2.1-.31,0-.1.12-.11.06.09.07.16,0,.14,0,.14l.08.15a1.86,1.86,0,0,1,.1.2c.07.12,0,.22,0,.35s0,.07.05.2.12.11.16.17.15.16.16.22a2.58,2.58,0,0,0,.08.26c0,.07.12.08.21.15s.24.27.31.31,0,.11,0,.31,0,.09,0,.27a1.56,1.56,0,0,0,0,.44c0,.17.11.14.21.21a1,1,0,0,1,.31.34c.09.17.25.23.31.31s.36.19.42.29.11.38.16.47a.35.35,0,0,0,.14.12,1.17,1.17,0,0,0,.38.11c.37.06.19,0,.37-.2a.68.68,0,0,0,.2-.27.88.88,0,0,0,.16-.06c.08-.05,0-.14,0-.26s-.13-.11-.21-.42,0-.08.19-.46a4,4,0,0,0,.24-.71,1,1,0,0,0,.1-.46c0-.44.43-.75.44-1.22v.29c0,.15.12.15.13.22a.83.83,0,0,1,0,.48,3,3,0,0,1-.17.76,4.31,4.31,0,0,0-.32,1c0,.35-.23.61,0,.63s.56-.05.7,0a.91.91,0,0,1,.38.19c.06.08,0,.27.17.44a.52.52,0,0,0,.24.18c.39.19.33.62.43.67s.41.26.42.34a1.3,1.3,0,0,0,0,.36c0,.13.19.19.38.41s.27.24.27.48.35.38.35.45,0,.06.2.4.13.46.25.53.42.15.4.24-.07.18,0,.28.1.11.17.19a.36.36,0,0,1,.08.12,2.34,2.34,0,0,0,.31.47,2.17,2.17,0,0,1,.21.29l.07.1c.15.21.22.15.32.46s0,.24,0,.52-.13.27,0,.54.32.36.37.51,0,.26.26.35a3.69,3.69,0,0,0,.61.11s.34.17.39.27h0c.08.11.31.26.49.46l.1.11.3.35a4.35,4.35,0,0,1,.36.55l.06.09a.83.83,0,0,1,.23.55c0,.2,0,.22.07.33l.1.15c.18.28.28.36.32.53s.12.22.12.41.06.17,0,.37a.69.69,0,0,0-.09.49c0,.12.09.08,0,.3s-.12.12,0,.31a2,2,0,0,1,.14.37c.07.2.1.06.13.35a1.23,1.23,0,0,1,0,.43,1.46,1.46,0,0,0,.11.66c.1.21.08.16.35.32s.4.55.5.67-.15.06.16.25.18.17.49.22.32,0,.55.27.18.36.54.48a1.85,1.85,0,0,0,.32.08c.16,0,.25.05.32.13A1.26,1.26,0,0,1,122,46c0,.1.12.35.19.59a1.83,1.83,0,0,0,.22.52.63.63,0,0,1,.2.47c0,.21.22.5.24.63s-.09.06.14.3l0,0c.2.22.18.44.26.61h0c.1.18.27.23.47.41l0,0,.13.11.32.32c.28.29.34.22.59.57,0,0,0,0,0,.06l.07.1c.09.11,0,0,.15.38s.1.34.28.56l.08.1c.26.33.07.44.37.72s.25.06.27.48c0,0,0,.07,0,.1,0,.27.07.08,0,.5a4.84,4.84,0,0,1-.13.7.48.48,0,0,0-.1.45c.07.25.14.11.06.38s-.15.26.09.48a.59.59,0,0,1,.26.58c0,.31.2.83.19,1.07s0,.12.12.39.08.3.19.51.19.07.25.36a.85.85,0,0,1,0,.46c0,.38,0,.36,0,.64s-.07.27,0,.48.24.17.32.37.16.27.08.39-.21.2-.09.25.18,0,.35-.09.21-.18.42-.06,0,.14.28.18.93.2,1,0,0,0,.21-.23.18-.26.36-.19.1.12.41.12.41.1.46-.1.31-.37.41-.45.29,0,.4-.1.13-.4.29-.48a1.06,1.06,0,0,1,.45-.16,2.44,2.44,0,0,0,.57-.1,3.2,3.2,0,0,1,.86-.05,2.62,2.62,0,0,0,.6-.15,1.21,1.21,0,0,0,.44-.1,2.67,2.67,0,0,1,.63-.06.61.61,0,0,0,.14-.13s.33-.06.4-.18a1.86,1.86,0,0,1,.26-.31.84.84,0,0,1,.32-.27c.17-.07.35-.18.48-.13a1.22,1.22,0,0,0,.41.15,1.85,1.85,0,0,0,.62-.09c.17,0,.15,0,.36-.15s.22-.17.33-.34a1.44,1.44,0,0,1,.43-.42c.21-.16.11-.21.38-.25s.17-.21.58-.3.19-.07.53-.14a4.74,4.74,0,0,1,.68-.1,10.24,10.24,0,0,0,1-.46c.09-.08.39,0,.57-.09s.26-.28.61-.3a4,4,0,0,0,.67,0,1.94,1.94,0,0,0,.52-.33,1.29,1.29,0,0,1,.51-.2c.15-.07.23-.28.4-.31s.22-.11.14-.39-.06,0-.1-.32,0-.34.15-.49,0-.32.42-.46.16-.16.5-.22a1.39,1.39,0,0,0,.55-.23l.26-.07-.17-.38.47.25a.79.79,0,0,1,.52-.17c.23,0,.21-.05.61-.22a6.52,6.52,0,0,1,.63-.23,1.1,1.1,0,0,1,.61,0c.34.05.32,0,.59,0a.78.78,0,0,0,.84-.06,2.18,2.18,0,0,0,.43-.68c.08-.19,0-.2,0-.37s0-.22.17-.29.09-.3.26-.42-.16-.18.44-.17l.5,0a1.78,1.78,0,0,1,.39,0,1.15,1.15,0,0,0,.57,0c.16-.07.24-.32.32-.44s.16-.06.2-.19a2.68,2.68,0,0,0,0-.42.4.4,0,0,1,.2-.29,2.76,2.76,0,0,1,.3-.42c.2-.18.2-.32.6-.27a7.26,7.26,0,0,0,.81,0c.34,0,.64,0,.64-.15a1.75,1.75,0,0,0-.16-.53,1.3,1.3,0,0,1-.07-.63c0-.11-.1-.25,0-.43s.14-.28.16-.4a2.28,2.28,0,0,0,0-.37.85.85,0,0,1,.14-.44.49.49,0,0,0,.17-.24c.08-.16,0-.19.17-.27s.4-.41.39-.26a1.13,1.13,0,0,1-.06.36s-.26.15,0,.16.35,0,.37,0,.14.15.19.1.24-.28.23-.36a.54.54,0,0,1,0-.28c0-.13-.07-.1.14-.32a1,1,0,0,0,.21-.28.76.76,0,0,1,0-.11c.07-.13,0-.12.18-.23s.09-.26.22-.33a1.24,1.24,0,0,0,.31-.2c.13-.14.09-.24.15-.28s.21,0,.28-.06,0-.12.1-.2a.35.35,0,0,0,.19-.3c0-.12,0-.22.06-.27l.25-.18a1,1,0,0,0,.15-.29c0-.08,0-.13,0-.19l.15-.16s0,0,0-.06.07-.08.05-.17-.12,0,0-.15.17-.29.06-.38-.11-.2-.16-.09,0,.16-.1.11-.1-.13-.17-.15,0,0-.17,0-.13,0-.18-.12,0-.11-.14-.2-.2-.09-.27-.23-.08-.2-.12-.26l-.06-.06a2.81,2.81,0,0,1-.27-.26c-.05-.08-.18-.17-.18-.29a.29.29,0,0,0-.16-.25c-.07,0-.11-.11-.2-.28a.55.55,0,0,1,0-.13c0-.08-.06-.13-.25-.14a3.25,3.25,0,0,0-.58-.08c-.18,0-.34,0-.36-.09s-.2-.16-.26-.16.07-.06-.1,0-.22.09-.34,0-.11-.18-.21-.18a2,2,0,0,1-.29,0c-.18,0-.18,0-.26-.09s-.09-.11-.16-.1-.05.08-.19,0a1.18,1.18,0,0,0-.33-.13c-.11,0-.11-.13-.16-.16a1.36,1.36,0,0,1-.18-.12,1.85,1.85,0,0,1-.35-.39,2.8,2.8,0,0,0-.14-.25.62.62,0,0,0-.19-.21c-.14-.12-.2-.14-.21-.27s-.13-.18-.17-.3-.14-.23-.14-.29a2,2,0,0,0-.08-.31.25.25,0,0,1,0-.07c0-.08-.09-.16-.08-.32l-.26,0c-.25,0-.13,0-.21-.28s0-.11.24-.18l.21-.07a1,1,0,0,0,0-.37c0-.09-.07-.11-.09-.17a1.21,1.21,0,0,1-.33-.12c-.19-.11.08-.17,0-.44s-.06-.22,0-.43a1.51,1.51,0,0,0,0-.43c-.1,0-.18,0-.23.12a.82.82,0,0,0-.06.38c0,.22.12.24,0,.33s-.21,0-.33.14,0,.2-.14.26a.65.65,0,0,0-.22.11c-.12.09-.11.15-.2.21s-.17.16-.39.35-.41.17-.36.36-.23.23-.33.3a.59.59,0,0,0-.2.3c0,.13-.36.08-.46.22s-.16.13-.25.31,0,.28-.15.45-.18.18-.27.3,0,.07-.19.2-.11.18-.34.21-.17.07-.4.14,0,.06-.35.08-.29-.12-.43,0-.1.16-.35.11.09-.24-.24-.19-.46,0-.42-.07,0-.12.1-.14a1.44,1.44,0,0,0,.32-.17l-.09,0s0-.07-.08,0-.14.09-.19.09-.12-.07-.12-.07-.23,0-.16,0a.19.19,0,0,1,.1.17c0,.09,0,.12-.07.13a.64.64,0,0,1-.27,0c-.1,0-.3.07-.47,0s-.23,0-.2-.14.09-.27.09-.27-.19-.08-.22,0,.07.27,0,.36a1.59,1.59,0,0,1-.36.3c-.14.08,0,.09-.24.09s0,.13-.34.08-.31,0-.44-.17a1.75,1.75,0,0,1-.27-.44c0-.06,0-.11-.17-.1s-.17-.22-.28-.18a.66.66,0,0,1-.27,0c-.08,0-.32,0-.11-.18s.18,0,.24-.21a.88.88,0,0,0,.06-.17,1,1,0,0,0,0-.2c0-.15-.09-.23.11-.33s.4-.24.39-.09-.08.23,0,.2a.16.16,0,0,0,.12-.2c0-.07,0-.14-.12-.18s-.23.07-.25,0-.05,0,0-.24.06-.35-.1-.51-.29,0-.24-.25,0-.24.14-.34a.34.34,0,0,0,.14-.31c0-.1.08-.21-.06-.34s-.17,0-.24-.14a.53.53,0,0,1-.1-.31c0-.07-.2-.31-.2-.31a.3.3,0,0,0-.26.13c-.08.14,0,.14-.15.28s-.2.1-.3.23,0,.2,0,.31,0,0,0,.06-.07.07-.18.22.07.09-.14.3a.54.54,0,0,1-.18.14c-.07,0-.08,0,0,.16l0,0c.09.17.09.1.1.4s0,.17.08.43.3.46.19.47-.13.06-.18,0a.19.19,0,0,1-.08-.08c-.09-.15,0-.21-.14-.45s-.45-.43-.46-.64a.85.85,0,0,0-.1-.51c-.12-.19-.24-.27-.3-.4s-.22-.28-.26-.42-.1-.19-.2-.21l-.12,0s-.09-.17,0-.23.24-.11.28,0-.06.12,0,.14.14.06.16-.14.1-.18.12-.32a1.86,1.86,0,0,1,0-.2s0-.22-.16-.25-.14,0-.25-.07a.4.4,0,0,1-.17-.26c0-.11.09-.16.15-.07s.13.21.18.1.09-.15,0-.26a1.2,1.2,0,0,0-.33-.25.74.74,0,0,1-.35-.21c-.15-.15-.24-.1-.43-.33s-.15-.22-.26-.28-.25-.28-.38-.32-.28,0-.32-.17,0-.26-.11-.29-.34-.06-.44-.1-.15.06-.16-.16,0-.22,0-.4a.44.44,0,0,0-.21-.42c-.23-.16-.28-.18-.29-.33s-.13-.29-.14-.38,0-.11,0-.27,0-.13,0-.17,0-.06-.15-.11a.53.53,0,0,1-.25-.16.14.14,0,0,1,0-.11l0,0a.15.15,0,0,0,0-.18l0-.05c0-.1,0-.07-.19-.22a.53.53,0,0,1-.2-.41,1.13,1.13,0,0,0-.1-.4c-.06-.12,0-.17-.14-.17s-.21-.14-.22,0a.17.17,0,0,1-.25.13c-.12-.07,0-.16-.12-.15s-.1-.09,0-.13.16,0,.21-.06-.08-.13,0-.18.07-.12.15-.1,0-.14.15-.08,0,.09.24.16.29.05.26,0a.39.39,0,0,0-.11-.2.84.84,0,0,0-.19-.19c-.1-.07,0-.17,0-.32s.26-.28.34-.12,0,0,.19,0h.12a1.16,1.16,0,0,0,.42,0c.1,0,.17,0,.17-.1s.05-.19.23-.17.36.08.37,0,0-.23,0-.28-.14-.08-.14-.16-.06-.21,0-.23.11-.06.17-.21,0-.18.14-.2h.09c.11,0,.19-.08.3,0s.13.32,0,.36-.12.29-.12.29-.13,0,0,.07a.63.63,0,0,0,.29.08c.08,0,.09-.12.22,0s0,.18.12.3.24.19.3.1-.15-.2.14-.33.4-.21.49-.2.25-.09.28.07a2.12,2.12,0,0,1,.08.41c0,.14-.18.14.05.3s.19.1.28.3a.72.72,0,0,0,.35.32.69.69,0,0,1,.32.38c0,.17-.25.23,0,.38s.12.22.25.27.36,0,.39.1.11.22,0,.31-.35,0-.21.21.22.12.39.27a.68.68,0,0,1,.23.45.68.68,0,0,0,.11.3c.06.12,0,.3,0,.35s.28,0,.37.23.05.35.23.51,0,.08.25.17.09.16.37.16.17-.12.41,0,.38.11.42.2.09.08.26.09.11-.14.34.09.12.34.32.42.38.13.37.27,0,.18.17.21.12-.14.23.05.15.27.31.29.2,0,.34.05a.46.46,0,0,1,.07.07c.05.08,0,.16.11.15s.1-.12.22,0,.17,0,.18.22-.14.18.06.24.3,0,.34,0a.36.36,0,0,0,.24.09h.49a2,2,0,0,0,.44,0c.18,0,.33-.17.35,0s.13.25.35.35,0,.11.37.13.37-.23.42-.28.16,0,.25-.11a.31.31,0,0,1,.31,0,.36.36,0,0,0,.28.09,1.88,1.88,0,0,0,.71,0,3.39,3.39,0,0,1,.48-.19c.18,0,.36,0,.44-.14l.13-.22a1.72,1.72,0,0,1,.12-.17s.09,0,0-.07-.23-.14-.3-.07.08,0-.11.14a1.15,1.15,0,0,1-.44.23c-.1,0-.08,0-.25.1s-.06.15-.3.15h-.36c-.25,0-.36,0-.31,0a.34.34,0,0,1,.25-.07c.16,0,.21,0,.25,0s0-.08.07-.18.08-.15.17-.12.06,0,.17.05.09,0,.13-.12,0-.12.07-.12h.16c.07,0,0,.07.15,0s.31-.18.35-.22-.11-.07,0-.09l.43,0h.08l.3,0,.05,0a3.36,3.36,0,0,1,.65.29c.14.12.23-.13.3.25s.07.39.09.57,0,.25,0,.34-.26.1-.07.22.19,0,.21.38a2.38,2.38,0,0,0,.05.56c.07.32.19.23.28.38s.45.14.61.14.4,0,.39.13,0,.14.18.13.17-.09.3.06.26.25.42.16a1.25,1.25,0,0,1,.71-.15.73.73,0,0,1,.4.17,2,2,0,0,0,.57.25c.33.11.3.05.56,0s.32-.12.37-.08-.09.2.22.12.25-.28.45-.14a.79.79,0,0,0,.41.19c.11,0,0,0,.29,0s.3,0,.43.07.33.23.28,0-.18-.14-.07-.22.37-.23.4-.08-.13.31,0,.36a2.43,2.43,0,0,0,.39.11,5.66,5.66,0,0,0,.81.17c.16,0,.28.19.4.14s.37-.27.57-.19a2.1,2.1,0,0,0,0-.28c0-.17,0-.2,0-.38a1,1,0,0,1,.1-.38c0-.1.12-.13.19-.19s.06-.14.11-.24,0-.13,0-.21a.93.93,0,0,1,0-.42c0-.14.21-.18.26-.28s.11-.09.24-.09.15,0,.29,0,0-.12.11-.26a2.52,2.52,0,0,1,.15-.24c.06-.11.11-.07.31-.08s.23,0,.33-.09a.57.57,0,0,1,.41-.14,1,1,0,0,1,.3,0,.45.45,0,0,0,.36-.12c.07-.08.1-.31.13-.35a.43.43,0,0,0,0-.2,1.73,1.73,0,0,1,.1-.33C168.89,29.58,168.77,29.45,168.63,29.35ZM107.54,108c0-.06,0,0,0-.08s.09-.22.17-.19l.21.15a.49.49,0,0,1,.23.27c.08.18.07.1.21.18s.12.21.3.45.1.26.12.4a2.4,2.4,0,0,1,0,.47.82.82,0,0,0,0,.26s.11.5.1.56-.06.57.21.73.18.35.31.45.09.11.14.22a.31.31,0,0,0,0,.08,3.08,3.08,0,0,1,0,.46c0,.19-.07.26-.09.42s-.08.21-.31.37-.1.08-.16.18,0,.15,0,.34a.73.73,0,0,0,.09.38,2.3,2.3,0,0,1,.16.37c0,.11-.1.12-.18.45s0,.3.1.47a5.16,5.16,0,0,1,0,.6.68.68,0,0,0,.38.51.42.42,0,0,1,.2.33l0,.1a6.21,6.21,0,0,0,.29.57.63.63,0,0,1,.1.43c0,.12-.29,0-.41-.28s-.18-.2-.32-.34-.26,0-.32.19-.09.19-.21.22-.19-.3-.21-.44a3.87,3.87,0,0,1,0-.61s.09-.17.13-.28-.1-.07-.26-.25-.24-.1-.28-.15a1.55,1.55,0,0,1-.06-.51,6.78,6.78,0,0,0-.18-.9.28.28,0,0,1-.13-.15c0-.09.1-.5,0-.66a1.54,1.54,0,0,1-.34-.51c-.17-.36,0-.22.06-.36a2.28,2.28,0,0,1,.17-.3,1.08,1.08,0,0,1,.21-.3.51.51,0,0,0,.18-.48c0-.27-.11-.07-.14-.32a2.3,2.3,0,0,1,0-.55,1.8,1.8,0,0,0,0-.29c0-.13-.08-.2-.07-.32s0-.12,0-.3,0-.1,0-.17a1.51,1.51,0,0,0,0-.4A1.54,1.54,0,0,0,108,109a.4.4,0,0,1-.12-.21.74.74,0,0,0-.19-.3c-.12-.11-.08-.18-.1-.4Z"/><path class="cls-1" d="M56.24,87.37c0,.08.1.07.18.11a.33.33,0,0,0,.15,0l.22,0c.24,0,.1,0,.21,0l0-.08s-.09-.06-.24-.13-.08,0-.23-.06h0c-.14-.05-.14,0-.21-.11a1.65,1.65,0,0,1-.09-.16.12.12,0,0,0-.16,0s.08.16.12.24S56.22,87.29,56.24,87.37Z"/><path class="cls-1" d="M55.22,89.08l-.16,0H55s0,0,0,.15,0,.21.09.26.15.18.18,0,0-.19,0-.24S55.32,89.12,55.22,89.08Z"/><path class="cls-1" d="M51.42,78c-.08,0,0,0-.13,0l-.16,0h0c-.08,0,0,0-.07.11s-.22.08-.32.1,0,0,0,.16.07.08.17.13,0-.07.08-.1.06,0,.11,0,.05,0,.09,0l.1,0c.11,0,.09,0,.09-.09s0,0,.06-.1.15-.06.2-.12,0-.07,0-.11S51.51,78,51.42,78Z"/><path class="cls-1" d="M48,76.3a.15.15,0,0,1,.11-.11s.1,0,.09-.13-.09-.07-.18-.12a.28.28,0,0,0-.18,0h-.07c-.1,0-.27-.06-.29.09s0,.08.06.12,0,0,.1.06,0,0,0,.12a.18.18,0,0,0,.05.13s0,0,.11,0l.13,0C48.16,76.39,48,76.36,48,76.3Z"/><path class="cls-1" d="M4.66,63.1c0-.1,0-.09,0-.1s0,0,.07,0,.1,0,.07-.1,0-.13-.1-.15H4.58a.29.29,0,0,0-.13.08s-.06,0-.07.1-.09.13.06.18l.14,0C4.64,63.15,4.66,63.15,4.66,63.1Z"/><path class="cls-1" d="M5.15,62.81s-.09,0-.14,0S5,62.9,5,63s.09,0,.11.07l0,0,0,0s0,0,.08,0,0,0,0-.09,0-.08-.1-.11,0,0,0-.07S5.17,62.82,5.15,62.81Z"/><path class="cls-1" d="M3.32,63.74s0,0,.08,0,.11-.07.11-.13,0-.12,0-.14,0-.07-.08,0H3.32c-.08,0-.17,0-.15.08s-.1.15,0,.2Z"/><path class="cls-1" d="M2.8,63.49c0-.08-.11-.09-.19-.1h0c-.15-.05-.1.08-.14.16s0,.09.08.12l.09,0,.14,0S2.8,63.58,2.8,63.49Z"/><path class="cls-1" d="M3.77,63.91s0,.13-.18.16l-.27,0H3.21A.14.14,0,0,0,3,64c-.13,0-.19,0-.21.11s-.26.21,0,.31.39.09.44,0-.07,0,.08-.13h0c.16-.1.13-.11.24-.11s0,0,.2,0,.17-.09.18-.15,0-.14,0-.15S3.77,63.91,3.77,63.91Z"/><path class="cls-1" d="M135.91,118.81c0-.2,0-.24,0-.31s-.12-.14-.19-.08h0l-.14.13c-.05.08-.11.11-.07.22s.12.12.13.18,0,.1,0,.14l0,.05s.08.08.09,0,0-.11,0-.19S135.9,119,135.91,118.81Z"/><path class="cls-1" d="M141.08,122.81c-.09,0-.09-.09-.11,0a.59.59,0,0,0-.05.12c0,.09,0,.08,0,.14h0c-.06.08-.05.08-.12.13s-.09,0-.11.13a.51.51,0,0,0,0,.22c0,.12,0,.23,0,.24s.19,0,.2-.08-.05-.12,0-.17h0c.06-.05,0,0,.09-.06a.33.33,0,0,0,0-.2c0-.11,0-.13,0-.15s0,.06.07-.06S141.18,122.85,141.08,122.81Z"/><path class="cls-1" d="M141.73,119.05c-.2-.25,0-.29-.09-.46a2.94,2.94,0,0,1-.18-.5c-.07-.3.07-.24,0-.43s-.26-.81-.29-1a1.93,1.93,0,0,0-.13-.76c-.15-.24-.11-.25-.1-.58s0-.24,0-.39a.27.27,0,0,0-.11-.16l-.15-.12c-.13-.12-.11-.22-.14-.39s-.27-.29-.54-.48-.15-.19-.29-.34a.75.75,0,0,1-.1-.52c0-.17-.1-.14-.26-.16s-.12.1-.16.24.05.31-.17.37,0,.06,0,.27,0,.12-.15.15,0-.06-.15-.12-.2,0-.15.21.16.3.16.42,0,.12.16.28,0,.12,0,.22-.11.07-.18.19-.05.27-.07.27a2.54,2.54,0,0,0,0,.4.21.21,0,0,1-.13.21c-.06,0-.11,0-.37,0s-.11.12-.16.23-.12.08-.25.1,0,.14,0,.26,0,.23-.11.3h0c-.12.07-.19,0-.28-.21s-.05-.19-.12-.28-.24,0-.26.07a1.24,1.24,0,0,1-.19.24c-.13.16,0,.19,0,.29s.09.1.24.24.06.09.08.27a1,1,0,0,1-.1.48c0,.07-.13.11-.22,0a.22.22,0,0,0-.23-.12c-.08,0-.18.25-.15.42s.2.15.37.27.21.11.24.35-.07,0-.24-.09-.23-.18-.35-.15-.14.14-.19.31-.05.23-.14.32-.23.1-.25.29-.05.13-.1.11a.23.23,0,0,1-.09-.17c0-.17,0-.2-.15-.27s-.09,0-.14,0-.13.24-.22.25-.12,0-.19.14.09.14.21.32.19.1.25.17,0,.15-.06.2,0,0-.15.09-.11,0-.17,0-.15.07-.2.14-.11,0-.13-.12,0-.1.09-.22.06-.17,0-.22-.22,0-.35,0-.18.19-.26.24-.24.06-.31.12a7.21,7.21,0,0,0-.43.58c-.05.06.1.17.16.27s0,.17-.12.22-.17-.07-.24-.29-.07-.16-.17-.18-.18,0-.22.21-.13.1-.32,0l-.32-.1c-.16,0-.14.06-.2.19s-.06.22-.14.24-.25,0-.32,0-.15.22-.22.21-.05-.08-.15-.23-.06,0-.2,0-.31.41-.74.41-.06,0-.27-.12-.34,0-.49.22,0,.29,0,.51a.72.72,0,0,1-.28.58c-.2.2,0,.41-.06.63s-.27.21-.4.44a3,3,0,0,0-.36.68c-.07.26,0,.09.1.15s0,0,.11.4,0,.06,0,.37,0,.14,0,.57.07.14.13.34,0,.17,0,.38.09.12.27.27.08.23.06.42a1.1,1.1,0,0,0,0,.44c0,.22.1.17.21.34a1.18,1.18,0,0,1,.19.39c.07.21,0,.18,0,.29a.84.84,0,0,0,0,.42c0,.3.18.27.18.31s0,.14-.24.5-.14.13-.35.25-.14.3-.33.7-.2.23-.39.45-.07.52-.13.81-.18.22-.38.24-.19.07-.35.27,0,.33-.08.53-.35.77-.39.9,0,.15,0,.43a3.36,3.36,0,0,0,.13.61c0,.19,0,.4.1.67s.18.3.34.46.09.41.3.62.28.38.24.46a1.83,1.83,0,0,1-.31.24c-.07.07,0,.38,0,.61a3.75,3.75,0,0,0,0,.79c0,.41.29.35.47.47s.13.2.24.39.05.37.14.53.19.19.32.38.41.23.59.32a1,1,0,0,0,.47.07c.07,0,.3.25.48.38s.35.22.45.3.23.09.61.06.22-.12.53-.23.19-.1.36-.25.36-.13.58-.22a1.61,1.61,0,0,0,.41-.24c.22-.14.52,0,.68,0s.52-.19.65-.28a3.67,3.67,0,0,0,.6-.79,2.18,2.18,0,0,0,.26-.88,1.5,1.5,0,0,1,.1-.45c0-.06.08-.12.15-.23a1,1,0,0,0,.22-.53,12.83,12.83,0,0,0,.47-1.72c0-.33.08-1,.11-1.12a10.5,10.5,0,0,0,.59-1.06,2.36,2.36,0,0,0,.21-.81,1.23,1.23,0,0,1,.12-.48l.05-.18c.09-.41.11-.45.14-.67s.56-1.81.61-2a5.76,5.76,0,0,1,.26-.64c.12-.27.24-.46.32-.68s.07-.53.15-.71a1.74,1.74,0,0,0,.24-.75,21.71,21.71,0,0,1,.58-2.14c0-.08,0-.31,0-.65a1.21,1.21,0,0,0,0-.44c0-.2,0-.13.24-.49s.25-.17.38-.38.07-.14.08-.25,0-.14.06-.42a2.38,2.38,0,0,0,.09-.68c0-.39,0-.1-.17-.24s0-.43,0-.55a.85.85,0,0,0-.09-.41.48.48,0,0,1,0-.38c.05-.22.07-.05.19-.06s.15.06.2.12,0,0,0,0a.7.7,0,0,1,.18.38,1,1,0,0,0,.2.39c.07.13.05.14.16.19s.1-.09.18-.19a2.24,2.24,0,0,0,.32-.54,1.91,1.91,0,0,0,.14-.46,2.28,2.28,0,0,0-.08-.72C142,119.26,141.93,119.31,141.73,119.05Z"/><path class="cls-1" d="M137.57,115.29l-.07,0c-.07,0,0,.11-.07.13s-.05,0-.13,0,0,.08,0,.16,0,.07.07.16.09.05.2,0h.15s0,0,.11,0,0-.09-.08-.19-.08,0-.12-.09,0-.1,0-.21S137.6,115.27,137.57,115.29Z"/><path class="cls-1" d="M55.43,79.82c0-.08-.23-.14-.38-.16s0,0-.09.14a1,1,0,0,1-.41.31c-.17.08-.12.22-.23.48s.07.24.17.35.14.07.33.07.19-.3.23-.53.13-.15.21-.29.07,0,.21-.19S55.47,79.91,55.43,79.82Z"/><path class="cls-1" d="M48.55,90.58s0,0,0-.08,0,0-.11,0-.06,0-.09,0-.05,0-.06.07,0,.07,0,.11,0,0-.07.05-.18.43,0,.36,0-.09,0-.17,0-.07,0-.08a.72.72,0,0,1,.19,0c.05,0,.13,0,.13,0a.09.09,0,0,0,0-.08S48.55,90.61,48.55,90.58Z"/><path class="cls-1" d="M50.89,86.83l-.36-.06c-.14,0-.11-.13-.21.06s-.16.1-.14.26-.06.23.19.28.22.06.35,0,.15-.17.19-.26S51.17,86.88,50.89,86.83Z"/><path class="cls-1" d="M52.19,83.92c-.08,0,0,0-.14.08s-.12,0-.16.22-.2.13,0,.22.14.12.21.1a.69.69,0,0,1,.16,0s0,0,0-.11.11-.06.05-.24S52.28,83.87,52.19,83.92Z"/><path class="cls-1" d="M119.39,98.64c0,.13,0,.16,0,.23s-.1,0,0,.13.06.09.2.07a.15.15,0,0,0,.12-.07.45.45,0,0,0,.06-.12c0-.09.09-.1.17-.14s.13-.06.12-.13-.11-.2-.11-.23a.32.32,0,0,1,0-.18S120,98,120,98a.14.14,0,0,0-.11-.13.73.73,0,0,0-.21-.06h-.09a.24.24,0,0,0-.11.06.35.35,0,0,0,0,.2c0,.14,0,.14.09.21a.16.16,0,0,1,0,.22C119.45,98.54,119.41,98.52,119.39,98.64Z"/><path class="cls-1" d="M120.16,103.58c-.07-.06-.18-.12-.24-.1s0,0-.08.07,0,.16-.12.23l0,0-.17.13c-.14.11-.18.08-.18.23s-.22.17,0,.21.26,0,.31,0,0,0,0-.08,0-.21.1-.24.24-.1.24-.21,0-.16,0-.2S120.22,103.64,120.16,103.58Z"/><path class="cls-1" d="M118.41,100.52c0,.15,0,.22.15.27s.17,0,.18.12,0,.1.14.15l0,0c.16.07,0,.07.23.07s.3.12.24-.06-.15-.23-.17-.33.07-.22-.08-.34-.18-.1-.17-.28.05-.2,0-.35a1.23,1.23,0,0,0-.09-.24s0-.06-.07-.06c-.22,0-.09.28-.22.41s-.23,0-.23.2.08.16.09.26S118.38,100.37,118.41,100.52Z"/></g></g></svg>