<svg xmlns="http://www.w3.org/2000/svg" xmlns:xlink="http://www.w3.org/1999/xlink" width="26" height="26" viewBox="0 0 26 26">
    <defs>
        <path id="a" d="M0 0h36v36H0z"/>
    </defs>
    <g fill="none" fill-rule="evenodd" transform="translate(-5 -5)">
        <mask id="b" fill="#fff">
            <use xlink:href="#a"/>
        </mask>
        <use fill="#D8D8D8" fill-opacity="0" xlink:href="#a"/>
        <path fill="#FFF" d="M18 5C10.821 5 5 10.821 5 18s5.821 13 13 13 13-5.821 13-13S25.179 5 18 5m0 1.083c6.57 0 11.917 5.346 11.917 11.917 0 6.57-5.346 11.917-11.917 11.917-6.57 0-11.917-5.346-11.917-11.917C6.083 11.43 11.43 6.083 18 6.083" mask="url(#b)"/>
        <path stroke="#FFF" stroke-linecap="round" stroke-linejoin="round" stroke-width="1.5" d="M13 18.417l4.38 4.378L23.88 13" mask="url(#b)"/>
    </g>
</svg>
