<?xml version="1.0" encoding="UTF-8"?>
<svg width="32px" height="32px" viewBox="0 0 32 32" version="1.1" xmlns="http://www.w3.org/2000/svg" xmlns:xlink="http://www.w3.org/1999/xlink">
    <!-- Generator: Sketch 48.2 (47327) - http://www.bohemiancoding.com/sketch -->
    <title>Group 8</title>
    <desc>Created with Sketch.</desc>
    <defs></defs>
    <g id="Footers" stroke="none" stroke-width="1" fill="none" fill-rule="evenodd" transform="translate(-1129.000000, -306.000000)">
        <g id="Group-8" transform="translate(1130.000000, 307.000000)">
            <circle id="Oval-48-Copy-5" stroke="#FFFFFF" transform="translate(15.000000, 15.000000) rotate(-270.000000) translate(-15.000000, -15.000000) " cx="15" cy="15" r="15"></circle>
            <path d="M22.1707317,11.2911607 C21.6861332,11.5101587 21.1654029,11.6582193 20.6187542,11.7247385 C21.176676,11.3839931 21.60515,10.8443281 21.8068613,10.2013741 C21.2847821,10.5169355 20.7065302,10.7460465 20.0909904,10.8695612 C19.5981056,10.3344126 18.8958497,10 18.1186806,10 C16.6262964,10 15.4164621,11.2328888 15.4164621,12.753455 C15.4164621,12.9693111 15.4403572,13.1794236 15.4864131,13.380945 C13.2407068,13.2661195 11.2496567,12.169902 9.9169265,10.5040244 C9.68433463,10.9107 9.55108087,11.3836985 9.55108087,11.888312 C9.55108087,12.8435873 10.0281158,13.6863935 10.7531588,14.1802069 C10.3102322,14.1659212 9.89356133,14.0420138 9.52925732,13.8357796 C9.52906462,13.847267 9.52901644,13.8588036 9.52901644,13.8703892 C9.52901644,15.2045051 10.4604438,16.3174138 11.6965819,16.5703833 C11.4698193,16.6332698 11.2311091,16.6668976 10.9846909,16.6668976 C10.810536,16.6668976 10.6412951,16.6496664 10.4762936,16.6175113 C10.8201711,17.7114707 11.8180808,18.5075416 13.0005032,18.5298292 C12.0756759,19.2683156 10.9105968,19.7084717 9.64458974,19.7084717 C9.42649873,19.7084717 9.2113946,19.6954624 9,19.6700329 C10.1958633,20.4512781 11.6161768,20.9070945 13.1421395,20.9070945 C18.1123696,20.9070945 20.8302452,16.7114237 20.8302452,13.0727473 C20.8302452,12.9533563 20.8275955,12.8346035 20.8224407,12.716538 C21.3503491,12.3283209 21.8084511,11.843344 22.1707317,11.2911607" id="Fill-1-Copy-2" fill="#FFFFFF"></path>
        </g>
    </g>
</svg>